<svg width="16" height="16" viewBox="0 0 16 16" fill="none" xmlns="http://www.w3.org/2000/svg">
<g id="icons">
<path id="Union" d="M5.36429 6.23599C5.22843 6.10082 5.15186 5.91766 5.15128 5.72651C5.15089 5.631 5.16951 5.53635 5.20607 5.44803C5.24263 5.35971 5.2964 5.27946 5.36429 5.21192C5.43218 5.14438 5.51284 5.09088 5.60161 5.05451C5.69039 5.01814 5.78553 4.99961 5.88153 5.00001L10.2682 5.02559C10.3642 5.0252 10.4593 5.04372 10.5481 5.08009C10.6369 5.11646 10.7175 5.16996 10.7854 5.2375C10.8533 5.30504 10.9071 5.38529 10.9436 5.47361C10.9802 5.56193 10.9988 5.65658 10.9984 5.7521V10.0907C10.9988 10.1862 10.9802 10.2808 10.9436 10.3692C10.9071 10.4575 10.8533 10.5377 10.7854 10.6053C10.7175 10.6728 10.6369 10.7263 10.5481 10.7627C10.4593 10.799 10.3642 10.8176 10.2682 10.8172C10.076 10.8166 9.89193 10.7404 9.75607 10.6053C9.62021 10.4701 9.54363 10.2869 9.54306 10.0958V7.50403L6.24421 10.786C6.1766 10.8538 6.09617 10.9076 6.00754 10.9444C5.91892 10.9811 5.82386 11 5.72785 11C5.63184 11 5.53678 10.9811 5.44816 10.9444C5.35953 10.9076 5.27909 10.8538 5.21148 10.786C5.07603 10.6504 5 10.467 5 10.2759C5 10.0847 5.07603 9.90134 5.21148 9.76578L8.52785 6.4664L5.87639 6.4479C5.68426 6.44734 5.50015 6.37115 5.36429 6.23599Z" fill="white"/>
</g>
</svg>
