<svg xmlns="http://www.w3.org/2000/svg" width="14" height="14" viewBox="0 0 14 14" fill="none">
  <path d="M3 13.6667C2.33865 13.6649 1.70479 13.4019 1.23652 12.9348C0.768247 12.4678 0.503516 11.8347 0.5 11.1733V5.17332C0.50176 4.51082 0.765717 3.87596 1.23418 3.4075C1.70264 2.93904 2.3375 2.67508 3 2.67332H3.66667C3.78848 2.68746 3.90084 2.74586 3.9824 2.83744C4.06396 2.92901 4.10903 3.04736 4.10903 3.16999C4.10903 3.29261 4.06396 3.41097 3.9824 3.50254C3.90084 3.59411 3.78848 3.65252 3.66667 3.66665H3C2.80108 3.66486 2.6038 3.70283 2.41976 3.77833C2.23572 3.85383 2.06861 3.96534 1.92826 4.10631C1.7879 4.24729 1.67713 4.41488 1.60244 4.59926C1.52776 4.78364 1.49066 4.98108 1.49333 5.17999V11.18C1.49333 11.3772 1.53239 11.5725 1.60827 11.7546C1.68415 11.9366 1.79534 12.1018 1.93542 12.2407C2.07551 12.3795 2.24171 12.4892 2.42443 12.5635C2.60715 12.6378 2.80277 12.6751 3 12.6733H11C11.1967 12.6733 11.3914 12.6345 11.573 12.559C11.7546 12.4835 11.9196 12.373 12.0583 12.2336C12.1971 12.0942 12.3069 11.9288 12.3816 11.7468C12.4562 11.5649 12.4942 11.37 12.4933 11.1733V5.17332C12.4942 4.97634 12.4563 4.78111 12.3817 4.59878C12.3071 4.41646 12.1974 4.25061 12.0587 4.1107C11.92 3.9708 11.7552 3.85957 11.5735 3.78338C11.3919 3.70719 11.197 3.66753 11 3.66665H10.3333C10.2019 3.66667 10.0757 3.6149 9.98212 3.52257C9.88854 3.43024 9.83509 3.30477 9.83333 3.17332C9.83156 3.10623 9.84314 3.03945 9.86739 2.97687C9.89164 2.91429 9.92808 2.85715 9.9746 2.80877C10.0211 2.76039 10.0768 2.72174 10.1384 2.69505C10.2 2.66836 10.2662 2.65418 10.3333 2.65332H11C11.6613 2.65507 12.2952 2.91811 12.7635 3.38513C13.2318 3.85215 13.4965 4.48531 13.5 5.14665V11.1467C13.5035 11.4769 13.4414 11.8045 13.3173 12.1105C13.1932 12.4166 13.0095 12.6949 12.7769 12.9293C12.5443 13.1638 12.2674 13.3497 11.9624 13.4763C11.6574 13.6028 11.3302 13.6676 11 13.6667H3Z" fill="#5C627A"/>
  <path d="M5.66602 3.66699C5.53341 3.66699 5.40623 3.61431 5.31246 3.52055C5.21869 3.42678 5.16602 3.2996 5.16602 3.16699C5.16602 3.03438 5.21869 2.90721 5.31246 2.81344C5.40623 2.71967 5.53341 2.66699 5.66602 2.66699H8.33268C8.46529 2.66699 8.59247 2.71967 8.68624 2.81344C8.78 2.90721 8.83268 3.03438 8.83268 3.16699C8.83268 3.2996 8.78 3.42678 8.68624 3.52055C8.59247 3.61431 8.46529 3.66699 8.33268 3.66699H5.66602Z" fill="#5C627A"/>
  <path d="M4.6524 4.6735C4.25458 4.6735 3.87305 4.51546 3.59174 4.23416C3.31044 3.95285 3.1524 3.57132 3.1524 3.1735V1.84016C3.15064 1.64294 3.18797 1.44731 3.26223 1.26459C3.33648 1.08187 3.4462 0.915671 3.58505 0.775587C3.72389 0.635503 3.88911 0.524311 4.07117 0.448431C4.25322 0.372552 4.4485 0.333488 4.64574 0.333496V0.333496C5.04187 0.335233 5.42139 0.492914 5.70213 0.772404C5.98287 1.05189 6.14223 1.4307 6.14574 1.82683V3.16016C6.1468 3.35667 6.10907 3.55145 6.03471 3.73335C5.96035 3.91525 5.85082 4.08068 5.7124 4.22016C5.43122 4.50216 5.05061 4.66254 4.6524 4.66683V4.66683V4.6735ZM4.6524 1.34016C4.58705 1.34016 4.52235 1.35313 4.46206 1.37834C4.40177 1.40355 4.34708 1.44049 4.30119 1.48701C4.25529 1.53352 4.21909 1.5887 4.19469 1.64932C4.1703 1.70995 4.15819 1.77482 4.15907 1.84016V3.1735C4.16256 3.24105 4.17972 3.3072 4.20951 3.36793C4.2393 3.42867 4.28111 3.48272 4.3324 3.52683C4.41693 3.61316 4.53164 3.66335 4.6524 3.66683V3.66683C4.78562 3.66508 4.91279 3.61092 5.00637 3.51609C5.09995 3.42126 5.15241 3.29339 5.1524 3.16016V1.82683C5.14893 1.69655 5.09472 1.57277 5.00133 1.48186C4.90793 1.39096 4.78273 1.34012 4.6524 1.34016V1.34016Z" fill="#5C627A"/>
  <path d="M9.32031 4.66016C9.12323 4.66109 8.92795 4.62265 8.74593 4.54709C8.5639 4.47154 8.3988 4.36039 8.26031 4.22016C7.97893 3.93913 7.82066 3.55785 7.82031 3.16016V1.82683C7.82031 1.43077 7.97765 1.05094 8.2577 0.770883C8.53775 0.490829 8.91759 0.333496 9.31365 0.333496V0.333496C9.70978 0.335233 10.0893 0.492914 10.37 0.772404C10.6508 1.05189 10.8101 1.4307 10.8136 1.82683V3.16016C10.8145 3.35715 10.7766 3.55237 10.702 3.7347C10.6274 3.91702 10.5177 4.08287 10.379 4.22278C10.2404 4.36269 10.0755 4.47391 9.89383 4.5501C9.71218 4.62629 9.5173 4.66596 9.32031 4.66683V4.66016ZM9.32031 1.32683C9.18886 1.32858 9.06339 1.38203 8.97106 1.47561C8.87873 1.56919 8.82697 1.69537 8.82698 1.82683V3.16016C8.82698 3.29277 8.87966 3.41995 8.97343 3.51372C9.06719 3.60748 9.19437 3.66016 9.32698 3.66016V3.66016C9.39264 3.66016 9.45766 3.64723 9.51832 3.6221C9.57898 3.59697 9.6341 3.56015 9.68053 3.51372C9.72696 3.46729 9.76379 3.41217 9.78892 3.3515C9.81405 3.29084 9.82698 3.22582 9.82698 3.16016V1.82683C9.82699 1.7606 9.81384 1.69504 9.78829 1.63394C9.76275 1.57283 9.72532 1.51742 9.67818 1.4709C9.63105 1.42438 9.57514 1.38769 9.5137 1.36296C9.45227 1.33823 9.38653 1.32595 9.32031 1.32683V1.32683Z" fill="#5C627A"/>
  <path d="M1 7C0.867392 7 0.740215 6.94732 0.646447 6.85355C0.552678 6.75978 0.5 6.63261 0.5 6.5C0.5 6.36739 0.552678 6.24022 0.646447 6.14645C0.740215 6.05268 0.867392 6 1 6H13C13.1326 6 13.2598 6.05268 13.3536 6.14645C13.4473 6.24022 13.5 6.36739 13.5 6.5C13.5018 6.56616 13.4902 6.632 13.4657 6.6935C13.4412 6.75499 13.4044 6.81085 13.3576 6.85765C13.3108 6.90445 13.255 6.94121 13.1935 6.96569C13.132 6.99016 13.0662 7.00184 13 7H1Z" fill="#5C627A"/>
</svg>