<?xml version="1.0" encoding="utf-8"?>
<!-- Generator: Adobe Illustrator 26.0.1, SVG Export Plug-In . SVG Version: 6.00 Build 0)  -->
<svg version="1.1" id="Layer_1" xmlns="http://www.w3.org/2000/svg" xmlns:xlink="http://www.w3.org/1999/xlink" x="0px" y="0px"
	 viewBox="0 0 18 20.5" style="enable-background:new 0 0 18 20.5;" xml:space="preserve">
<style type="text/css">
	.st0{fill:currentColor;}
	.st1{fill:none;stroke:currentColor;stroke-width:1.5;}
</style>
<path class="st0" d="M16.3,19.8H2.1c-0.5,0-0.9-0.2-1.2-0.5S0.3,18.5,0.3,18V9.2c0-1,0.4-1.9,1.1-2.6c0.7-0.7,1.7-1.1,2.6-1.1h10.2
	c1,0,1.9,0.4,2.7,1.1C17.6,7.3,18,8.2,18,9.2V18c0,0.5-0.2,0.9-0.5,1.2S16.7,19.8,16.3,19.8z M4.1,7C3.5,7,2.9,7.2,2.5,7.7
	c-0.4,0.4-0.7,1-0.7,1.6V18c0,0,0,0.1,0,0.1c0,0,0,0,0,0.1c0,0,0,0,0.1,0c0,0,0.1,0,0.1,0h14.2c0,0,0.1,0,0.1,0c0,0,0.1,0,0.1,0
	c0,0,0,0,0-0.1c0,0,0-0.1,0-0.1V9.2c0-0.6-0.2-1.2-0.7-1.6c-0.4-0.4-1-0.7-1.6-0.7H4.1z"/>
<path class="st1" d="M1.3,12.5c3.6,1.9,11.7,1.9,16,0"/>
<path class="st1" d="M13.1,5.7L13.1,5.7c0-2.2-1.8-4-4-4l0,0c-2.2,0-4,1.8-4,4l0,0"/>
</svg>
