<svg width="34" height="34" viewBox="0 0 34 34" fill="none" xmlns="http://www.w3.org/2000/svg">
<g id="Group">
<path id="Vector" d="M16.9993 33.8005C13.6686 33.8005 10.4127 32.8123 7.64377 30.9612C4.87482 29.1101 2.71728 26.4791 1.44419 23.4012C0.171098 20.3234 -0.160306 16.9371 0.491918 13.6708C1.14414 10.4046 2.75068 7.40523 5.1082 5.05237C7.46572 2.69952 10.4682 1.09894 13.7358 0.45319C17.0033 -0.192558 20.389 0.145557 23.4643 1.42475C26.5396 2.70393 29.1663 4.86669 31.0119 7.6393C32.8576 10.4119 33.8393 13.6697 33.8327 17.0005C33.8194 21.4578 32.0406 25.7283 28.8857 28.877C25.7307 32.0257 21.4567 33.7961 16.9993 33.8005ZM16.9993 2.6338C14.1659 2.6338 11.396 3.4736 9.03963 5.0471C6.68325 6.6206 4.8461 8.8572 3.76027 11.4743C2.67444 14.0915 2.38865 16.9717 2.93901 19.7512C3.48937 22.5307 4.85118 25.0847 6.8524 27.0905C8.85362 29.0964 11.4045 30.4642 14.1827 31.021C16.9608 31.5778 19.8417 31.2987 22.4614 30.2189C25.081 29.1392 27.3219 27.3072 28.9009 24.9545C30.4798 22.6018 31.3261 19.8339 31.3327 17.0005C31.3349 15.116 30.9658 13.2495 30.2467 11.5077C29.5276 9.76582 28.4724 8.18266 27.1414 6.8486C25.8105 5.51453 24.2297 4.45568 22.4896 3.7325C20.7494 3.00932 18.8838 2.63598 16.9993 2.6338Z" fill="#00E589"/>
<path id="Vector_2" d="M21.6833 22.8839C21.5187 22.8876 21.3551 22.8569 21.203 22.7937C21.0509 22.7306 20.9136 22.6364 20.8 22.5172L16.1167 17.8505C15.8822 17.6163 15.7503 17.2986 15.75 16.9672V7.61719C15.75 7.28567 15.8817 6.96772 16.1161 6.7333C16.3505 6.49888 16.6685 6.36719 17 6.36719C17.3315 6.36719 17.6495 6.49888 17.8839 6.7333C18.1183 6.96772 18.25 7.28567 18.25 7.61719V16.4505L22.5667 20.7505C22.8008 20.9849 22.9322 21.3026 22.9322 21.6339C22.9322 21.9651 22.8008 22.2828 22.5667 22.5172C22.4513 22.634 22.3137 22.7267 22.162 22.7896C22.0103 22.8526 21.8476 22.8846 21.6833 22.8839Z" fill="#00E589"/>
</g>
</svg>
