<svg xmlns="http://www.w3.org/2000/svg" width="14" height="14" viewBox="0 0 14 14" fill="none">
  <path d="M7.0009 13.7201C5.66861 13.7201 4.36626 13.3248 3.25868 12.5844C2.1511 11.8439 1.28808 10.7915 0.778847 9.5604C0.269611 8.32927 0.137049 6.97474 0.397939 5.66823C0.658829 4.36173 1.30144 3.16199 2.24445 2.22085C3.18746 1.27971 4.38847 0.639478 5.69549 0.381179C7.0025 0.122879 8.35677 0.258125 9.58689 0.769801C10.817 1.28148 11.8677 2.14658 12.606 3.25562C13.3442 4.36467 13.7369 5.6678 13.7342 7.00009C13.7289 8.78303 13.0174 10.4912 11.7554 11.7507C10.4935 13.0102 8.78385 13.7183 7.0009 13.7201V13.7201ZM7.0009 1.25342C5.86752 1.25342 4.75957 1.58934 3.81702 2.21874C2.87447 2.84814 2.13961 3.74278 1.70528 4.78963C1.27095 5.83649 1.15663 6.98859 1.37678 8.10038C1.59692 9.21217 2.14164 10.2338 2.94213 11.0361C3.74262 11.8385 4.76295 12.3856 5.87423 12.6083C6.98551 12.831 8.13787 12.7194 9.18573 12.2875C10.2336 11.8556 11.1299 11.1228 11.7615 10.1817C12.3931 9.24063 12.7316 8.13346 12.7342 7.00009C12.7351 6.2463 12.5875 5.49972 12.2999 4.80298C12.0122 4.10623 11.5901 3.47297 11.0577 2.93934C10.5254 2.40571 9.89307 1.98217 9.197 1.6929C8.50092 1.40363 7.75469 1.2543 7.0009 1.25342V1.25342Z" fill="#5C627A"/>
  <path d="M8.87333 9.35325C8.80748 9.35473 8.74203 9.34246 8.68119 9.3172C8.62035 9.29195 8.56545 9.25427 8.52 9.20658L6.64667 7.33992C6.55287 7.24624 6.50012 7.11915 6.5 6.98658V3.24658C6.5 3.11397 6.55268 2.9868 6.64645 2.89303C6.74022 2.79926 6.86739 2.74658 7 2.74658C7.13261 2.74658 7.25979 2.79926 7.35355 2.89303C7.44732 2.9868 7.5 3.11397 7.5 3.24658V6.77992L9.22667 8.49992C9.3203 8.59367 9.37289 8.72075 9.37289 8.85325C9.37289 8.98575 9.3203 9.11283 9.22667 9.20658C9.1805 9.25332 9.12547 9.29037 9.0648 9.31556C9.00412 9.34074 8.93903 9.35356 8.87333 9.35325V9.35325Z" fill="#5C627A"/>
</svg>