<svg width="33" height="32" viewBox="0 0 33 32" fill="none" xmlns="http://www.w3.org/2000/svg">
<g id="Icon/ Social Media">
<rect id="Rectangle" x="0.5" width="32" height="32" rx="16" fill="#00E589"/>
<path id="Vector" d="M26.5 16C26.5 10.4771 22.0228 6 16.5 6C10.9772 6 6.5 10.4771 6.5 16C6.5 20.9912 10.1568 25.1283 14.9375 25.8785V18.8906H12.3984V16H14.9375V13.7969C14.9375 11.2906 16.4305 9.90625 18.7146 9.90625C19.8084 9.90625 20.9531 10.1016 20.9531 10.1016V12.5625H19.6922C18.45 12.5625 18.0625 13.3334 18.0625 14.125V16H20.8359L20.3926 18.8906H18.0625V25.8785C22.8432 25.1283 26.5 20.9912 26.5 16Z" fill="#05253E"/>
</g>
</svg>
