<svg xmlns="http://www.w3.org/2000/svg" width="40" height="20" viewBox="0 0 40 20" fill="none">
  <g clip-path="url(#clip0_4223_2065)">
    <path d="M37.8935 4.12035H39.6713V5.69022H37.8935V7.51467H36.1958V5.69022H34.418V4.12035H36.1958V2.2959H37.8935V4.12035Z" fill="#05253E"/>
    <path d="M23.4602 7.37685H22.2109V5.67969H25.4783V14.3776H23.4602V7.37685Z" fill="#05253E"/>
    <path d="M27.7724 13.8365C27.2278 13.3592 26.9182 12.6697 26.9342 11.9484C26.9235 11.3915 27.1371 10.8558 27.5268 10.4581C27.8311 10.1558 28.2048 9.93301 28.6159 9.80572C28.3116 9.68374 28.0393 9.50342 27.8151 9.27006C27.452 8.90411 27.2545 8.40557 27.2759 7.88581C27.2599 7.2812 27.4894 6.6978 27.9165 6.2682C29.2299 5.20747 31.1144 5.20747 32.4331 6.2682C32.8602 6.6978 33.0951 7.2812 33.0738 7.88581C33.0951 8.40026 32.9029 8.8988 32.5346 9.27006C32.3103 9.50342 32.0381 9.68374 31.7337 9.80572C32.1448 9.93301 32.5185 10.1558 32.8229 10.4581C33.2126 10.8558 33.4261 11.3915 33.4155 11.9484C33.4261 12.6697 33.1218 13.3592 32.5773 13.8365C31.9046 14.3934 31.0397 14.5684 30.1641 14.5631C29.2886 14.5578 28.4397 14.3881 27.7777 13.8365H27.7724ZM29.3206 10.9301C29.1017 11.1635 28.9843 11.4711 28.9789 11.7893C28.9736 12.1128 29.0964 12.4257 29.3206 12.6591C29.8118 13.0781 30.5325 13.0781 31.0237 12.6591C31.2533 12.4204 31.376 12.1022 31.3654 11.7734C31.3707 11.4552 31.2479 11.1475 31.0237 10.9248C30.7834 10.7126 30.4685 10.6013 30.1481 10.6119C29.8385 10.6119 29.5395 10.7233 29.3153 10.9301H29.3206ZM29.4007 7.24937C28.9843 7.62593 28.9576 8.26767 29.3366 8.67605C29.358 8.69727 29.3793 8.71848 29.4007 8.73969C29.6142 8.92532 29.8919 9.02609 30.1748 9.02609C30.4578 9.03139 30.7301 8.93062 30.9329 8.73969C31.1465 8.55407 31.2693 8.27828 31.2639 7.99188C31.2639 7.70549 31.1465 7.4297 30.9329 7.23346C30.7194 7.05314 30.4524 6.95767 30.1748 6.96298C29.8865 6.95767 29.6142 7.05844 29.4007 7.24937Z" fill="#05253E"/>
    <path d="M38.2141 9.03752C38.2462 9.35574 38.2622 9.67396 38.2622 9.99748C38.2622 15.1526 34.2047 19.3319 29.2076 19.3319H9.72643C4.724 19.3319 0.671875 15.1526 0.671875 9.99748C0.671875 4.84235 4.72934 0.663086 9.72643 0.663086H29.2076C31.0014 0.663086 32.6725 1.19875 34.0819 2.12689" stroke="#05253E" stroke-width="1.33812" stroke-miterlimit="10" stroke-linecap="round"/>
    <path d="M10.0653 19.3388C15.2574 19.3388 19.4665 15.1575 19.4665 9.9995C19.4665 4.84152 15.2574 0.660156 10.0653 0.660156C4.87314 0.660156 0.664062 4.84152 0.664062 9.9995C0.664062 15.1575 4.87314 19.3388 10.0653 19.3388Z" stroke="#05253E" stroke-width="1.33883" stroke-miterlimit="10"/>
    <path d="M12.5918 7.02297C13.1818 7.02297 13.6601 6.54781 13.6601 5.96168C13.6601 5.37555 13.1818 4.90039 12.5918 4.90039C12.0017 4.90039 11.5234 5.37555 11.5234 5.96168C11.5234 6.54781 12.0017 7.02297 12.5918 7.02297Z" fill="#05253E"/>
    <path d="M6.88082 11.4214C7.47084 11.4214 7.94914 10.9463 7.94914 10.3601C7.94914 9.77398 7.47084 9.29883 6.88082 9.29883C6.2908 9.29883 5.8125 9.77398 5.8125 10.3601C5.8125 10.9463 6.2908 11.4214 6.88082 11.4214Z" fill="#05253E"/>
    <path d="M12.593 5.96094V11.2621C12.4648 15.019 7.01101 15.0137 6.88281 11.2621V10.36" stroke="url(#paint0_radial_4223_2065)" stroke-width="2.13359" stroke-miterlimit="10"/>
  </g>
  <defs>
    <radialGradient id="paint0_radial_4223_2065" cx="0" cy="0" r="1" gradientUnits="userSpaceOnUse" gradientTransform="translate(11.9881 12.9189) rotate(-85.4125) scale(6.9557 7.0012)">
      <stop offset="0.405194" stop-color="#05253E"/>
      <stop offset="0.880208" stop-color="#05253E" stop-opacity="0"/>
    </radialGradient>
    <clipPath id="clip0_4223_2065">
      <rect width="39.6724" height="20" fill="white"/>
    </clipPath>
  </defs>
</svg>