<svg width="33" height="32" viewBox="0 0 33 32" fill="none" xmlns="http://www.w3.org/2000/svg">
<g id="Icon/ Social Media">
<rect id="Rectangle" x="0.5" width="32" height="32" rx="16" fill="#00E589"/>
<path id="Vector" d="M16.5 7.80078C19.1719 7.80078 19.4883 7.8125 20.5391 7.85937C21.5156 7.90234 22.043 8.06641 22.3945 8.20313C22.8594 8.38281 23.1953 8.60156 23.543 8.94922C23.8945 9.30078 24.1094 9.63281 24.2891 10.0977C24.4258 10.4492 24.5898 10.9805 24.6328 11.9531C24.6797 13.0078 24.6914 13.3242 24.6914 15.9922C24.6914 18.6641 24.6797 18.9805 24.6328 20.0313C24.5898 21.0078 24.4258 21.5352 24.2891 21.8867C24.1094 22.3516 23.8906 22.6875 23.543 23.0352C23.1914 23.3867 22.8594 23.6016 22.3945 23.7813C22.043 23.918 21.5117 24.082 20.5391 24.125C19.4844 24.1719 19.168 24.1836 16.5 24.1836C13.8281 24.1836 13.5117 24.1719 12.4609 24.125C11.4844 24.082 10.957 23.918 10.6055 23.7813C10.1406 23.6016 9.80469 23.3828 9.45703 23.0352C9.10547 22.6836 8.89062 22.3516 8.71094 21.8867C8.57422 21.5352 8.41016 21.0039 8.36719 20.0313C8.32031 18.9766 8.30859 18.6602 8.30859 15.9922C8.30859 13.3203 8.32031 13.0039 8.36719 11.9531C8.41016 10.9766 8.57422 10.4492 8.71094 10.0977C8.89062 9.63281 9.10937 9.29688 9.45703 8.94922C9.80859 8.59766 10.1406 8.38281 10.6055 8.20313C10.957 8.06641 11.4883 7.90234 12.4609 7.85937C13.5117 7.8125 13.8281 7.80078 16.5 7.80078ZM16.5 6C13.7852 6 13.4453 6.01172 12.3789 6.05859C11.3164 6.10547 10.5859 6.27734 9.95312 6.52344C9.29297 6.78125 8.73438 7.12109 8.17969 7.67969C7.62109 8.23438 7.28125 8.79297 7.02344 9.44922C6.77734 10.0859 6.60547 10.8125 6.55859 11.875C6.51172 12.9453 6.5 13.2852 6.5 16C6.5 18.7148 6.51172 19.0547 6.55859 20.1211C6.60547 21.1836 6.77734 21.9141 7.02344 22.5469C7.28125 23.207 7.62109 23.7656 8.17969 24.3203C8.73438 24.875 9.29297 25.2188 9.94922 25.4727C10.5859 25.7188 11.3125 25.8906 12.375 25.9375C13.4414 25.9844 13.7812 25.9961 16.4961 25.9961C19.2109 25.9961 19.5508 25.9844 20.6172 25.9375C21.6797 25.8906 22.4102 25.7188 23.043 25.4727C23.6992 25.2188 24.2578 24.875 24.8125 24.3203C25.3672 23.7656 25.7109 23.207 25.9648 22.5508C26.2109 21.9141 26.3828 21.1875 26.4297 20.125C26.4766 19.0586 26.4883 18.7188 26.4883 16.0039C26.4883 13.2891 26.4766 12.9492 26.4297 11.8828C26.3828 10.8203 26.2109 10.0898 25.9648 9.45703C25.7187 8.79297 25.3789 8.23438 24.8203 7.67969C24.2656 7.125 23.707 6.78125 23.0508 6.52734C22.4141 6.28125 21.6875 6.10938 20.625 6.0625C19.5547 6.01172 19.2148 6 16.5 6Z" fill="#05253E"/>
<path id="Vector_2" d="M16.5 10.8633C13.6641 10.8633 11.3633 13.1641 11.3633 16C11.3633 18.8359 13.6641 21.1367 16.5 21.1367C19.3359 21.1367 21.6367 18.8359 21.6367 16C21.6367 13.1641 19.3359 10.8633 16.5 10.8633ZM16.5 19.332C14.6602 19.332 13.168 17.8398 13.168 16C13.168 14.1602 14.6602 12.668 16.5 12.668C18.3398 12.668 19.832 14.1602 19.832 16C19.832 17.8398 18.3398 19.332 16.5 19.332Z" fill="#05253E"/>
<path id="Vector_3" d="M23.0391 10.6602C23.0391 11.3242 22.5 11.8594 21.8398 11.8594C21.1758 11.8594 20.6406 11.3203 20.6406 10.6602C20.6406 9.99609 21.1797 9.46094 21.8398 9.46094C22.5 9.46094 23.0391 10 23.0391 10.6602Z" fill="#05253E"/>
</g>
</svg>
