<svg xmlns="http://www.w3.org/2000/svg" width="7" height="12" viewBox="0 0 7 12" fill="none">
  <path d="M6.56175 10.8513C6.748 10.6639 6.85254 10.4105 6.85254 10.1463C6.85254 9.88208 6.748 9.62863 6.56175 9.44127L3.02175 5.85127L6.56175 2.31127C6.748 2.1239 6.85254 1.87045 6.85254 1.60627C6.85254 1.34208 6.748 1.08863 6.56175 0.901267C6.46878 0.807539 6.35818 0.733144 6.23632 0.682376C6.11446 0.631607 5.98376 0.605469 5.85175 0.605469C5.71973 0.605469 5.58903 0.631607 5.46717 0.682376C5.34531 0.733144 5.23471 0.807539 5.14175 0.901267L0.901747 5.14127C0.808019 5.23423 0.733625 5.34483 0.682856 5.46669C0.632087 5.58855 0.605949 5.71926 0.605949 5.85127C0.605949 5.98328 0.632087 6.11399 0.682856 6.23584C0.733625 6.3577 0.808019 6.4683 0.901748 6.56127L5.14175 10.8513C5.23471 10.945 5.34531 11.0194 5.46717 11.0702C5.58903 11.1209 5.71974 11.1471 5.85175 11.1471C5.98376 11.1471 6.11447 11.1209 6.23632 11.0702C6.35818 11.0194 6.46878 10.945 6.56175 10.8513Z" fill="#05253E"/>
</svg>