<svg xmlns="http://www.w3.org/2000/svg" width="16" height="16" viewBox="0 0 16 16" fill="none">
  <path d="M3.61471 16H0.308231V5.37066H3.61471V16ZM1.92785 3.85106C0.861927 3.85106 0 2.98768 0 1.92497C0 0.862262 0.863047 0 1.92785 0C2.9904 0 3.85457 0.863382 3.85457 1.92497C3.85457 2.98768 2.9904 3.85106 1.92785 3.85106ZM16 16H12.6958V10.8309C12.6958 9.59798 12.6733 8.01232 10.9775 8.01232C9.25702 8.01232 8.9925 9.35498 8.9925 10.7413V16H5.68827V5.37066H8.86024V6.82307H8.90508C9.34669 5.98768 10.4249 5.10638 12.0333 5.10638C15.3813 5.10638 16 7.30795 16 10.1702V16Z" fill="#05253E"/>
</svg>