<svg width="33" height="32" viewBox="0 0 33 32" fill="none" xmlns="http://www.w3.org/2000/svg">
<g id="Icon/ Social Media">
<rect id="Rectangle" x="0.5" width="32" height="32" rx="16" fill="#00E589"/>
<path id="Vector" d="M13.1147 23H9.80823V12.3707H13.1147V23ZM11.4278 10.8511C10.3619 10.8511 9.5 9.98768 9.5 8.92497C9.5 7.86226 10.363 7 11.4278 7C12.4904 7 13.3546 7.86338 13.3546 8.92497C13.3546 9.98768 12.4904 10.8511 11.4278 10.8511ZM25.5 23H22.1958V17.8309C22.1958 16.598 22.1733 15.0123 20.4775 15.0123C18.757 15.0123 18.4925 16.355 18.4925 17.7413V23H15.1883V12.3707H18.3602V13.8231H18.4051C18.8467 12.9877 19.9249 12.1064 21.5333 12.1064C24.8813 12.1064 25.5 14.308 25.5 17.1702V23Z" fill="#05253E"/>
</g>
</svg>
