<svg width="30" height="36" viewBox="0 0 30 36" fill="none" xmlns="http://www.w3.org/2000/svg">
<g id="Group">
<path id="Vector" d="M6.66696 35.9331C5.01072 35.9243 3.42532 35.2602 2.25729 34.0859C1.08927 32.9117 0.433607 31.3227 0.433631 29.6665V16.3331C0.427988 14.6893 1.06845 13.1091 2.21696 11.9331C2.79906 11.3464 3.4926 10.8819 4.25681 10.567C5.02102 10.2522 5.84047 10.0933 6.66696 10.0998H23.3336C24.9841 10.1086 26.5645 10.7681 27.7316 11.9352C28.8987 13.1023 29.5582 14.6826 29.567 16.3331V29.6665C29.5689 31.3258 28.9161 32.9189 27.7503 34.0998C27.168 34.6735 26.478 35.1265 25.72 35.4325C24.9621 35.7386 24.151 35.8917 23.3336 35.8831H6.66696V35.9331ZM23.3336 12.5998H6.66696C6.17651 12.5959 5.69035 12.6914 5.23778 12.8804C4.7852 13.0695 4.37559 13.3482 4.03363 13.6998C3.67904 14.0413 3.39616 14.4501 3.20155 14.9022C3.00695 15.3544 2.90453 15.8409 2.9003 16.3331V29.6665C2.89809 30.1617 2.99401 30.6525 3.18252 31.1105C3.37104 31.5685 3.6484 31.9846 3.99861 32.3348C4.34882 32.685 4.76493 32.9624 5.22292 33.1509C5.68091 33.3394 6.1717 33.4353 6.66696 33.4331H23.3336C23.8289 33.4353 24.3197 33.3394 24.7777 33.1509C25.2357 32.9624 25.6518 32.685 26.002 32.3348C26.3522 31.9846 26.6296 31.5685 26.8181 31.1105C27.0066 30.6525 27.1025 30.1617 27.1003 29.6665V16.3331C27.1047 15.8365 27.0104 15.3439 26.8229 14.884C26.6354 14.424 26.3584 14.0059 26.0079 13.654C25.6575 13.302 25.2407 13.0231 24.7816 12.8336C24.3225 12.644 23.8303 12.5476 23.3336 12.5498V12.5998Z" fill="#00E589"/>
<path id="Vector_2" d="M8.33411 12.5831C8.17105 12.5861 8.00902 12.5566 7.85739 12.4966C7.70577 12.4365 7.56756 12.3469 7.45078 12.2331C7.32813 12.1168 7.22965 11.9774 7.16101 11.823C7.09236 11.6685 7.05491 11.5021 7.05078 11.3331V7.99976C7.05078 6.95653 7.25653 5.92355 7.65626 4.95995C8.05599 3.99634 8.64185 3.12104 9.38029 2.38414C10.1187 1.64725 10.9953 1.06323 11.9597 0.665523C12.9241 0.267817 13.9576 0.0642321 15.0008 0.0664238C17.0948 0.0839798 19.0973 0.927027 20.5734 2.41244C22.0494 3.89786 22.8798 5.90567 22.8841 7.99976V11.3331C22.8864 11.4979 22.8556 11.6614 22.7935 11.8141C22.7315 11.9668 22.6395 12.1054 22.523 12.222C22.4065 12.3385 22.2678 12.4305 22.1151 12.4925C21.9624 12.5545 21.7989 12.5853 21.6341 12.5831H8.30078H8.33411ZM15.0008 2.58309C14.2873 2.5809 13.5803 2.71927 12.9203 2.99029C12.2602 3.26132 11.66 3.6597 11.1539 4.16268C10.6479 4.66567 10.2458 5.26341 9.97074 5.92178C9.69567 6.58014 9.55297 7.28624 9.55078 7.99976V10.0831H20.3841V7.99976C20.3842 6.56737 19.8186 5.1929 18.8104 4.17538C17.8023 3.15786 16.4331 2.57961 15.0008 2.56642V2.58309Z" fill="#00E589"/>
<path id="Vector_3" d="M14.9993 26.7331C13.7867 26.7331 12.6234 26.2525 11.7643 25.3965C10.9053 24.5406 10.4204 23.3791 10.416 22.1664C10.416 20.9493 10.8984 19.7818 11.7574 18.9196C12.6165 18.0574 13.7822 17.5708 14.9993 17.5664C16.2149 17.5664 17.3807 18.0493 18.2403 18.9088C19.0998 19.7684 19.5827 20.9342 19.5827 22.1497C19.5827 23.3653 19.0998 24.5311 18.2403 25.3906C17.3807 26.2502 16.2149 26.7331 14.9993 26.7331ZM14.9993 20.0664C14.4466 20.0751 13.9193 20.2997 13.53 20.6921C13.1406 21.0845 12.9203 21.6136 12.916 22.1664C12.916 22.4392 12.97 22.7093 13.0749 22.9612C13.1798 23.213 13.3335 23.4416 13.5272 23.6337C13.7209 23.8258 13.9507 23.9777 14.2034 24.0806C14.456 24.1834 14.7266 24.2353 14.9993 24.2331C15.2714 24.2354 15.5412 24.1835 15.793 24.0805C16.0448 23.9775 16.2736 23.8254 16.466 23.6331C16.86 23.2399 17.0818 22.7064 17.0827 22.1497C17.0827 21.5972 16.8632 21.0673 16.4725 20.6766C16.0818 20.2859 15.5519 20.0664 14.9993 20.0664Z" fill="#00E589"/>
<path id="Vector_4" d="M15 30.0667C14.6713 30.0668 14.3559 29.9374 14.122 29.7065C13.888 29.4757 13.7544 29.162 13.75 28.8334V25.5001C13.75 25.167 13.8811 24.8473 14.1151 24.6102C14.349 24.3732 14.667 24.2378 15 24.2334C15.1642 24.2334 15.3267 24.2657 15.4784 24.3285C15.63 24.3914 15.7678 24.4834 15.8839 24.5995C16 24.7156 16.092 24.8534 16.1548 25.005C16.2177 25.1567 16.25 25.3192 16.25 25.4834V28.8167C16.25 29.1483 16.1183 29.4662 15.8839 29.7006C15.6495 29.935 15.3315 30.0667 15 30.0667Z" fill="#00E589"/>
</g>
</svg>
