<svg width="21" height="15" viewBox="0 0 21 15" fill="none" xmlns="http://www.w3.org/2000/svg">
<g id="Group">
<path id="Vector" d="M20 1.5H1C0.801088 1.5 0.610322 1.42098 0.46967 1.28033C0.329018 1.13968 0.25 0.948912 0.25 0.75C0.25 0.551088 0.329018 0.360323 0.46967 0.21967C0.610322 0.079018 0.801088 0 1 0H20C20.1989 0 20.3897 0.079018 20.5303 0.21967C20.671 0.360323 20.75 0.551088 20.75 0.75C20.75 0.948912 20.671 1.13968 20.5303 1.28033C20.3897 1.42098 20.1989 1.5 20 1.5Z" fill="currentColor"/>
<path id="Vector_2" d="M20 8H1C0.801088 8 0.610322 7.92098 0.46967 7.78033C0.329018 7.63968 0.25 7.44891 0.25 7.25C0.25 7.05109 0.329018 6.86032 0.46967 6.71967C0.610322 6.57902 0.801088 6.5 1 6.5H20C20.1989 6.5 20.3897 6.57902 20.5303 6.71967C20.671 6.86032 20.75 7.05109 20.75 7.25C20.75 7.44891 20.671 7.63968 20.5303 7.78033C20.3897 7.92098 20.1989 8 20 8Z" fill="currentColor"/>
<path id="Vector_3" d="M14 14.5H1C0.801088 14.5 0.610322 14.421 0.46967 14.2803C0.329018 14.1397 0.25 13.9489 0.25 13.75C0.25 13.5511 0.329018 13.3603 0.46967 13.2197C0.610322 13.079 0.801088 13 1 13H14C14.1989 13 14.3897 13.079 14.5303 13.2197C14.671 13.3603 14.75 13.5511 14.75 13.75C14.75 13.9489 14.671 14.1397 14.5303 14.2803C14.3897 14.421 14.1989 14.5 14 14.5Z" fill="currentColor"/>
</g>
</svg>
