<svg width="28" height="28" viewBox="0 0 28 28" fill="none" xmlns="http://www.w3.org/2000/svg">
<g id="fluent:play-16-filled">
<path id="Vector" d="M9.51135 4.53692C9.11198 4.31244 8.66081 4.19638 8.20269 4.20029C7.74458 4.2042 7.29546 4.32794 6.89998 4.55921C6.5045 4.79048 6.17644 5.12123 5.9484 5.51858C5.72035 5.91593 5.60028 6.36604 5.6001 6.82417V22.5742C5.59997 23.0325 5.71983 23.4828 5.94774 23.8804C6.17566 24.278 6.50369 24.609 6.89922 24.8404C7.29475 25.0719 7.74399 25.1958 8.20226 25.1998C8.66052 25.2038 9.11185 25.0877 9.51135 24.8632L23.5113 16.9882C23.9174 16.7599 24.2554 16.4276 24.4906 16.0255C24.7259 15.6234 24.8498 15.1659 24.8498 14.7C24.8498 14.2342 24.7259 13.7767 24.4906 13.3746C24.2554 12.9725 23.9174 12.6402 23.5113 12.4119L9.51135 4.53692Z" fill="white"/>
</g>
</svg>
