<svg width="22" height="22" viewBox="0 0 22 22" fill="none" xmlns="http://www.w3.org/2000/svg">
<path d="M11 21.75C8.87386 21.75 6.79545 21.1195 5.02762 19.9383C3.2598 18.7571 1.88194 17.0782 1.0683 15.1139C0.254658 13.1495 0.0417719 10.9881 0.456563 8.90278C0.871354 6.81749 1.89519 4.90202 3.39861 3.39861C4.90202 1.89519 6.81749 0.871354 8.90278 0.456563C10.9881 0.0417719 13.1495 0.254658 15.1139 1.0683C17.0782 1.88194 18.7571 3.2598 19.9383 5.02762C21.1195 6.79545 21.75 8.87386 21.75 11C21.7474 13.8503 20.6139 16.583 18.5985 18.5985C16.583 20.6139 13.8503 21.7474 11 21.75ZM11 1.75C9.17053 1.75 7.38213 2.29251 5.86098 3.30891C4.33983 4.32531 3.15423 5.76997 2.45412 7.46018C1.75401 9.1504 1.57083 11.0103 1.92774 12.8046C2.28465 14.5989 3.16563 16.2471 4.45927 17.5407C5.7529 18.8344 7.40109 19.7154 9.19542 20.0723C10.9897 20.4292 12.8496 20.246 14.5398 19.5459C16.23 18.8458 17.6747 17.6602 18.6911 16.139C19.7075 14.6179 20.25 12.8295 20.25 11C20.2474 8.54756 19.272 6.19633 17.5378 4.46219C15.8037 2.72805 13.4524 1.75265 11 1.75Z" fill="white"/>
<path d="M8.16926 14.5798C8.07072 14.5802 7.97308 14.561 7.88207 14.5232C7.79106 14.4855 7.70851 14.4299 7.63926 14.3598C7.49881 14.2191 7.41992 14.0285 7.41992 13.8298C7.41992 13.631 7.49881 13.4404 7.63926 13.2998L13.2993 7.63977C13.4414 7.50729 13.6295 7.43517 13.8238 7.43859C14.0181 7.44202 14.2035 7.52073 14.3409 7.65815C14.4783 7.79556 14.557 7.98094 14.5604 8.17525C14.5639 8.36955 14.4917 8.55759 14.3593 8.69977L8.69926 14.3598C8.63036 14.4303 8.54788 14.4862 8.45679 14.524C8.36569 14.5618 8.26788 14.5808 8.16926 14.5798Z" fill="white"/>
<path d="M13.8307 14.5798C13.7321 14.5808 13.6343 14.5618 13.5432 14.524C13.4521 14.4862 13.3696 14.4303 13.3007 14.3598L7.64075 8.69977C7.50827 8.55759 7.43614 8.36955 7.43957 8.17525C7.443 7.98094 7.52171 7.79556 7.65912 7.65815C7.79654 7.52073 7.98192 7.44202 8.17622 7.43859C8.37052 7.43517 8.55857 7.50729 8.70075 7.63977L14.3607 13.2998C14.5012 13.4404 14.5801 13.631 14.5801 13.8298C14.5801 14.0285 14.5012 14.2191 14.3607 14.3598C14.2915 14.4299 14.209 14.4855 14.1179 14.5232C14.0269 14.561 13.9293 14.5802 13.8307 14.5798Z" fill="white"/>
</svg>
