<svg xmlns="http://www.w3.org/2000/svg" width="26" height="27" viewBox="0 0 26 27" fill="none">
  <path d="M10 20.0269C8.02219 20.0269 6.08879 19.4404 4.4443 18.3416C2.79981 17.2427 1.51809 15.681 0.761209 13.8537C0.00433286 12.0264 -0.193701 10.0158 0.192152 8.07596C0.578004 6.13615 1.53041 4.35432 2.92894 2.95579C4.32746 1.55727 6.10929 0.604859 8.0491 0.219007C9.98891 -0.166845 11.9996 0.0311883 13.8268 0.788065C15.6541 1.54494 17.2159 2.82667 18.3147 4.47116C19.4135 6.11565 20 8.04905 20 10.0269C20 12.679 18.9464 15.2226 17.0711 17.0979C15.1957 18.9733 12.6522 20.0269 10 20.0269ZM10 2.02686C8.41775 2.02686 6.87104 2.49605 5.55544 3.3751C4.23985 4.25415 3.21447 5.50358 2.60897 6.96539C2.00347 8.4272 1.84504 10.0357 2.15372 11.5876C2.4624 13.1394 3.22433 14.5649 4.34315 15.6837C5.46197 16.8025 6.88743 17.5645 8.43928 17.8731C9.99113 18.1818 11.5997 18.0234 13.0615 17.4179C14.5233 16.8124 15.7727 15.787 16.6518 14.4714C17.5308 13.1558 18 11.6091 18 10.0269C18 7.90513 17.1572 5.8703 15.6569 4.37001C14.1566 2.86971 12.1217 2.02686 10 2.02686Z" fill="#05253E"/>
  <path d="M25.0004 26.0269C24.869 26.0275 24.7388 26.0019 24.6174 25.9515C24.4961 25.9012 24.386 25.8271 24.2937 25.7336L15.667 17.0936C15.5681 17.0029 15.4885 16.8933 15.4328 16.7712C15.3772 16.6491 15.3467 16.517 15.3431 16.3829C15.3396 16.2487 15.3631 16.1153 15.4122 15.9904C15.4613 15.8655 15.535 15.7518 15.629 15.656C15.723 15.5603 15.8353 15.4844 15.9592 15.4329C16.0831 15.3815 16.2162 15.3555 16.3503 15.3565C16.4845 15.3575 16.6171 15.3855 16.7403 15.4388C16.8634 15.4922 16.9745 15.5697 17.067 15.6669L25.707 24.3069C25.8943 24.4944 25.9995 24.7486 25.9995 25.0136C25.9995 25.2786 25.8943 25.5328 25.707 25.7203C25.6158 25.8162 25.5063 25.8927 25.3849 25.9454C25.2635 25.9981 25.1327 26.0258 25.0004 26.0269Z" fill="#05253E"/>
</svg>