<svg width="26" height="27" viewBox="0 0 26 27" fill="none" xmlns="http://www.w3.org/2000/svg">
  <path d="M10 20.0269C8.02219 20.0269 6.08879 19.4404 4.4443 18.3416C2.79981 17.2427 1.51809 15.681 0.761209 13.8537C0.00433286 12.0264 -0.193701 10.0158 0.192152 8.07596C0.578004 6.13615 1.53041 4.35432 2.92894 2.95579C4.32746 1.55727 6.10929 0.604859 8.0491 0.219007C9.98891 -0.166845 11.9996 0.0311883 13.8268 0.788065C15.6541 1.54494 17.2159 2.82667 18.3147 4.47116C19.4135 6.11565 20 8.04905 20 10.0269C20 12.679 18.9464 15.2226 17.0711 17.0979C15.1957 18.9733 12.6522 20.0269 10 20.0269ZM10 2.02686C8.41775 2.02686 6.87104 2.49605 5.55544 3.3751C4.23985 4.25415 3.21447 5.50358 2.60897 6.96539C2.00347 8.4272 1.84504 10.0357 2.15372 11.5876C2.4624 13.1394 3.22433 14.5649 4.34315 15.6837C5.46197 16.8025 6.88743 17.5645 8.43928 17.8731C9.99113 18.1818 11.5997 18.0234 13.0615 17.4179C14.5233 16.8124 15.7727 15.787 16.6518 14.4714C17.5308 13.1558 18 11.6091 18 10.0269C18 7.90513 17.1572 5.8703 15.6569 4.37001C14.1566 2.86971 12.1217 2.02686 10 2.02686Z" fill="white"/>
  <path d="M24.9994 26.0269C24.868 26.0275 24.7378 26.0019 24.6165 25.9515C24.4951 25.9012 24.385 25.8271 24.2927 25.7336L15.6661 17.0936C15.5671 17.0029 15.4875 16.8933 15.4318 16.7712C15.3762 16.6491 15.3457 16.517 15.3421 16.3829C15.3386 16.2487 15.3621 16.1153 15.4112 15.9904C15.4603 15.8655 15.5341 15.7518 15.6281 15.656C15.722 15.5603 15.8343 15.4844 15.9583 15.4329C16.0822 15.3815 16.2152 15.3555 16.3494 15.3565C16.4835 15.3575 16.6161 15.3855 16.7393 15.4388C16.8624 15.4922 16.9735 15.5697 17.0661 15.6669L25.7061 24.3069C25.8933 24.4944 25.9985 24.7486 25.9985 25.0136C25.9985 25.2786 25.8933 25.5328 25.7061 25.7203C25.6149 25.8162 25.5053 25.8927 25.3839 25.9454C25.2625 25.9981 25.1317 26.0258 24.9994 26.0269Z" fill="white"/>
</svg>