<svg width="21" height="20" viewBox="0 0 21 20" fill="none" xmlns="http://www.w3.org/2000/svg">
<path id="Vector" d="M8.07322 0.345957C2.73315 1.75821 -0.422342 7.25274 1.01197 12.5928C2.44629 17.9329 7.91875 21.0884 13.2588 19.654C18.5989 18.2197 21.7544 12.7473 20.3201 7.4072C18.8857 2.06714 13.4133 -1.08836 8.07322 0.345957ZM16.7453 5.20056L18.1796 4.86957C18.4003 4.82543 18.5327 5.02403 18.4003 5.20056L17.4956 6.37008L16.5026 7.672C16.3922 7.82646 16.1495 7.84853 16.0612 7.71613L15.4875 6.83347L14.9138 5.95082C14.8255 5.81842 14.9579 5.61982 15.1345 5.57569L16.7453 5.20056ZM11.67 3.74418L12.7513 2.50846L13.7222 1.38308C13.8767 1.20655 14.0973 1.29481 14.0753 1.51548L14.0311 2.99392L13.987 4.62684C13.987 4.82543 13.8105 4.9799 13.656 4.9137L12.663 4.53857L11.7142 4.18551C11.5818 4.11931 11.5597 3.89864 11.67 3.74418ZM15.5096 8.64292C15.5096 8.66498 15.5096 8.66498 15.5096 8.68705C16.2378 11.3791 14.649 14.1595 11.9569 14.9098H11.9348C9.22067 15.66 6.41824 14.0712 5.66798 11.3571C4.91772 8.64292 6.5065 5.84049 9.22067 5.09023C11.9569 4.33997 14.7814 5.90669 15.5096 8.64292ZM7.78635 4.31791L7.91875 2.68499L8.02908 1.20655C8.05115 0.985882 8.27181 0.919683 8.40421 1.09621L9.24273 2.30987L10.1695 3.65591C10.2799 3.81038 10.2357 4.05311 10.0813 4.07518L9.0662 4.33997L8.05115 4.60477C7.94082 4.67097 7.78635 4.5165 7.78635 4.31791ZM3.59374 4.07518L4.98392 4.56064L6.52857 5.1123C6.7051 5.1785 6.81543 5.39916 6.7051 5.50949L6.04311 6.32595L5.38112 7.1424C5.31492 7.2748 5.07219 7.23067 4.98392 7.05414L4.12333 5.64189L3.35101 4.38411C3.24068 4.18551 3.39514 4.00898 3.59374 4.07518ZM1.4533 9.32698L2.86555 8.90771L4.43226 8.44432C4.60879 8.37812 4.82946 8.51052 4.80739 8.66498L4.78532 9.7021L4.74119 10.7613C4.74119 10.9158 4.52053 11.004 4.344 10.9378L2.82142 10.2979L1.4533 9.72417C1.23264 9.6359 1.23264 9.39317 1.4533 9.32698ZM4.45433 14.8215L3.02001 15.1525C2.79935 15.1966 2.66695 14.998 2.79935 14.8215L3.70407 13.652L4.69706 12.3501C4.80739 12.1956 5.05012 12.1735 5.13839 12.3059L5.71211 13.1886L6.28584 14.0712C6.3741 14.2036 6.24171 14.4022 6.06517 14.4464L4.45433 14.8215ZM9.5296 16.2779L8.44834 17.5136L7.49949 18.639C7.34502 18.8155 7.12436 18.7273 7.14643 18.5066L7.19056 17.0281L7.23469 15.3952C7.23469 15.1966 7.41122 15.0422 7.56569 15.1084L8.55868 15.4835L9.55166 15.8586C9.63993 15.9028 9.662 16.1234 9.5296 16.2779ZM13.4353 15.7042L13.3029 17.3371L13.1926 18.8155C13.1706 19.0362 12.9499 19.1024 12.8175 18.9259L11.979 17.7122L11.0522 16.3662C10.9418 16.2117 10.986 15.969 11.1404 15.9469L12.1555 15.6821L13.1706 15.4173C13.2809 15.329 13.4353 15.5056 13.4353 15.7042ZM17.6059 15.9248L16.2157 15.4394L14.6711 14.8877C14.4945 14.8215 14.3842 14.6008 14.4945 14.4905L15.1565 13.6741L15.8185 12.8576C15.9068 12.7252 16.1495 12.7914 16.2378 12.9459L17.0984 14.3581L17.8707 15.6159C17.981 15.8145 17.8266 16.0131 17.6059 15.9248ZM19.7684 10.673L18.3561 11.0923L16.7674 11.5777C16.5908 11.6439 16.3702 11.5115 16.3922 11.3571L16.4364 10.2979L16.4805 9.23871C16.4805 9.08425 16.7012 8.99598 16.8777 9.06218L18.4003 9.7021L19.7684 10.2758C19.9891 10.3862 19.9891 10.6289 19.7684 10.673Z" fill="currentColor"/>
</svg>
