<svg width="104" height="102" viewBox="0 0 104 102" fill="none" xmlns="http://www.w3.org/2000/svg">
<g id="Group">
<path id="Vector" d="M100.735 101.427H2.72819C2.0541 101.427 1.40762 101.159 0.930961 100.683C0.454306 100.206 0.186523 99.5595 0.186523 98.8854V66.4538C0.186523 65.7797 0.454306 65.1332 0.930961 64.6565C1.40762 64.1799 2.0541 63.9121 2.72819 63.9121H100.735C101.409 63.9121 102.055 64.1799 102.532 64.6565C103.009 65.1332 103.277 65.7797 103.277 66.4538V98.8854C103.277 99.5595 103.009 100.206 102.532 100.683C102.055 101.159 101.409 101.427 100.735 101.427ZM5.26986 96.3438H98.1932V68.9954H5.26986V96.3438Z" fill="white"/>
<path id="Vector_2" d="M2.72817 68.9951C2.06171 69.0401 1.40431 68.821 0.898166 68.385C0.429232 67.9014 0.166992 67.2541 0.166992 66.5805C0.166992 65.9068 0.429232 65.2596 0.898166 64.7759L19.554 46.1709C19.781 45.9267 20.0565 45.7327 20.3629 45.6014C20.6693 45.4701 20.9998 45.4043 21.3332 45.4084L82.3332 45.7642C83.0129 45.7995 83.6595 46.0689 84.1632 46.5267L102.412 64.7759C102.891 65.2545 103.16 65.9036 103.16 66.5805C103.16 67.2573 102.891 67.9064 102.412 68.385C101.934 68.8637 101.285 69.1325 100.608 69.1325C99.9309 69.1325 99.2818 68.8637 98.8032 68.385L81.2657 50.8476L22.4007 50.39L4.50733 68.385C4.26747 68.6018 3.98612 68.7676 3.6803 68.8725C3.37448 68.9773 3.05057 69.019 2.72817 68.9951Z" fill="white"/>
<path id="Vector_3" d="M82.3032 50.5937C81.6482 50.5937 81.02 50.3259 80.5569 49.8492C80.0937 49.3726 79.8335 48.7261 79.8335 48.052V5.25032H23.6287V48.052C23.6287 48.7261 23.3685 49.3726 22.9054 49.8492C22.4422 50.3259 21.8141 50.5937 21.1591 50.5937C20.5041 50.5937 19.8759 50.3259 19.4128 49.8492C18.9496 49.3726 18.6895 48.7261 18.6895 48.052V2.70866C18.7021 2.03864 18.9664 1.39969 19.4268 0.925829C19.8872 0.451966 20.5081 0.180006 21.1591 0.166992H82.3032C82.9581 0.166992 83.5863 0.434774 84.0495 0.911429C84.5126 1.38808 84.7728 2.03457 84.7728 2.70866V48.052C84.7728 48.7261 84.5126 49.3726 84.0495 49.8492C83.5863 50.3259 82.9581 50.5937 82.3032 50.5937Z" fill="white"/>
<path id="Vector_4" d="M94.2087 35.7503C93.5346 35.7503 92.8881 35.4825 92.4114 35.0059C91.9348 34.5292 91.667 33.8828 91.667 33.2087V17.9587C91.667 17.2846 91.9348 16.6381 92.4114 16.1614C92.8881 15.6848 93.5346 15.417 94.2087 15.417C94.8787 15.43 95.5176 15.702 95.9915 16.1758C96.4654 16.6497 96.7373 17.2886 96.7503 17.9587V33.2087C96.7503 33.8828 96.4825 34.5292 96.0059 35.0059C95.5292 35.4825 94.8828 35.7503 94.2087 35.7503Z" fill="white"/>
<path id="Vector_5" d="M81.5 33.2087C81.5 32.5346 81.7008 31.8881 82.0583 31.4114C82.4158 30.9348 82.9007 30.667 83.4062 30.667L94.8438 30.667C95.3493 30.667 95.8342 30.9348 96.1917 31.4114C96.5492 31.8881 96.75 32.5346 96.75 33.2087C96.7402 33.8787 96.5363 34.5176 96.1809 34.9915C95.8255 35.4654 95.3463 35.7373 94.8438 35.7503L83.4062 35.7503C82.9007 35.7503 82.4158 35.4825 82.0583 35.0059C81.7008 34.5292 81.5 33.8828 81.5 33.2087Z" fill="white"/>
<path id="Vector_6" d="M44.1061 37.8854C43.432 37.8854 42.7855 37.6176 42.3089 37.141C41.8322 36.6643 41.5645 36.0178 41.5645 35.3437V15.0104C41.5645 14.3363 41.8322 13.6898 42.3089 13.2132C42.7855 12.7365 43.432 12.4688 44.1061 12.4688C44.7761 12.4818 45.4151 12.7537 45.889 13.2276C46.3628 13.7014 46.6348 14.3404 46.6478 15.0104V35.3437C46.6478 36.0178 46.38 36.6643 45.9034 37.141C45.4267 37.6176 44.7802 37.8854 44.1061 37.8854Z" fill="white"/>
<path id="Vector_7" d="M28.8561 37.8854C28.182 37.8854 27.5355 37.6176 27.0589 37.141C26.5822 36.6643 26.3145 36.0178 26.3145 35.3437V15.0104C26.3145 14.3363 26.5822 13.6898 27.0589 13.2132C27.5355 12.7365 28.182 12.4688 28.8561 12.4688C29.5261 12.4818 30.1651 12.7537 30.639 13.2276C31.1128 13.7014 31.3848 14.3404 31.3978 15.0104V35.3437C31.3978 36.0178 31.13 36.6643 30.6534 37.141C30.1767 37.6176 29.5302 37.8854 28.8561 37.8854Z" fill="white"/>
<path id="Vector_8" d="M59.3561 37.8854C58.682 37.8854 58.0355 37.6176 57.5589 37.141C57.0822 36.6643 56.8145 36.0178 56.8145 35.3437V15.0104C56.8145 14.3363 57.0822 13.6898 57.5589 13.2132C58.0355 12.7365 58.682 12.4688 59.3561 12.4688C60.0261 12.4818 60.6651 12.7537 61.139 13.2276C61.6128 13.7014 61.8848 14.3404 61.8978 15.0104V35.3437C61.8978 36.0178 61.63 36.6643 61.1534 37.141C60.6767 37.6176 60.0302 37.8854 59.3561 37.8854Z" fill="white"/>
<path id="Vector_9" d="M74.6061 37.8854C73.932 37.8854 73.2855 37.6176 72.8089 37.141C72.3322 36.6643 72.0645 36.0178 72.0645 35.3437V15.0104C72.0645 14.3363 72.3322 13.6898 72.8089 13.2132C73.2855 12.7365 73.932 12.4688 74.6061 12.4688C75.2761 12.4818 75.9151 12.7537 76.389 13.2276C76.8628 13.7014 77.1348 14.3404 77.1478 15.0104V35.3437C77.1478 36.0178 76.88 36.6643 76.4034 37.141C75.9267 37.6176 75.2802 37.8854 74.6061 37.8854Z" fill="white"/>
<path id="Vector_10" d="M26.3151 15.0104C26.3151 14.3363 26.5159 13.6898 26.8734 13.2132C27.2309 12.7365 27.7158 12.4687 28.2214 12.4687L75.2422 12.4687C75.7478 12.4687 76.2326 12.7365 76.5901 13.2132C76.9476 13.6898 77.1484 14.3363 77.1484 15.0104C77.1387 15.6804 76.9347 16.3194 76.5793 16.7933C76.2239 17.2671 75.7447 17.5391 75.2422 17.5521L28.2214 17.5521C27.7158 17.5521 27.2309 17.2843 26.8734 16.8076C26.5159 16.331 26.3151 15.6845 26.3151 15.0104Z" fill="white"/>
<path id="Vector_11" d="M26.3151 35.3434C26.3151 34.6693 26.5159 34.0229 26.8734 33.5462C27.2309 33.0695 27.7158 32.8018 28.2214 32.8018L75.2422 32.8018C75.7478 32.8018 76.2326 33.0695 76.5901 33.5462C76.9476 34.0229 77.1484 34.6693 77.1484 35.3434C77.1387 36.0134 76.9347 36.6524 76.5793 37.1263C76.2239 37.6001 75.7447 37.8721 75.2422 37.8851L28.2214 37.8851C27.7158 37.8851 27.2309 37.6173 26.8734 37.1407C26.5159 36.664 26.3151 36.0175 26.3151 35.3434Z" fill="white"/>
<path id="Ellipse (Stroke)" fill-rule="evenodd" clip-rule="evenodd" d="M94.209 15.4167C95.6127 15.4167 96.7507 14.2787 96.7507 12.875C96.7507 11.4713 95.6127 10.3333 94.209 10.3333C92.8053 10.3333 91.6673 11.4713 91.6673 12.875C91.6673 14.2787 92.8053 15.4167 94.209 15.4167ZM94.209 20.5C98.4202 20.5 101.834 17.0862 101.834 12.875C101.834 8.66383 98.4202 5.25 94.209 5.25C89.9978 5.25 86.584 8.66383 86.584 12.875C86.584 17.0862 89.9978 20.5 94.209 20.5Z" fill="white"/>
</g>
</svg>
