<svg width="16" height="16" viewBox="0 0 16 16" fill="none" xmlns="http://www.w3.org/2000/svg">
<path d="M12.073 14.973H3.93302C3.72146 14.9739 3.51182 14.933 3.31612 14.8527C3.12042 14.7723 2.94252 14.6541 2.79262 14.5048C2.64272 14.3556 2.52378 14.1781 2.44262 13.9828C2.36146 13.7874 2.31968 13.5779 2.31968 13.3664V2.66638C2.31523 2.45204 2.35372 2.23898 2.43289 2.03974C2.51206 1.84051 2.6303 1.65913 2.78064 1.5063C2.93099 1.35347 3.1104 1.23227 3.30832 1.14985C3.50623 1.06743 3.71863 1.02545 3.93302 1.02638H12.073C12.2868 1.02634 12.4985 1.06897 12.6957 1.15179C12.8928 1.23461 13.0714 1.35595 13.2211 1.50869C13.3707 1.66143 13.4883 1.8425 13.5671 2.0413C13.6458 2.24009 13.6841 2.4526 13.6797 2.66638V13.3997C13.671 13.82 13.4978 14.2202 13.1975 14.5143C12.8971 14.8084 12.4934 14.9731 12.073 14.973ZM3.93302 1.69305C3.80616 1.69207 3.68041 1.71678 3.56336 1.76569C3.4463 1.8146 3.34036 1.88669 3.25191 1.97764C3.16346 2.06858 3.09433 2.17648 3.04869 2.29485C3.00305 2.41322 2.98185 2.5396 2.98635 2.66638V13.3997C2.99502 13.6444 3.09879 13.876 3.27558 14.0453C3.45236 14.2146 3.68823 14.3083 3.93302 14.3064H12.073C12.3223 14.3064 12.5614 14.2073 12.7377 14.0311C12.914 13.8548 13.013 13.6157 13.013 13.3664V2.66638C13.013 2.41708 12.914 2.17799 12.7377 2.0017C12.5614 1.82542 12.3223 1.72638 12.073 1.72638L3.93302 1.69305Z" fill="#05253E"/>
<path d="M13.3335 8.33366H9.64681C9.5584 8.33366 9.47362 8.29854 9.41111 8.23603C9.3486 8.17352 9.31348 8.08873 9.31348 8.00033C9.31348 7.91192 9.3486 7.82714 9.41111 7.76462C9.47362 7.70211 9.5584 7.66699 9.64681 7.66699H13.3335C13.4219 7.66699 13.5067 7.70211 13.5692 7.76462C13.6317 7.82714 13.6668 7.91192 13.6668 8.00033C13.6668 8.08873 13.6317 8.17352 13.5692 8.23603C13.5067 8.29854 13.4219 8.33366 13.3335 8.33366Z" fill="#05253E"/>
<path d="M6.35967 8.33366H2.66634C2.57794 8.33366 2.49315 8.29854 2.43064 8.23603C2.36813 8.17352 2.33301 8.08873 2.33301 8.00033C2.33301 7.91192 2.36813 7.82714 2.43064 7.76462C2.49315 7.70211 2.57794 7.66699 2.66634 7.66699H6.35967C6.44808 7.66699 6.53286 7.70211 6.59538 7.76462C6.65789 7.82714 6.69301 7.91192 6.69301 8.00033C6.69301 8.08873 6.65789 8.17352 6.59538 8.23603C6.53286 8.29854 6.44808 8.33366 6.35967 8.33366Z" fill="#05253E"/>
<path d="M10.2401 3.92H5.76009C5.67169 3.92 5.5869 3.88488 5.52439 3.82237C5.46188 3.75986 5.42676 3.67507 5.42676 3.58667V1.33333C5.42676 1.24493 5.46188 1.16014 5.52439 1.09763C5.5869 1.03512 5.67169 1 5.76009 1H10.2401C10.3285 1 10.4133 1.03512 10.4758 1.09763C10.5383 1.16014 10.5734 1.24493 10.5734 1.33333V3.58667C10.5734 3.67507 10.5383 3.75986 10.4758 3.82237C10.4133 3.88488 10.3285 3.92 10.2401 3.92ZM6.09342 3.25333H9.90676V1.69333H6.09342V3.25333Z" fill="#05253E"/>
<path d="M10.2401 14.9734H5.76009C5.67169 14.9734 5.5869 14.9383 5.52439 14.8758C5.46188 14.8133 5.42676 14.7285 5.42676 14.6401V12.4134C5.42676 12.325 5.46188 12.2402 5.52439 12.1777C5.5869 12.1152 5.67169 12.0801 5.76009 12.0801H10.2401C10.3285 12.0801 10.4133 12.1152 10.4758 12.1777C10.5383 12.2402 10.5734 12.325 10.5734 12.4134V14.6667C10.5667 14.7504 10.5286 14.8285 10.4668 14.8854C10.405 14.9422 10.3241 14.9737 10.2401 14.9734ZM6.09342 14.3067H9.90676V12.7467H6.09342V14.3067Z" fill="#05253E"/>
<path d="M8 9.93359C7.60444 9.93359 7.21776 9.8163 6.88886 9.59653C6.55996 9.37677 6.30362 9.06441 6.15224 8.69896C6.00087 8.33351 5.96126 7.93138 6.03843 7.54341C6.1156 7.15545 6.30608 6.79909 6.58579 6.51938C6.86549 6.23968 7.22186 6.04919 7.60982 5.97202C7.99778 5.89485 8.39992 5.93446 8.76537 6.08584C9.13082 6.23721 9.44318 6.49356 9.66294 6.82245C9.8827 7.15135 10 7.53803 10 7.93359C10 8.46403 9.78929 8.97273 9.41422 9.34781C9.03914 9.72288 8.53043 9.93359 8 9.93359ZM8 6.66693C7.73629 6.66693 7.47851 6.74513 7.25924 6.89164C7.03998 7.03814 6.86908 7.24638 6.76816 7.49002C6.66724 7.73365 6.64084 8.00174 6.69229 8.26038C6.74373 8.51902 6.87072 8.7566 7.05719 8.94307C7.24366 9.12954 7.48124 9.25653 7.73988 9.30797C7.99852 9.35942 8.26661 9.33302 8.51025 9.2321C8.75388 9.13118 8.96212 8.96029 9.10863 8.74102C9.25514 8.52176 9.33333 8.26397 9.33333 8.00026C9.33333 7.64664 9.19286 7.3075 8.94281 7.05745C8.69276 6.8074 8.35362 6.66693 8 6.66693Z" fill="#05253E"/>
</svg>
