<svg width="88" height="108" viewBox="0 0 88 108" fill="none" xmlns="http://www.w3.org/2000/svg">
<g id="Group">
<path id="Vector" d="M75.0593 107.172H12.9918C11.3787 107.178 9.78022 106.866 8.288 106.254C6.79579 105.641 5.43926 104.74 4.29628 103.601C3.15329 102.463 2.24636 101.11 1.62752 99.6207C1.00868 98.131 0.690126 96.5338 0.690139 94.9207V13.3332C0.656209 11.6989 0.949711 10.0743 1.55336 8.55511C2.157 7.03594 3.05858 5.65295 4.20497 4.48761C5.35137 3.32226 6.7194 2.39813 8.22847 1.76967C9.73753 1.1412 11.3571 0.821107 12.9918 0.828242H75.0593C76.6897 0.827891 78.3038 1.15299 79.807 1.78449C81.3101 2.41598 82.6721 3.34117 83.8131 4.50582C84.954 5.67047 85.8511 7.05116 86.4516 8.56696C87.0521 10.0828 87.344 11.7032 87.3101 13.3332V95.1749C87.2436 98.3798 85.9236 101.431 83.6333 103.674C81.343 105.917 78.2649 107.172 75.0593 107.172ZM12.9918 5.91157C12.0245 5.90411 11.0657 6.09251 10.1732 6.46544C9.28063 6.83837 8.47281 7.38811 7.79837 8.08155C7.12394 8.77498 6.59684 9.59776 6.24885 10.5003C5.90085 11.4029 5.73914 12.3665 5.77347 13.3332V95.1749C5.83961 97.0403 6.63081 98.8063 7.97882 100.097C9.32684 101.388 11.1253 102.103 12.9918 102.088H75.0593C76.9602 102.088 78.7833 101.333 80.1275 99.9889C81.4717 98.6448 82.2268 96.8217 82.2268 94.9207V13.3332C82.2268 11.4323 81.4717 9.60922 80.1275 8.26505C78.7833 6.92089 76.9602 6.16574 75.0593 6.16574L12.9918 5.91157Z" fill="white"/>
<path id="Vector_2" d="M84.6672 56.5413H56.5563C55.8822 56.5413 55.2357 56.2736 54.7591 55.7969C54.2824 55.3203 54.0146 54.6738 54.0146 53.9997C54.0146 53.3256 54.2824 52.6791 54.7591 52.2024C55.2357 51.7258 55.8822 51.458 56.5563 51.458H84.6672C85.3412 51.458 85.9877 51.7258 86.4644 52.2024C86.941 52.6791 87.2088 53.3256 87.2088 53.9997C87.2088 54.6738 86.941 55.3203 86.4644 55.7969C85.9877 56.2736 85.3412 56.5413 84.6672 56.5413Z" fill="white"/>
<path id="Vector_3" d="M31.4953 56.5413H3.33366C2.65957 56.5413 2.01308 56.2736 1.53643 55.7969C1.05977 55.3203 0.791992 54.6738 0.791992 53.9997C0.791992 53.3256 1.05977 52.6791 1.53643 52.2024C2.01308 51.7258 2.65957 51.458 3.33366 51.458H31.4953C32.1694 51.458 32.8159 51.7258 33.2926 52.2024C33.7692 52.6791 34.037 53.3256 34.037 53.9997C34.037 54.6738 33.7692 55.3203 33.2926 55.7969C32.8159 56.2736 32.1694 56.5413 31.4953 56.5413Z" fill="white"/>
<path id="Vector_4" d="M61.0806 22.89H26.9206C26.2465 22.89 25.6 22.6222 25.1233 22.1456C24.6467 21.6689 24.3789 21.0224 24.3789 20.3483V3.16667C24.3789 2.49257 24.6467 1.84609 25.1233 1.36944C25.6 0.892782 26.2465 0.625 26.9206 0.625H61.0806C61.7547 0.625 62.4011 0.892782 62.8778 1.36944C63.3545 1.84609 63.6222 2.49257 63.6222 3.16667V20.3483C63.6222 21.0224 63.3545 21.6689 62.8778 22.1456C62.4011 22.6222 61.7547 22.89 61.0806 22.89ZM29.4622 17.8067H58.5389V5.91167H29.4622V17.8067Z" fill="white"/>
<path id="Vector_5" d="M61.0806 107.172H26.9206C26.2465 107.172 25.6 106.904 25.1233 106.428C24.6467 105.951 24.3789 105.304 24.3789 104.63V87.652C24.3789 86.9779 24.6467 86.3314 25.1233 85.8548C25.6 85.3781 26.2465 85.1104 26.9206 85.1104H61.0806C61.7547 85.1104 62.4011 85.3781 62.8778 85.8548C63.3545 86.3314 63.6222 86.9779 63.6222 87.652V104.834C63.571 105.472 63.2808 106.067 62.8096 106.501C62.3384 106.934 61.7209 107.174 61.0806 107.172ZM29.4622 102.089H58.5389V90.1937H29.4622V102.089Z" fill="white"/>
<path id="Vector_6" d="M44 68.7412C40.9838 68.7412 38.0354 67.8468 35.5276 66.1711C33.0197 64.4954 31.0651 62.1137 29.9108 59.3271C28.7566 56.5406 28.4546 53.4743 29.043 50.5161C29.6315 47.5579 31.0839 44.8406 33.2166 42.7078C35.3494 40.5751 38.0667 39.1227 41.0249 38.5342C43.9831 37.9458 47.0494 38.2478 49.8359 39.4021C52.6225 40.5563 55.0042 42.5109 56.6799 45.0188C58.3556 47.5266 59.25 50.475 59.25 53.4912C59.25 57.5358 57.6433 61.4147 54.7834 64.2746C51.9235 67.1345 48.0446 68.7412 44 68.7412ZM44 43.8329C41.9892 43.8329 40.0236 44.4291 38.3517 45.5463C36.6798 46.6634 35.3767 48.2512 34.6072 50.1089C33.8377 51.9667 33.6364 54.0108 34.0287 55.983C34.421 57.9551 35.3893 59.7666 36.8111 61.1885C38.2329 62.6103 40.0445 63.5786 42.0166 63.9709C43.9887 64.3631 46.0329 64.1618 47.8906 63.3923C49.7483 62.6228 51.3362 61.3197 52.4533 59.6478C53.5704 57.9759 54.1667 56.0103 54.1667 53.9995C54.1667 51.3032 53.0955 48.7173 51.1889 46.8106C49.2823 44.904 46.6964 43.8329 44 43.8329Z" fill="white"/>
</g>
</svg>
