<svg width="100" height="100" viewBox="0 0 100 100" fill="none" xmlns="http://www.w3.org/2000/svg">
<g id="Group">
<path id="Vector" d="M49.9998 90.108C42.0184 90.1079 34.2167 87.7385 27.5833 83.3C20.9499 78.8616 15.7833 72.5538 12.7384 65.1761C9.69341 57.7984 8.90709 49.6829 10.479 41.8578C12.051 34.0328 15.9105 26.8505 21.5684 21.2211C27.2263 15.5917 34.428 11.7686 42.2609 10.2363C50.0938 8.70391 58.2053 9.53127 65.5675 12.6135C72.9297 15.6957 79.2112 20.8941 83.6161 27.5499C88.021 34.2057 90.3509 42.0192 90.3106 50.0005C90.2436 60.6522 85.9686 70.8455 78.4175 78.3585C70.8665 85.8714 60.6517 90.0948 49.9998 90.108ZM49.9998 14.4172C43.0477 14.4175 36.2511 16.4749 30.4659 20.3303C24.6808 24.1856 20.1657 29.6665 17.4893 36.0828C14.8128 42.4991 14.0947 49.5638 15.4254 56.3874C16.7561 63.211 20.076 69.4883 24.9671 74.4288C29.8582 79.3693 36.1019 82.7522 42.9117 84.1514C49.7216 85.5505 56.7932 84.9035 63.236 82.2917C69.6789 79.6799 75.2049 75.2201 79.1182 69.474C83.0315 63.7278 85.1571 56.9523 85.2273 50.0005C85.2743 45.3445 84.3979 40.7254 82.6486 36.4102C80.8993 32.0951 78.3119 28.1695 75.036 24.8606C71.7602 21.5516 67.8608 18.9249 63.5635 17.1323C59.2661 15.3398 54.656 14.4169 49.9998 14.4172Z" fill="white"/>
<path id="Vector_2" d="M49.9997 23.821C49.3256 23.821 48.6791 23.5532 48.2024 23.0766C47.7258 22.5999 47.458 21.9534 47.458 21.2793V2.82682C47.458 2.15273 47.7258 1.50625 48.2024 1.02959C48.6791 0.552938 49.3256 0.285156 49.9997 0.285156C50.6738 0.285156 51.3203 0.552938 51.7969 1.02959C52.2736 1.50625 52.5413 2.15273 52.5413 2.82682V21.2793C52.5413 21.9534 52.2736 22.5999 51.7969 23.0766C51.3203 23.5532 50.6738 23.821 49.9997 23.821Z" fill="white"/>
<path id="Vector_3" d="M49.9997 99.3083C49.3256 99.3083 48.6791 99.0405 48.2024 98.5639C47.7258 98.0872 47.458 97.4407 47.458 96.7666V78.3141C47.458 77.64 47.7258 76.9936 48.2024 76.5169C48.6791 76.0402 49.3256 75.7725 49.9997 75.7725C50.6738 75.7725 51.3203 76.0402 51.7969 76.5169C52.2736 76.9936 52.5413 77.64 52.5413 78.3141V96.7666C52.5413 97.4407 52.2736 98.0872 51.7969 98.5639C51.3203 99.0405 50.6738 99.3083 49.9997 99.3083Z" fill="white"/>
<path id="Vector_4" d="M96.9697 52.5413H78.5173C77.8432 52.5413 77.1967 52.2736 76.72 51.7969C76.2434 51.3203 75.9756 50.6738 75.9756 49.9997C75.9756 49.3256 76.2434 48.6791 76.72 48.2024C77.1967 47.7258 77.8432 47.458 78.5173 47.458H96.9697C97.6438 47.458 98.2903 47.7258 98.767 48.2024C99.2436 48.6791 99.5114 49.3256 99.5114 49.9997C99.5114 50.6738 99.2436 51.3203 98.767 51.7969C98.2903 52.2736 97.6438 52.5413 96.9697 52.5413Z" fill="white"/>
<path id="Vector_5" d="M21.4824 52.3382H3.02995C2.35586 52.3382 1.70937 52.0704 1.23272 51.5938C0.756064 51.1171 0.488281 50.4706 0.488281 49.7966C0.488281 49.1225 0.756064 48.476 1.23272 47.9993C1.70937 47.5227 2.35586 47.2549 3.02995 47.2549H21.4824C22.1565 47.2549 22.803 47.5227 23.2797 47.9993C23.7563 48.476 24.0241 49.1225 24.0241 49.7966C24.0241 50.4706 23.7563 51.1171 23.2797 51.5938C22.803 52.0704 22.1565 52.3382 21.4824 52.3382Z" fill="white"/>
<path id="Vector_6" d="M57.2695 52.4906H42.7311C42.057 52.4906 41.4105 52.2228 40.9339 51.7461C40.4572 51.2695 40.1895 50.623 40.1895 49.9489C40.1895 49.2748 40.4572 48.6283 40.9339 48.1517C41.4105 47.675 42.057 47.4072 42.7311 47.4072H57.2695C57.9436 47.4072 58.59 47.675 59.0667 48.1517C59.5433 48.6283 59.8111 49.2748 59.8111 49.9489C59.8111 50.623 59.5433 51.2695 59.0667 51.7461C58.59 52.2228 57.9436 52.4906 57.2695 52.4906Z" fill="white"/>
<path id="Vector_7" d="M49.9997 59.608C49.3256 59.608 48.6791 59.3402 48.2024 58.8636C47.7258 58.3869 47.458 57.7404 47.458 57.0663V42.528C47.458 41.8539 47.7258 41.2074 48.2024 40.7308C48.6791 40.2541 49.3256 39.9863 49.9997 39.9863C50.6738 39.9863 51.3203 40.2541 51.7969 40.7308C52.2736 41.2074 52.5413 41.8539 52.5413 42.528V57.0663C52.5413 57.4001 52.4756 57.7306 52.3479 58.039C52.2201 58.3473 52.0329 58.6275 51.7969 58.8636C51.5609 59.0996 51.2807 59.2868 50.9723 59.4145C50.664 59.5423 50.3335 59.608 49.9997 59.608Z" fill="white"/>
</g>
</svg>
