<svg width="93" height="93" viewBox="0 0 93 93" fill="none" xmlns="http://www.w3.org/2000/svg">
<g id="Group">
<path id="Vector" d="M45.9995 92.4785C8.84035 92.4785 0.249514 26.3952 0.249514 23.4468C0.212863 23.0884 0.252828 22.7263 0.366758 22.3845C0.480688 22.0428 0.665981 21.7291 0.910348 21.4643C1.14135 21.1912 1.42957 20.9723 1.75459 20.8229C2.07962 20.6736 2.4335 20.5976 2.79118 20.6002C14.5845 20.6002 19.8712 3.01185 19.922 2.80852C20.0831 2.28476 20.4061 1.82552 20.8444 1.49674C21.2828 1.16795 21.8141 0.98653 22.362 0.978516H70.0437C70.5916 0.98653 71.1229 1.16795 71.5613 1.49674C71.9996 1.82552 72.3226 2.28476 72.4837 2.80852C72.4837 2.80852 77.567 20.6002 89.6145 20.6002C89.9722 20.5976 90.3261 20.6736 90.6511 20.8229C90.9761 20.9723 91.2644 21.1912 91.4954 21.4643C91.7427 21.7256 91.9264 22.0404 92.0322 22.3843C92.138 22.7281 92.163 23.0917 92.1053 23.4468C91.7495 26.2427 83.1587 92.4785 45.9995 92.4785ZM5.33285 25.4293C7.26451 37.4768 16.9737 87.3952 45.9995 87.3952C75.0254 87.3952 84.582 37.4768 86.6662 25.4293C75.5337 23.4977 69.8912 10.891 68.1628 6.06185H23.9887C22.2603 10.891 16.6178 23.4977 5.33285 25.4293Z" fill="white"/>
</g>
</svg>
