<svg xmlns="http://www.w3.org/2000/svg" width="18" height="16" viewBox="0 0 18 16" fill="none">
  <path d="M5.66262 15.3121C12.4534 15.3121 16.1687 9.6846 16.1687 4.80597C16.1687 4.64777 16.1652 4.48605 16.1582 4.32784C16.8809 3.80517 17.5046 3.15776 18 2.41605C17.3269 2.71552 16.6122 2.91111 15.8804 2.99612C16.651 2.53425 17.2279 1.80868 17.5043 0.953898C16.7794 1.38349 15.9867 1.68653 15.1601 1.85003C14.6031 1.25824 13.8667 0.86641 13.0648 0.735111C12.2628 0.603812 11.4399 0.740361 10.7233 1.12365C10.0067 1.50693 9.43635 2.1156 9.10039 2.85556C8.76442 3.59551 8.68157 4.42553 8.86465 5.2173C7.39687 5.14364 5.96095 4.76235 4.64999 4.09815C3.33902 3.43394 2.18227 2.50165 1.25473 1.36171C0.7833 2.17451 0.639042 3.13631 0.851273 4.05164C1.0635 4.96698 1.6163 5.76716 2.3973 6.28956C1.81097 6.27095 1.23748 6.11308 0.724219 5.82901V5.87472C0.723693 6.72768 1.01857 7.55451 1.55873 8.21465C2.09889 8.87479 2.85099 9.32749 3.68719 9.49581C3.14404 9.64442 2.57399 9.66607 2.02113 9.55909C2.25709 10.2927 2.71618 10.9342 3.33433 11.3943C3.95248 11.8544 4.69884 12.11 5.46926 12.1255C4.16132 13.1529 2.54563 13.7102 0.882422 13.7075C0.587465 13.7071 0.292799 13.689 0 13.6534C1.68964 14.7374 3.65515 15.3131 5.66262 15.3121Z" fill="#05253E"/>
</svg>