<svg width="33" height="32" viewBox="0 0 33 32" fill="none" xmlns="http://www.w3.org/2000/svg">
<g id="Icon/ Social Media">
<rect id="Rectangle" x="0.5" width="32" height="32" rx="16" fill="#00E589"/>
<path id="Vector" d="M13.1626 23.3125C19.9534 23.3125 23.6687 17.6851 23.6687 12.8065C23.6687 12.6483 23.6652 12.4865 23.6582 12.3283C24.3809 11.8057 25.0046 11.1583 25.5 10.4165C24.8269 10.716 24.1122 10.9116 23.3804 10.9966C24.151 10.5347 24.7279 9.80917 25.0043 8.95439C24.2794 9.38398 23.4867 9.68702 22.6601 9.85052C22.1031 9.25873 21.3667 8.8669 20.5648 8.7356C19.7628 8.6043 18.9399 8.74085 18.2233 9.12413C17.5067 9.50742 16.9363 10.1161 16.6004 10.856C16.2644 11.596 16.1816 12.426 16.3646 13.2178C14.8969 13.1441 13.461 12.7628 12.15 12.0986C10.839 11.4344 9.68227 10.5021 8.75473 9.3622C8.2833 10.175 8.13904 11.1368 8.35127 12.0521C8.5635 12.9675 9.1163 13.7676 9.8973 14.2901C9.31097 14.2714 8.73748 14.1136 8.22422 13.8295V13.8752C8.22369 14.7282 8.51857 15.555 9.05873 16.2151C9.59889 16.8753 10.351 17.328 11.1872 17.4963C10.644 17.6449 10.074 17.6666 9.52113 17.5596C9.75709 18.2931 10.2162 18.9347 10.8343 19.3948C11.4525 19.8549 12.1988 20.1105 12.9693 20.126C11.6613 21.1534 10.0456 21.7107 8.38242 21.708C8.08747 21.7076 7.7928 21.6895 7.5 21.6539C9.18964 22.7379 11.1551 23.3136 13.1626 23.3125Z" fill="#05253E"/>
</g>
</svg>
