<svg width="34" height="44" viewBox="0 0 34 44" fill="none" xmlns="http://www.w3.org/2000/svg">
<g id="Group">
<path id="Vector" d="M24.8 31.0799C24.4757 31.0812 24.1597 30.9774 23.8993 30.784C23.639 30.5906 23.4483 30.318 23.356 30.0071C23.2636 29.6962 23.2745 29.3638 23.387 29.0596C23.4995 28.7554 23.7076 28.4959 23.98 28.3199C26.464 26.7251 28.3646 24.3685 29.3971 21.6031C30.4297 18.8376 30.5386 15.8121 29.7075 12.9795C28.8765 10.147 27.1503 7.65988 24.7874 5.8906C22.4244 4.12131 19.5519 3.16507 16.6 3.16507C13.6481 3.16507 10.7756 4.12131 8.41264 5.8906C6.0497 7.65988 4.32348 10.147 3.49247 12.9795C2.66145 15.8121 2.77035 18.8376 3.80287 21.6031C4.8354 24.3685 6.73597 26.7251 9.22 28.3199C9.53312 28.5355 9.75272 28.8619 9.8344 29.2331C9.91607 29.6044 9.85374 29.9928 9.66 30.3199C9.45102 30.641 9.12422 30.867 8.75008 30.9493C8.37594 31.0317 7.98444 30.9636 7.66 30.7599C4.63025 28.815 2.31208 25.9409 1.05263 22.5681C-0.206829 19.1952 -0.339786 15.5052 0.673664 12.0504C1.68711 8.59573 3.79243 5.56227 6.67435 3.40432C9.55627 1.24638 13.0597 0.0800781 16.66 0.0800781C20.2603 0.0800781 23.7637 1.24638 26.6457 3.40432C29.5276 5.56227 31.6329 8.59573 32.6463 12.0504C33.6598 15.5052 33.5268 19.1952 32.2674 22.5681C31.0079 25.9409 28.6898 28.815 25.66 30.7599C25.4218 30.9676 25.116 31.0813 24.8 31.0799Z" fill="#5355E4"/>
<path id="Vector_2" d="M24.7999 38.9801H8.3999C8.00369 38.9749 7.62516 38.8152 7.34497 38.535C7.06478 38.2548 6.90508 37.8763 6.8999 37.4801V29.5801C6.8999 29.1823 7.05794 28.8007 7.33924 28.5194C7.62055 28.2381 8.00208 28.0801 8.3999 28.0801C8.79773 28.0801 9.17926 28.2381 9.46056 28.5194C9.74187 28.8007 9.8999 29.1823 9.8999 29.5801V36.0001H23.2999V29.6001C23.2999 29.2023 23.4579 28.8207 23.7392 28.5394C24.0205 28.2581 24.4021 28.1001 24.7999 28.1001C25.1977 28.1001 25.5793 28.2581 25.8606 28.5394C26.1419 28.8207 26.2999 29.2023 26.2999 29.6001V37.5001C26.2896 37.8928 26.1276 38.2663 25.848 38.5422C25.5683 38.8181 25.1927 38.975 24.7999 38.9801Z" fill="#5355E4"/>
<path id="Vector_3" d="M11.3599 43.8598C10.9636 43.8547 10.5851 43.695 10.3049 43.4148C10.0247 43.1346 9.86504 42.7561 9.85986 42.3598V38.8398C9.85986 38.442 10.0179 38.0605 10.2992 37.7792C10.5805 37.4979 10.962 37.3398 11.3599 37.3398C11.7577 37.3398 12.1392 37.4979 12.4205 37.7792C12.7018 38.0605 12.8599 38.442 12.8599 38.8398V42.3598C12.8599 42.7577 12.7018 43.1392 12.4205 43.4205C12.1392 43.7018 11.7577 43.8598 11.3599 43.8598Z" fill="#5355E4"/>
<path id="Vector_4" d="M21.8398 43.8598C21.442 43.8598 21.0605 43.7018 20.7792 43.4205C20.4979 43.1392 20.3398 42.7577 20.3398 42.3598V38.8398C20.3398 38.442 20.4979 38.0605 20.7792 37.7792C21.0605 37.4979 21.442 37.3398 21.8398 37.3398C22.2377 37.3398 22.6192 37.4979 22.9005 37.7792C23.1818 38.0605 23.3398 38.442 23.3398 38.8398V42.3598C23.3347 42.7561 23.175 43.1346 22.8948 43.4148C22.6146 43.695 22.2361 43.8547 21.8398 43.8598Z" fill="#5355E4"/>
<path id="Vector_5" d="M16.6001 38.9795C16.2039 38.9743 15.8254 38.8146 15.5452 38.5344C15.265 38.2542 15.1053 37.8757 15.1001 37.4795V21.4795C15.1001 21.0817 15.2581 20.7001 15.5394 20.4188C15.8207 20.1375 16.2023 19.9795 16.6001 19.9795C16.9979 19.9795 17.3795 20.1375 17.6608 20.4188C17.9421 20.7001 18.1001 21.0817 18.1001 21.4795V37.4795C18.0949 37.8757 17.9352 38.2542 17.655 38.5344C17.3748 38.8146 16.9963 38.9743 16.6001 38.9795Z" fill="#5355E4"/>
</g>
</svg>
