<svg width="36" height="37" viewBox="0 0 36 37" fill="none" xmlns="http://www.w3.org/2000/svg">
<g id="Group">
<path id="Vector" d="M7.78041 15.8799C7.58268 15.8826 7.38642 15.8456 7.20322 15.7712C7.02001 15.6968 6.85358 15.5864 6.71376 15.4465C6.57393 15.3067 6.46354 15.1403 6.38911 14.9571C6.31468 14.7739 6.27772 14.5776 6.28041 14.3799V2.37988C6.28041 1.98206 6.43845 1.60053 6.71975 1.31922C7.00105 1.03792 7.38259 0.879883 7.78041 0.879883C8.17824 0.879883 8.55977 1.03792 8.84107 1.31922C9.12238 1.60053 9.28041 1.98206 9.28041 2.37988V14.3799C9.28041 14.7777 9.12238 15.1592 8.84107 15.4405C8.55977 15.7218 8.17824 15.8799 7.78041 15.8799Z" fill="#5355E4"/>
<path id="Vector_2" d="M13.7402 9.91992H1.74023C1.34241 9.91992 0.960879 9.76189 0.679574 9.48058C0.398269 9.19928 0.240234 8.81775 0.240234 8.41992C0.240234 8.0221 0.398269 7.64057 0.679574 7.35926C0.960879 7.07796 1.34241 6.91992 1.74023 6.91992H13.7402C14.1381 6.91992 14.5196 7.07796 14.8009 7.35926C15.0822 7.64057 15.2402 8.0221 15.2402 8.41992C15.2402 8.81775 15.0822 9.19928 14.8009 9.48058C14.5196 9.76189 14.1381 9.91992 13.7402 9.91992Z" fill="#5355E4"/>
<path id="Vector_3" d="M24.3604 37C23.9625 37 23.581 36.842 23.2997 36.5607C23.0184 36.2794 22.8604 35.8978 22.8604 35.5V17C22.8604 16.6022 23.0184 16.2206 23.2997 15.9393C23.581 15.658 23.9625 15.5 24.3604 15.5C24.7582 15.5 25.1397 15.658 25.421 15.9393C25.7023 16.2206 25.8604 16.6022 25.8604 17V35.52C25.85 35.9127 25.6881 36.2862 25.4084 36.5621C25.1288 36.838 24.7532 36.995 24.3604 37Z" fill="#5355E4"/>
<path id="Vector_4" d="M33.6001 27.7998H15.1001C14.7023 27.7998 14.3207 27.6418 14.0394 27.3605C13.7581 27.0792 13.6001 26.6976 13.6001 26.2998C13.6001 25.902 13.7581 25.5204 14.0394 25.2391C14.3207 24.9578 14.7023 24.7998 15.1001 24.7998H33.6001C33.9979 24.7998 34.3795 24.9578 34.6608 25.2391C34.9421 25.5204 35.1001 25.902 35.1001 26.2998C35.1001 26.6976 34.9421 27.0792 34.6608 27.3605C34.3795 27.6418 33.9979 27.7998 33.6001 27.7998Z" fill="#5355E4"/>
</g>
</svg>
