<svg width="38" height="46" viewBox="0 0 38 46" fill="none" xmlns="http://www.w3.org/2000/svg">
<g id="Group">
<path id="Vector" d="M19.5 23.5C17.2255 23.5 15.0021 22.8255 13.1109 21.5619C11.2198 20.2983 9.7458 18.5022 8.87539 16.4009C8.00498 14.2995 7.77724 11.9872 8.22097 9.75647C8.6647 7.52568 9.75997 5.47658 11.3683 3.86828C12.9766 2.25997 15.0257 1.1647 17.2565 0.720974C19.4872 0.277244 21.7995 0.504983 23.9009 1.37539C26.0022 2.2458 27.7983 3.71978 29.0619 5.61095C30.3255 7.50211 31 9.72552 31 12C30.9947 15.0484 29.7814 17.9704 27.6259 20.1259C25.4704 22.2814 22.5484 23.4947 19.5 23.5ZM19.5 3.50001C17.8189 3.50001 16.1755 3.99852 14.7777 4.93251C13.3798 5.86651 12.2904 7.19402 11.647 8.7472C11.0037 10.3004 10.8354 12.0094 11.1633 13.6583C11.4913 15.3071 12.3009 16.8217 13.4896 18.0104C14.6783 19.1992 16.1929 20.0087 17.8417 20.3367C19.4906 20.6647 21.1996 20.4963 22.7528 19.853C24.306 19.2096 25.6335 18.1202 26.5675 16.7224C27.5015 15.3245 28 13.6811 28 12C27.9947 9.74729 27.0975 7.58835 25.5046 5.99543C23.9117 4.40252 21.7527 3.50529 19.5 3.50001Z" fill="#5355E4"/>
<path id="Vector_2" d="M1.5 39.5C1.10379 39.4948 0.725257 39.3351 0.445068 39.0549C0.164878 38.7747 0.00517993 38.3962 0 38C0.0105651 33.362 1.8577 28.9169 5.1373 25.6373C8.4169 22.3577 12.862 20.5106 17.5 20.5H21.5C21.8978 20.5 22.2794 20.658 22.5607 20.9393C22.842 21.2206 23 21.6022 23 22C23 22.3978 22.842 22.7794 22.5607 23.0607C22.2794 23.342 21.8978 23.5 21.5 23.5H17.5C13.656 23.5053 9.97093 25.0347 7.2528 27.7528C4.53467 30.4709 3.00529 34.156 3 38C2.99482 38.3962 2.83512 38.7747 2.55493 39.0549C2.27474 39.3351 1.89621 39.4948 1.5 39.5Z" fill="#5355E4"/>
<path id="Vector_3" d="M28.5 45.5C28.1038 45.4948 27.7253 45.3351 27.4451 45.0549C27.1649 44.7747 27.0052 44.3962 27 44V28C27 27.6022 27.158 27.2206 27.4393 26.9393C27.7206 26.658 28.1022 26.5 28.5 26.5C28.8978 26.5 29.2794 26.658 29.5607 26.9393C29.842 27.2206 30 27.6022 30 28V44C29.9948 44.3962 29.8351 44.7747 29.5549 45.0549C29.2747 45.3351 28.8962 45.4948 28.5 45.5Z" fill="#5355E4"/>
<path id="Vector_4" d="M36.5 37.5H20.5C20.1022 37.5 19.7206 37.342 19.4393 37.0607C19.158 36.7794 19 36.3978 19 36C19 35.6022 19.158 35.2206 19.4393 34.9393C19.7206 34.658 20.1022 34.5 20.5 34.5H36.5C36.8978 34.5 37.2794 34.658 37.5607 34.9393C37.842 35.2206 38 35.6022 38 36C38 36.3978 37.842 36.7794 37.5607 37.0607C37.2794 37.342 36.8978 37.5 36.5 37.5Z" fill="#5355E4"/>
</g>
</svg>
