<svg width="38" height="40" viewBox="0 0 38 40" fill="none" xmlns="http://www.w3.org/2000/svg">
<g id="Group">
<path id="Vector" d="M19.7998 39.5C14.6281 39.5 9.66818 37.4455 6.01122 33.7886C2.35426 30.1316 0.299805 25.1717 0.299805 20C0.299805 14.8283 2.35426 9.86838 6.01122 6.21142C9.66818 2.55446 14.6281 0.5 19.7998 0.5C20.1976 0.5 20.5792 0.658035 20.8605 0.93934C21.1418 1.22064 21.2998 1.60218 21.2998 2C21.2998 2.39782 21.1418 2.77936 20.8605 3.06066C20.5792 3.34196 20.1976 3.5 19.7998 3.5C15.4237 3.5 11.2269 5.23839 8.13254 8.33274C5.03819 11.4271 3.2998 15.6239 3.2998 20C3.2998 24.3761 5.03819 28.5729 8.13254 31.6673C11.2269 34.7616 15.4237 36.5 19.7998 36.5C21.9863 36.5071 24.152 36.0753 26.1686 35.2302C28.1852 34.3851 30.0117 33.1439 31.5398 31.58C31.8209 31.2962 32.2033 31.1357 32.6027 31.1339C33.0022 31.132 33.386 31.2889 33.6698 31.57C33.9536 31.8511 34.1141 32.2335 34.1159 32.6329C34.1178 33.0324 33.9609 33.4162 33.6798 33.7C31.8696 35.5431 29.7092 37.0056 27.3255 38.0017C24.9419 38.9977 22.3832 39.5071 19.7998 39.5Z" fill="#5355E4"/>
<path id="Vector_2" d="M19.1999 26.9002C19.0028 26.9011 18.8075 26.8626 18.6255 26.7871C18.4435 26.7115 18.2784 26.6004 18.1399 26.4602L10.1399 18.4602C9.87493 18.1758 9.73068 17.7997 9.73754 17.4111C9.74439 17.0225 9.90182 16.6517 10.1766 16.3769C10.4515 16.1021 10.8222 15.9447 11.2108 15.9378C11.5994 15.9309 11.9755 16.0752 12.2599 16.3402L19.1999 23.2802L35.1999 7.28015C35.3372 7.13278 35.5028 7.01457 35.6868 6.93259C35.8708 6.85061 36.0694 6.80652 36.2708 6.80297C36.4722 6.79941 36.6723 6.83646 36.8591 6.91191C37.0459 6.98735 37.2155 7.09964 37.358 7.24207C37.5004 7.38451 37.6127 7.55418 37.6881 7.74096C37.7636 7.92773 37.8006 8.12779 37.7971 8.3292C37.7935 8.5306 37.7494 8.72923 37.6674 8.91323C37.5855 9.09723 37.4673 9.26283 37.3199 9.40015L20.3199 26.4002C20.1806 26.5597 20.0083 26.6871 19.8149 26.7735C19.6215 26.8598 19.4117 26.903 19.1999 26.9002Z" fill="#5355E4"/>
</g>
</svg>
