<svg width="36" height="43" viewBox="0 0 36 43" fill="none" xmlns="http://www.w3.org/2000/svg">
<g id="Group">
<path id="Vector" d="M17.6 42.7554C0.200001 42.7554 0 25.4154 0 25.2354V9.05542C0.00112463 8.76828 0.0846427 8.4875 0.240633 8.24642C0.396624 8.00535 0.618533 7.81411 0.88 7.69542L16.88 0.135424C17.0815 0.0461299 17.2996 0 17.52 0C17.7404 0 17.9585 0.0461299 18.16 0.135424L34.26 7.69542C34.5177 7.81701 34.7355 8.0095 34.8878 8.25035C35.0401 8.4912 35.1206 8.77046 35.12 9.05542V25.2354C35.2 25.3754 35 42.7554 17.6 42.7554ZM3 10.0154V25.2354C3 25.8354 3.24 39.7554 17.6 39.7554C31.96 39.7554 32.2 25.7554 32.2 25.2354V10.0154L17.6 3.15542L3 10.0154Z" fill="#5355E4"/>
</g>
</svg>
