<svg width="40" height="40" viewBox="0 0 40 40" fill="none" xmlns="http://www.w3.org/2000/svg">
<g id="Group">
<path id="Vector" d="M14.3004 18.5198H4.30043C3.27831 18.5146 2.29956 18.1062 1.5768 17.3834C0.85405 16.6607 0.445685 15.6819 0.44043 14.6598V4.6598C0.445685 3.63769 0.85405 2.65893 1.5768 1.93618C2.29956 1.21342 3.27831 0.80506 4.30043 0.799805H14.3004C15.3225 0.80506 16.3013 1.21342 17.0241 1.93618C17.7468 2.65893 18.1552 3.63769 18.1604 4.6598V14.6598C18.1552 15.6819 17.7468 16.6607 17.0241 17.3834C16.3013 18.1062 15.3225 18.5146 14.3004 18.5198ZM4.30043 3.7998C4.07394 3.8049 3.85814 3.89714 3.69795 4.05733C3.53776 4.21752 3.44552 4.43332 3.44043 4.6598V14.6598C3.44043 14.8879 3.53104 15.1066 3.69232 15.2679C3.8536 15.4292 4.07234 15.5198 4.30043 15.5198H14.3004C14.5285 15.5198 14.7473 15.4292 14.9085 15.2679C15.0698 15.1066 15.1604 14.8879 15.1604 14.6598V4.6598C15.1604 4.43172 15.0698 4.21297 14.9085 4.05169C14.7473 3.89041 14.5285 3.7998 14.3004 3.7998H4.30043Z" fill="#5355E4"/>
<path id="Vector_2" d="M35.7008 18.5198H25.7008C24.6787 18.5146 23.6999 18.1062 22.9772 17.3834C22.2544 16.6607 21.8461 15.6819 21.8408 14.6598V4.6598C21.8461 3.63769 22.2544 2.65893 22.9772 1.93618C23.6999 1.21342 24.6787 0.80506 25.7008 0.799805H35.7008C36.7229 0.80506 37.7017 1.21342 38.4244 1.93618C39.1472 2.65893 39.5556 3.63769 39.5608 4.6598V14.6598C39.5556 15.6819 39.1472 16.6607 38.4244 17.3834C37.7017 18.1062 36.7229 18.5146 35.7008 18.5198ZM25.7008 3.7998C25.4727 3.7998 25.254 3.89041 25.0927 4.05169C24.9314 4.21297 24.8408 4.43172 24.8408 4.6598V14.6598C24.8408 14.8879 24.9314 15.1066 25.0927 15.2679C25.254 15.4292 25.4727 15.5198 25.7008 15.5198H35.7008C35.9289 15.5198 36.1477 15.4292 36.3089 15.2679C36.4702 15.1066 36.5608 14.8879 36.5608 14.6598V4.6598C36.5608 4.43172 36.4702 4.21297 36.3089 4.05169C36.1477 3.89041 35.9289 3.7998 35.7008 3.7998H25.7008Z" fill="#5355E4"/>
<path id="Vector_3" d="M14.3004 39.1995H4.30043C3.27831 39.1942 2.29956 38.7859 1.5768 38.0631C0.85405 37.3404 0.445685 36.3616 0.44043 35.3395V25.3395C0.445685 24.3174 0.85405 23.3386 1.5768 22.6159C2.29956 21.8931 3.27831 21.4847 4.30043 21.4795H14.3004C15.3225 21.4847 16.3013 21.8931 17.0241 22.6159C17.7468 23.3386 18.1552 24.3174 18.1604 25.3395V35.3395C18.1552 36.3616 17.7468 37.3404 17.0241 38.0631C16.3013 38.7859 15.3225 39.1942 14.3004 39.1995ZM4.30043 24.4795C4.07234 24.4795 3.8536 24.5701 3.69232 24.7314C3.53104 24.8927 3.44043 25.1114 3.44043 25.3395V35.3395C3.44552 35.566 3.53776 35.7818 3.69795 35.942C3.85814 36.1022 4.07394 36.1944 4.30043 36.1995H14.3004C14.5285 36.1995 14.7473 36.1089 14.9085 35.9476C15.0698 35.7863 15.1604 35.5676 15.1604 35.3395V25.3395C15.1604 25.1114 15.0698 24.8927 14.9085 24.7314C14.7473 24.5701 14.5285 24.4795 14.3004 24.4795H4.30043Z" fill="#5355E4"/>
<path id="Vector_4" d="M35.7008 39.1995H25.7008C24.6787 39.1942 23.6999 38.7859 22.9772 38.0631C22.2544 37.3404 21.8461 36.3616 21.8408 35.3395V25.3395C21.8461 24.3174 22.2544 23.3386 22.9772 22.6159C23.6999 21.8931 24.6787 21.4847 25.7008 21.4795H35.7008C36.7229 21.4847 37.7017 21.8931 38.4244 22.6159C39.1472 23.3386 39.5556 24.3174 39.5608 25.3395V35.3395C39.5556 36.3616 39.1472 37.3404 38.4244 38.0631C37.7017 38.7859 36.7229 39.1942 35.7008 39.1995ZM25.7008 24.4795C25.4727 24.4795 25.254 24.5701 25.0927 24.7314C24.9314 24.8927 24.8408 25.1114 24.8408 25.3395V35.3395C24.8408 35.5676 24.9314 35.7863 25.0927 35.9476C25.254 36.1089 25.4727 36.1995 25.7008 36.1995H35.7008C35.9289 36.1995 36.1477 36.1089 36.3089 35.9476C36.4702 35.7863 36.5608 35.5676 36.5608 35.3395V25.3395C36.5608 25.1114 36.4702 24.8927 36.3089 24.7314C36.1477 24.5701 35.9289 24.4795 35.7008 24.4795H25.7008Z" fill="#5355E4"/>
</g>
</svg>
