<svg width="34" height="30" viewBox="0 0 34 30" fill="none" xmlns="http://www.w3.org/2000/svg">
<g id="Group">
<path id="Vector" d="M27.0004 29.6501H7.00036C6.17395 29.6501 5.35575 29.4863 4.59308 29.168C3.83042 28.8498 3.13845 28.3834 2.5572 27.796C1.97595 27.2085 1.51698 26.5116 1.20684 25.7456C0.896694 24.9797 0.741541 24.1598 0.750356 23.3334V11.6667C0.772223 10.0221 1.43982 8.45194 2.60909 7.29515C3.77836 6.13835 5.35556 5.48763 7.00036 5.4834H27.0004C28.6452 5.48763 30.2223 6.13835 31.3916 7.29515C32.5609 8.45194 33.2285 10.0221 33.2504 11.6667V23.3334C33.2592 24.1598 33.104 24.9797 32.7939 25.7456C32.4837 26.5116 32.0248 27.2085 31.4435 27.796C30.8623 28.3834 30.1703 28.8498 29.4076 29.168C28.645 29.4863 27.8268 29.6501 27.0004 29.6501ZM7.00036 7.9834C6.01724 7.98324 5.07338 8.36917 4.372 9.05807C3.67062 9.74698 3.26783 10.6838 3.25036 11.6667V23.3334C3.2415 23.8314 3.33196 24.3263 3.51644 24.7889C3.70093 25.2516 3.97575 25.6729 4.32485 26.0282C4.67396 26.3836 5.09035 26.6658 5.54973 26.8584C6.0091 27.051 6.50224 27.1501 7.00036 27.1501H27.0004C27.4985 27.1501 27.9916 27.051 28.451 26.8584C28.9104 26.6658 29.3267 26.3836 29.6759 26.0282C30.025 25.6729 30.2998 25.2516 30.4843 24.7889C30.6688 24.3263 30.7592 23.8314 30.7504 23.3334V11.6667C30.7329 10.6838 30.3301 9.74698 29.6287 9.05807C28.9273 8.36917 27.9835 7.98324 27.0004 7.9834H7.00036Z" fill="#00E589"/>
<path id="Vector_2" d="M32.0013 23.8173H22.7513C21.3368 23.8173 19.9803 23.2554 18.9801 22.2552C17.9799 21.255 17.418 19.8985 17.418 18.484V16.6673C17.4224 15.2542 17.9857 13.9002 18.9849 12.9009C19.9842 11.9017 21.3382 11.3384 22.7513 11.334H32.0013C32.3328 11.334 32.6508 11.4657 32.8852 11.7001C33.1196 11.9345 33.2513 12.2525 33.2513 12.584C33.2513 12.9155 33.1196 13.2334 32.8852 13.4679C32.6508 13.7023 32.3328 13.834 32.0013 13.834H22.7513C21.9999 13.834 21.2792 14.1325 20.7478 14.6638C20.2165 15.1952 19.918 15.9159 19.918 16.6673V18.5007C19.918 19.2521 20.2165 19.9728 20.7478 20.5041C21.2792 21.0355 21.9999 21.334 22.7513 21.334H32.0013C32.3328 21.334 32.6508 21.4657 32.8852 21.7001C33.1196 21.9345 33.2513 22.2525 33.2513 22.584C33.2513 22.9155 33.1196 23.2334 32.8852 23.4679C32.6508 23.7023 32.3328 23.834 32.0013 23.834V23.8173Z" fill="#00E589"/>
<path id="Vector_3" d="M25.3341 18.8173C25.0026 18.817 24.6849 18.6851 24.4507 18.4506C24.3331 18.3358 24.24 18.1983 24.1769 18.0465C24.1139 17.8946 24.0823 17.7316 24.0841 17.5673C24.0834 17.4063 24.1175 17.2471 24.1841 17.1006C24.2469 16.9466 24.3372 16.8054 24.4507 16.6839C24.6851 16.4498 25.0028 16.3184 25.3341 16.3184C25.6653 16.3184 25.983 16.4498 26.2174 16.6839C26.3309 16.8054 26.4212 16.9466 26.4841 17.1006C26.5506 17.2471 26.5847 17.4063 26.5841 17.5673C26.5858 17.7316 26.5542 17.8946 26.4912 18.0465C26.4281 18.1983 26.335 18.3358 26.2174 18.4506C25.9832 18.6851 25.6655 18.817 25.3341 18.8173Z" fill="#00E589"/>
<path id="Vector_4" d="M7.55131 7.98355C7.2568 7.97907 6.97334 7.87074 6.75091 7.67766C6.52848 7.48458 6.38138 7.21916 6.33554 6.92821C6.28971 6.63726 6.34809 6.33947 6.50038 6.08736C6.65268 5.83525 6.88911 5.64502 7.16797 5.55022L22.568 0.550216C23.0178 0.403162 23.4956 0.362232 23.964 0.430629C24.4323 0.499027 24.8784 0.674896 25.2675 0.944468C25.6565 1.21404 25.9778 1.57 26.2063 1.98447C26.4349 2.39895 26.5643 2.86069 26.5846 3.33355V6.66688C26.5846 6.9984 26.4529 7.31635 26.2185 7.55077C25.9841 7.78519 25.6662 7.91688 25.3346 7.91688C25.0031 7.91688 24.6852 7.78519 24.4508 7.55077C24.2163 7.31635 24.0846 6.9984 24.0846 6.66688V3.33355C24.0847 3.24533 24.0635 3.15839 24.0229 3.08007C23.9823 3.00175 23.9234 2.93434 23.8513 2.88355C23.7735 2.84531 23.688 2.82542 23.6013 2.82542C23.5146 2.82542 23.4291 2.84531 23.3513 2.88355L7.95131 7.88355C7.82263 7.93331 7.68826 7.9669 7.55131 7.98355Z" fill="#00E589"/>
</g>
</svg>
