<svg width="33" height="32" viewBox="0 0 33 32" fill="none" xmlns="http://www.w3.org/2000/svg">
<g id="Icon/ Social Media">
<rect id="Rectangle" x="0.5" width="32" height="32" rx="16" fill="#00E589"/>
<path id="Vector" d="M25.3207 12.4001C25.3207 12.4001 25.1449 11.1591 24.6035 10.6142C23.918 9.89697 23.1516 9.89346 22.8 9.85127C20.2828 9.66846 16.5035 9.66846 16.5035 9.66846H16.4965C16.4965 9.66846 12.7172 9.66846 10.2 9.85127C9.84844 9.89346 9.08203 9.89697 8.39648 10.6142C7.85508 11.1591 7.68281 12.4001 7.68281 12.4001C7.68281 12.4001 7.5 13.8591 7.5 15.3146V16.6786C7.5 18.1341 7.6793 19.5931 7.6793 19.5931C7.6793 19.5931 7.85508 20.8341 8.39297 21.379C9.07852 22.0962 9.97852 22.0716 10.3793 22.1489C11.8207 22.286 16.5 22.3282 16.5 22.3282C16.5 22.3282 20.2828 22.3212 22.8 22.1419C23.1516 22.0997 23.918 22.0962 24.6035 21.379C25.1449 20.8341 25.3207 19.5931 25.3207 19.5931C25.3207 19.5931 25.5 18.1376 25.5 16.6786V15.3146C25.5 13.8591 25.3207 12.4001 25.3207 12.4001ZM14.6402 18.3345V13.2755L19.5023 15.8138L14.6402 18.3345Z" fill="#05253E"/>
</g>
</svg>
