<svg width="19" height="15" viewBox="0 0 19 15" fill="none" xmlns="http://www.w3.org/2000/svg">
<g filter="url(#filter0_d_4201_8752)">
<path d="M4.52578 5.9558C4.71314 6.14205 4.96659 6.24659 5.23078 6.24659C5.49497 6.24659 5.74842 6.14205 5.93578 5.9558L9.52578 2.4158L13.0658 5.9558C13.2531 6.14205 13.5066 6.24659 13.7708 6.24659C14.035 6.24659 14.2884 6.14205 14.4758 5.9558C14.5695 5.86284 14.6439 5.75223 14.6947 5.63038C14.7454 5.50852 14.7716 5.37781 14.7716 5.2458C14.7716 5.11379 14.7454 4.98308 14.6947 4.86122C14.6439 4.73936 14.5695 4.62876 14.4758 4.5358L10.2358 0.295798C10.1428 0.20207 10.0322 0.127676 9.91036 0.0769072C9.7885 0.0261385 9.65779 1.15408e-08 9.52578 0C9.39377 -1.15408e-08 9.26306 0.0261385 9.1412 0.0769071C9.01934 0.127676 8.90874 0.20207 8.81578 0.295798L4.52578 4.5358C4.43205 4.62876 4.35766 4.73936 4.30689 4.86122C4.25612 4.98308 4.22998 5.11379 4.22998 5.2458C4.22998 5.37781 4.25612 5.50852 4.30689 5.63037C4.35766 5.75223 4.43205 5.86283 4.52578 5.9558Z" fill="#05253E"/>
<path d="M4.87828 5.60119L4.87788 5.6008C4.83102 5.55432 4.79382 5.49902 4.76844 5.43809C4.74305 5.37715 4.72998 5.3118 4.72998 5.2458C4.72998 5.17979 4.74305 5.11444 4.76844 5.05351C4.79377 4.99271 4.83086 4.93751 4.87758 4.89109C4.87768 4.89099 4.87778 4.8909 4.87788 4.8908L9.16725 0.651418L9.16727 0.651436L9.17078 0.647899C9.21726 0.601035 9.27256 0.563838 9.33349 0.538454C9.39442 0.513069 9.45977 0.5 9.52578 0.5C9.59179 0.5 9.65714 0.513069 9.71807 0.538454C9.779 0.563838 9.8343 0.601035 9.88078 0.647899L9.88078 0.647902L9.88223 0.649352L14.1222 4.88935L14.1237 4.8908C14.1705 4.93728 14.2077 4.99258 14.2331 5.05351C14.2585 5.11444 14.2716 5.17979 14.2716 5.2458C14.2716 5.3118 14.2585 5.37716 14.2331 5.43809C14.2077 5.49902 14.1705 5.55432 14.1237 5.6008L14.1233 5.60119C14.0296 5.69432 13.9029 5.74659 13.7708 5.74659C13.6389 5.74659 13.5124 5.69449 13.4187 5.60165C13.4186 5.6015 13.4184 5.60135 13.4183 5.60119L9.87933 2.06224L9.52825 1.71116L9.17472 2.05977L5.58471 5.59977L5.58471 5.59977L5.58328 5.60119C5.4896 5.69432 5.36287 5.74659 5.23078 5.74659C5.09869 5.74659 4.97196 5.69432 4.87828 5.60119Z" stroke="black"/>
</g>
<defs>
<filter id="filter0_d_4201_8752" x="0.22998" y="0" width="18.5416" height="14.2466" filterUnits="userSpaceOnUse" color-interpolation-filters="sRGB">
<feFlood flood-opacity="0" result="BackgroundImageFix"/>
<feColorMatrix in="SourceAlpha" type="matrix" values="0 0 0 0 0 0 0 0 0 0 0 0 0 0 0 0 0 0 127 0" result="hardAlpha"/>
<feOffset dy="4"/>
<feGaussianBlur stdDeviation="2"/>
<feComposite in2="hardAlpha" operator="out"/>
<feColorMatrix type="matrix" values="0 0 0 0 0 0 0 0 0 0 0 0 0 0 0 0 0 0 0.25 0"/>
<feBlend mode="normal" in2="BackgroundImageFix" result="effect1_dropShadow_4201_8752"/>
<feBlend mode="normal" in="SourceGraphic" in2="effect1_dropShadow_4201_8752" result="shape"/>
</filter>
</defs>
</svg>
