<svg xmlns="http://www.w3.org/2000/svg" width="11" height="7" viewBox="0 0 11 7" fill="none">
  <path d="M10.4758 0.290792C10.2884 0.104542 10.035 0 9.77078 0C9.50659 0 9.25314 0.104542 9.06578 0.290792L5.47578 3.83079L1.93578 0.290792C1.74842 0.104542 1.49496 0 1.23078 0C0.966593 0 0.713141 0.104542 0.525779 0.290792C0.43205 0.383755 0.357656 0.494356 0.306887 0.616216C0.256118 0.738075 0.22998 0.868781 0.22998 1.00079C0.22998 1.1328 0.256118 1.26351 0.306887 1.38537C0.357656 1.50723 0.43205 1.61783 0.525779 1.71079L4.76578 5.95079C4.85874 6.04452 4.96934 6.11891 5.0912 6.16968C5.21306 6.22045 5.34377 6.24659 5.47578 6.24659C5.60779 6.24659 5.7385 6.22045 5.86036 6.16968C5.98221 6.11891 6.09282 6.04452 6.18578 5.95079L10.4758 1.71079C10.5695 1.61783 10.6439 1.50723 10.6947 1.38537C10.7454 1.26351 10.7716 1.1328 10.7716 1.00079C10.7716 0.868781 10.7454 0.738075 10.6947 0.616216C10.6439 0.494356 10.5695 0.383755 10.4758 0.290792Z" fill="#05253E"/>
</svg>