<svg xmlns="http://www.w3.org/2000/svg" width="21" height="20" viewBox="0 0 21 20" fill="none">
  <path d="M20.2839 19.92H1.00391C0.871298 19.92 0.744121 19.8674 0.650353 19.7736C0.556585 19.6798 0.503906 19.5526 0.503906 19.42V13.04C0.503906 12.9074 0.556585 12.7803 0.650353 12.6865C0.744121 12.5927 0.871298 12.54 1.00391 12.54H20.2839C20.4165 12.54 20.5437 12.5927 20.6375 12.6865C20.7312 12.7803 20.7839 12.9074 20.7839 13.04V19.42C20.7839 19.5526 20.7312 19.6798 20.6375 19.7736C20.5437 19.8674 20.4165 19.92 20.2839 19.92ZM1.50391 18.92H19.7839V13.54H1.50391V18.92Z" fill="#05253E"/>
  <path d="M1.00384 13.5399C0.872731 13.5488 0.743407 13.5057 0.643837 13.4199C0.551588 13.3248 0.5 13.1975 0.5 13.0649C0.5 12.9324 0.551588 12.8051 0.643837 12.7099L4.31384 9.04994C4.35848 9.0019 4.41269 8.96374 4.47297 8.9379C4.53324 8.91207 4.59826 8.89914 4.66384 8.89994L16.6638 8.96994C16.7976 8.97688 16.9247 9.02988 17.0238 9.11994L20.6138 12.7099C20.708 12.8041 20.7609 12.9318 20.7609 13.0649C20.7609 13.1981 20.708 13.3258 20.6138 13.4199C20.5197 13.5141 20.392 13.567 20.2588 13.567C20.1257 13.567 19.998 13.5141 19.9038 13.4199L16.4538 9.96994L4.87384 9.87994L1.35384 13.4199C1.30665 13.4626 1.2513 13.4952 1.19114 13.5158C1.13098 13.5365 1.06726 13.5447 1.00384 13.5399Z" fill="#05253E"/>
  <path d="M16.658 9.92C16.5291 9.92 16.4055 9.86732 16.3144 9.77355C16.2233 9.67979 16.1721 9.55261 16.1721 9.42V1H5.11546V9.42C5.11546 9.55261 5.06427 9.67979 4.97316 9.77355C4.88205 9.86732 4.75848 9.92 4.62963 9.92C4.50078 9.92 4.37721 9.86732 4.2861 9.77355C4.19498 9.67979 4.1438 9.55261 4.1438 9.42V0.5C4.14629 0.368193 4.19827 0.242498 4.28885 0.149279C4.37942 0.0560604 4.50156 0.00256007 4.62963 0H16.658C16.7868 0 16.9104 0.0526784 17.0015 0.146447C17.0926 0.240215 17.1438 0.367392 17.1438 0.5V9.42C17.1438 9.55261 17.0926 9.67979 17.0015 9.77355C16.9104 9.86732 16.7868 9.92 16.658 9.92Z" fill="#05253E"/>
  <path d="M19 7C18.8674 7 18.7402 6.94732 18.6464 6.85355C18.5527 6.75979 18.5 6.63261 18.5 6.5V3.5C18.5 3.36739 18.5527 3.24021 18.6464 3.14645C18.7402 3.05268 18.8674 3 19 3C19.1318 3.00256 19.2575 3.05606 19.3507 3.14928C19.4439 3.2425 19.4974 3.36819 19.5 3.5V6.5C19.5 6.63261 19.4473 6.75979 19.3536 6.85355C19.2598 6.94732 19.1326 7 19 7Z" fill="#05253E"/>
  <path d="M16.5 6.5C16.5 6.36739 16.5395 6.24022 16.6098 6.14645C16.6802 6.05268 16.7755 6 16.875 6L19.125 6C19.2245 6 19.3198 6.05268 19.3902 6.14645C19.4605 6.24022 19.5 6.36739 19.5 6.5C19.4981 6.63181 19.458 6.7575 19.388 6.85072C19.3181 6.94394 19.2239 6.99744 19.125 7L16.875 7C16.7755 7 16.6802 6.94732 16.6098 6.85355C16.5395 6.75979 16.5 6.63261 16.5 6.5Z" fill="#05253E"/>
  <path d="M9.1438 7.41992C9.01119 7.41992 8.88401 7.36724 8.79025 7.27348C8.69648 7.17971 8.6438 7.05253 8.6438 6.91992V2.91992C8.6438 2.78731 8.69648 2.66014 8.79025 2.56637C8.88401 2.4726 9.01119 2.41992 9.1438 2.41992C9.27561 2.42248 9.4013 2.47598 9.49452 2.5692C9.58774 2.66242 9.64124 2.78812 9.6438 2.91992V6.91992C9.6438 7.05253 9.59112 7.17971 9.49735 7.27348C9.40358 7.36724 9.27641 7.41992 9.1438 7.41992Z" fill="#05253E"/>
  <path d="M6.1438 7.41992C6.01119 7.41992 5.88401 7.36724 5.79025 7.27348C5.69648 7.17971 5.6438 7.05253 5.6438 6.91992V2.91992C5.6438 2.78731 5.69648 2.66014 5.79025 2.56637C5.88401 2.4726 6.01119 2.41992 6.1438 2.41992C6.27561 2.42248 6.4013 2.47598 6.49452 2.5692C6.58774 2.66242 6.64124 2.78812 6.6438 2.91992V6.91992C6.6438 7.05253 6.59112 7.17971 6.49735 7.27348C6.40358 7.36724 6.27641 7.41992 6.1438 7.41992Z" fill="#05253E"/>
  <path d="M12.1438 7.41992C12.0112 7.41992 11.884 7.36724 11.7902 7.27348C11.6965 7.17971 11.6438 7.05253 11.6438 6.91992V2.91992C11.6438 2.78731 11.6965 2.66014 11.7902 2.56637C11.884 2.4726 12.0112 2.41992 12.1438 2.41992C12.2756 2.42248 12.4013 2.47598 12.4945 2.5692C12.5877 2.66242 12.6412 2.78812 12.6438 2.91992V6.91992C12.6438 7.05253 12.5911 7.17971 12.4974 7.27348C12.4036 7.36724 12.2764 7.41992 12.1438 7.41992Z" fill="#05253E"/>
  <path d="M15.1438 7.41992C15.0112 7.41992 14.884 7.36724 14.7902 7.27348C14.6965 7.17971 14.6438 7.05253 14.6438 6.91992V2.91992C14.6438 2.78731 14.6965 2.66014 14.7902 2.56637C14.884 2.4726 15.0112 2.41992 15.1438 2.41992C15.2756 2.42248 15.4013 2.47598 15.4945 2.5692C15.5877 2.66242 15.6412 2.78812 15.6438 2.91992V6.91992C15.6438 7.05253 15.5911 7.17971 15.4974 7.27348C15.4036 7.36724 15.2764 7.41992 15.1438 7.41992Z" fill="#05253E"/>
  <path d="M5.6438 2.91992C5.6438 2.78731 5.68331 2.66014 5.75363 2.56637C5.82396 2.4726 5.91934 2.41992 6.0188 2.41992L15.2688 2.41992C15.3683 2.41992 15.4636 2.4726 15.534 2.56637C15.6043 2.66014 15.6438 2.78731 15.6438 2.91992C15.6419 3.05173 15.6018 3.17742 15.5318 3.27064C15.4619 3.36386 15.3677 3.41736 15.2688 3.41992L6.0188 3.41992C5.91934 3.41992 5.82396 3.36724 5.75363 3.27348C5.68331 3.17971 5.6438 3.05253 5.6438 2.91992Z" fill="#05253E"/>
  <path d="M5.6438 6.91992C5.6438 6.78731 5.68331 6.66014 5.75363 6.56637C5.82396 6.4726 5.91934 6.41992 6.0188 6.41992L15.2688 6.41992C15.3683 6.41992 15.4636 6.4726 15.534 6.56637C15.6043 6.66014 15.6438 6.78731 15.6438 6.91992C15.6419 7.05173 15.6018 7.17742 15.5318 7.27064C15.4619 7.36386 15.3677 7.41736 15.2688 7.41992L6.0188 7.41992C5.91934 7.41992 5.82396 7.36724 5.75363 7.27348C5.68331 7.17971 5.6438 7.05253 5.6438 6.91992Z" fill="#05253E"/>
  <path fill-rule="evenodd" clip-rule="evenodd" d="M19 3C19.2761 3 19.5 2.77614 19.5 2.5C19.5 2.22386 19.2761 2 19 2C18.7239 2 18.5 2.22386 18.5 2.5C18.5 2.77614 18.7239 3 19 3ZM19 4C19.8284 4 20.5 3.32843 20.5 2.5C20.5 1.67157 19.8284 1 19 1C18.1716 1 17.5 1.67157 17.5 2.5C17.5 3.32843 18.1716 4 19 4Z" fill="#05253E"/>
</svg>