<svg xmlns="http://www.w3.org/2000/svg" width="22" height="16" viewBox="0 0 22 16" fill="none">
  <path d="M20 15.75H6C5.53668 15.7474 5.09309 15.5622 4.76546 15.2345C4.43784 14.9069 4.25263 14.4633 4.25 14V6C4.25263 5.53668 4.43784 5.09309 4.76546 4.76546C5.09309 4.43784 5.53668 4.25263 6 4.25H20C20.4633 4.25263 20.9069 4.43784 21.2345 4.76546C21.5622 5.09309 21.7474 5.53668 21.75 6V14C21.7474 14.4633 21.5622 14.9069 21.2345 15.2345C20.9069 15.5622 20.4633 15.7474 20 15.75ZM6 5.75C5.9337 5.75 5.87011 5.77634 5.82322 5.82322C5.77634 5.87011 5.75 5.9337 5.75 6V14C5.75 14.0663 5.77634 14.1299 5.82322 14.1768C5.87011 14.2237 5.9337 14.25 6 14.25H20C20.0663 14.25 20.1299 14.2237 20.1768 14.1768C20.2237 14.1299 20.25 14.0663 20.25 14V6C20.25 5.9337 20.2237 5.87011 20.1768 5.82322C20.1299 5.77634 20.0663 5.75 20 5.75H6Z" fill="#05253E"/>
  <path d="M5 11.75H2C1.53668 11.7474 1.09309 11.5622 0.765464 11.2345C0.437842 10.9069 0.252625 10.4633 0.25 10V2C0.252625 1.53668 0.437842 1.09309 0.765464 0.765464C1.09309 0.437842 1.53668 0.252625 2 0.25H16C16.4633 0.252625 16.9069 0.437842 17.2345 0.765464C17.5622 1.09309 17.7474 1.53668 17.75 2V5C17.75 5.19891 17.671 5.38968 17.5303 5.53033C17.3897 5.67098 17.1989 5.75 17 5.75C16.8011 5.75 16.6103 5.67098 16.4697 5.53033C16.329 5.38968 16.25 5.19891 16.25 5V2C16.25 1.9337 16.2237 1.87011 16.1768 1.82322C16.1299 1.77634 16.0663 1.75 16 1.75H2C1.9337 1.75 1.87011 1.77634 1.82322 1.82322C1.77634 1.87011 1.75 1.9337 1.75 2V10C1.75 10.0663 1.77634 10.1299 1.82322 10.1768C1.87011 10.2237 1.9337 10.25 2 10.25H5C5.19891 10.25 5.38968 10.329 5.53033 10.4697C5.67098 10.6103 5.75 10.8011 5.75 11C5.75 11.1989 5.67098 11.3897 5.53033 11.5303C5.38968 11.671 5.19891 11.75 5 11.75Z" fill="#05253E"/>
  <path d="M13 12.75C12.4561 12.75 11.9244 12.5887 11.4722 12.2865C11.0199 11.9844 10.6675 11.5549 10.4593 11.0524C10.2512 10.5499 10.1967 9.99695 10.3028 9.4635C10.409 8.93006 10.6709 8.44005 11.0555 8.05546C11.4401 7.67086 11.9301 7.40895 12.4635 7.30284C12.997 7.19673 13.5499 7.25119 14.0524 7.45933C14.5549 7.66747 14.9844 8.01995 15.2865 8.47218C15.5887 8.92442 15.75 9.4561 15.75 10C15.75 10.7293 15.4603 11.4288 14.9445 11.9445C14.4288 12.4603 13.7293 12.75 13 12.75ZM13 8.75C12.7528 8.75 12.5111 8.82331 12.3055 8.96066C12.1 9.09802 11.9398 9.29324 11.8452 9.52165C11.7505 9.75005 11.7258 10.0014 11.774 10.2439C11.8223 10.4863 11.9413 10.7091 12.1161 10.8839C12.2909 11.0587 12.5137 11.1778 12.7561 11.226C12.9986 11.2742 13.2499 11.2495 13.4784 11.1549C13.7068 11.0602 13.902 10.9 14.0393 10.6945C14.1767 10.4889 14.25 10.2472 14.25 10C14.25 9.66848 14.1183 9.35054 13.8839 9.11612C13.6495 8.8817 13.3315 8.75 13 8.75Z" fill="#05253E"/>
</svg>