<svg xmlns="http://www.w3.org/2000/svg" width="24" height="24" viewBox="0 0 24 24" fill="none">
  <path fill-rule="evenodd" clip-rule="evenodd" d="M3.97401 20.0074C3.59788 19.6317 3.59788 19.0226 3.97401 18.6469L18.957 3.68031C19.3331 3.30459 19.9429 3.30459 20.3191 3.68031C20.6952 4.05603 20.6952 4.66519 20.3191 5.04091L5.3361 20.0074C4.95997 20.3832 4.35014 20.3832 3.97401 20.0074Z" fill="#05253E"/>
  <path fill-rule="evenodd" clip-rule="evenodd" d="M3.68126 3.99377C4.05739 3.61806 4.66722 3.61806 5.04335 3.99377L20.0263 18.9603C20.4024 19.336 20.4024 19.9452 20.0263 20.3209C19.6502 20.6966 19.0404 20.6966 18.6642 20.3209L3.68126 5.35437C3.30513 4.97865 3.30513 4.36949 3.68126 3.99377Z" fill="#05253E"/>
</svg>