<svg xmlns="http://www.w3.org/2000/svg" width="43" height="30" viewBox="0 0 43 30" fill="none">
  <path d="M34.7266 29.4799H8.46663C8.15229 29.4827 7.84522 29.3854 7.58992 29.202C7.33461 29.0186 7.14432 28.7587 7.04663 28.4599L0.66663 8.99988C0.568883 8.72005 0.558626 8.4171 0.637221 8.1313C0.715817 7.84549 0.879542 7.59038 1.10663 7.39988C1.33092 7.2031 1.60945 7.0787 1.90568 7.04301C2.20192 7.00732 2.50202 7.062 2.76663 7.19988L14.4066 12.9999L20.4066 1.35988C20.545 1.12783 20.7412 0.935675 20.9761 0.802232C21.211 0.668789 21.4765 0.598633 21.7466 0.598633C22.0168 0.598633 22.2823 0.668789 22.5172 0.802232C22.7521 0.935675 22.9483 1.12783 23.0866 1.35988L29.0866 13.0199L40.7466 7.21988C41.0082 7.08368 41.3049 7.02989 41.5976 7.0656C41.8904 7.1013 42.1655 7.22481 42.3866 7.41988C42.5781 7.6297 42.7061 7.88959 42.7557 8.1693C42.8052 8.449 42.7744 8.73704 42.6666 8.99988L36.1466 28.4399C36.0524 28.7424 35.8636 29.0067 35.608 29.1939C35.3524 29.3811 35.0435 29.4814 34.7266 29.4799V29.4799ZM9.66663 26.4799H33.6666L38.6866 11.4999L28.9466 16.3399C28.7722 16.4291 28.5818 16.4828 28.3865 16.4979C28.1912 16.513 27.9948 16.4892 27.8087 16.4278C27.6227 16.3664 27.4507 16.2686 27.3027 16.1403C27.1547 16.0119 27.0337 15.8554 26.9466 15.6799L21.6666 5.31988L16.4066 15.6799C16.3196 15.8554 16.1986 16.0119 16.0506 16.1403C15.9026 16.2686 15.7306 16.3664 15.5445 16.4278C15.3585 16.4892 15.1621 16.513 14.9668 16.4979C14.7714 16.4828 14.581 16.4291 14.4066 16.3399L4.62663 11.4399L9.66663 26.4799Z" fill="#00E589"/>
</svg>