<svg xmlns="http://www.w3.org/2000/svg" width="15" height="11" viewBox="0 0 15 11" fill="none">
  <path d="M13.5 10.5003H4.16667C3.90146 10.5003 3.6471 10.395 3.45956 10.2074C3.27203 10.0199 3.16667 9.76554 3.16667 9.50033V4.16699C3.16667 3.90178 3.27203 3.64742 3.45956 3.45989C3.6471 3.27235 3.90146 3.16699 4.16667 3.16699H13.5C13.7652 3.16699 14.0196 3.27235 14.2071 3.45989C14.3946 3.64742 14.5 3.90178 14.5 4.16699V9.50033C14.5 9.76554 14.3946 10.0199 14.2071 10.2074C14.0196 10.395 13.7652 10.5003 13.5 10.5003ZM4.16667 3.83366C4.07827 3.83366 3.99348 3.86878 3.93097 3.93129C3.86846 3.9938 3.83334 4.07859 3.83334 4.16699V9.50033C3.83334 9.58873 3.86846 9.67352 3.93097 9.73603C3.99348 9.79854 4.07827 9.83366 4.16667 9.83366H13.5C13.5884 9.83366 13.6732 9.79854 13.7357 9.73603C13.7982 9.67352 13.8333 9.58873 13.8333 9.50033V4.16699C13.8333 4.07859 13.7982 3.9938 13.7357 3.93129C13.6732 3.86878 13.5884 3.83366 13.5 3.83366H4.16667Z" fill="white"/>
  <path d="M3.5 7.83333H1.5C1.23478 7.83333 0.98043 7.72798 0.792893 7.54044C0.605357 7.3529 0.5 7.09855 0.5 6.83333V1.5C0.5 1.23478 0.605357 0.980429 0.792893 0.792893C0.98043 0.605357 1.23478 0.5 1.5 0.5H10.8333C11.0985 0.5 11.3529 0.605357 11.5404 0.792893C11.728 0.980429 11.8333 1.23478 11.8333 1.5V3.5C11.8333 3.58841 11.7982 3.67319 11.7357 3.7357C11.6732 3.79821 11.5884 3.83333 11.5 3.83333C11.4116 3.83333 11.3268 3.79821 11.2643 3.7357C11.2018 3.67319 11.1667 3.58841 11.1667 3.5V1.5C11.1667 1.41159 11.1315 1.32681 11.069 1.2643C11.0065 1.20179 10.9217 1.16667 10.8333 1.16667H1.5C1.41159 1.16667 1.32681 1.20179 1.2643 1.2643C1.20179 1.32681 1.16667 1.41159 1.16667 1.5V6.83333C1.16667 6.92174 1.20179 7.00652 1.2643 7.06904C1.32681 7.13155 1.41159 7.16667 1.5 7.16667H3.5C3.58841 7.16667 3.67319 7.20178 3.7357 7.2643C3.79821 7.32681 3.83333 7.41159 3.83333 7.5C3.83333 7.58841 3.79821 7.67319 3.7357 7.7357C3.67319 7.79821 3.58841 7.83333 3.5 7.83333Z" fill="white"/>
  <path d="M8.83334 8.50033C8.5037 8.50033 8.18147 8.40258 7.90739 8.21944C7.63331 8.03631 7.41969 7.77601 7.29354 7.47147C7.16739 7.16692 7.13439 6.83181 7.1987 6.50851C7.26301 6.18521 7.42174 5.88824 7.65483 5.65515C7.88792 5.42206 8.18489 5.26333 8.50819 5.19902C8.83149 5.13471 9.1666 5.16771 9.47115 5.29386C9.77569 5.42001 10.036 5.63363 10.2191 5.90771C10.4023 6.18179 10.5 6.50402 10.5 6.83366C10.5 7.27569 10.3244 7.69961 10.0119 8.01217C9.69929 8.32473 9.27537 8.50033 8.83334 8.50033V8.50033ZM8.83334 5.83366C8.63556 5.83366 8.44222 5.89231 8.27777 6.00219C8.11332 6.11207 7.98515 6.26825 7.90946 6.45098C7.83377 6.6337 7.81397 6.83477 7.85255 7.02875C7.89114 7.22273 7.98638 7.40091 8.12623 7.54077C8.26608 7.68062 8.44427 7.77586 8.63825 7.81445C8.83223 7.85303 9.0333 7.83323 9.21602 7.75754C9.39875 7.68185 9.55493 7.55368 9.66481 7.38923C9.77469 7.22478 9.83334 7.03144 9.83334 6.83366C9.83334 6.56844 9.72798 6.31409 9.54045 6.12655C9.35291 5.93902 9.09856 5.83366 8.83334 5.83366V5.83366Z" fill="white"/>
</svg>