<svg xmlns="http://www.w3.org/2000/svg" width="21" height="16" viewBox="0 0 21 16" fill="none">
  <path d="M19.5 15.5H5.5C5.10218 15.5 4.72064 15.342 4.43934 15.0607C4.15804 14.7794 4 14.3978 4 14V6C4 5.60218 4.15804 5.22064 4.43934 4.93934C4.72064 4.65804 5.10218 4.5 5.5 4.5H19.5C19.8978 4.5 20.2794 4.65804 20.5607 4.93934C20.842 5.22064 21 5.60218 21 6V14C21 14.3978 20.842 14.7794 20.5607 15.0607C20.2794 15.342 19.8978 15.5 19.5 15.5ZM5.5 5.5C5.36739 5.5 5.24021 5.55268 5.14645 5.64645C5.05268 5.74021 5 5.86739 5 6V14C5 14.1326 5.05268 14.2598 5.14645 14.3536C5.24021 14.4473 5.36739 14.5 5.5 14.5H19.5C19.6326 14.5 19.7598 14.4473 19.8536 14.3536C19.9473 14.2598 20 14.1326 20 14V6C20 5.86739 19.9473 5.74021 19.8536 5.64645C19.7598 5.55268 19.6326 5.5 19.5 5.5H5.5Z" fill="#05253E"/>
  <path d="M4.5 11.5H1.5C1.10218 11.5 0.720644 11.342 0.43934 11.0607C0.158035 10.7794 0 10.3978 0 10V2C0 1.60218 0.158035 1.22064 0.43934 0.93934C0.720644 0.658035 1.10218 0.5 1.5 0.5H15.5C15.8978 0.5 16.2794 0.658035 16.5607 0.93934C16.842 1.22064 17 1.60218 17 2V5C17 5.13261 16.9473 5.25979 16.8536 5.35355C16.7598 5.44732 16.6326 5.5 16.5 5.5C16.3674 5.5 16.2402 5.44732 16.1464 5.35355C16.0527 5.25979 16 5.13261 16 5V2C16 1.86739 15.9473 1.74021 15.8536 1.64645C15.7598 1.55268 15.6326 1.5 15.5 1.5H1.5C1.36739 1.5 1.24021 1.55268 1.14645 1.64645C1.05268 1.74021 1 1.86739 1 2V10C1 10.1326 1.05268 10.2598 1.14645 10.3536C1.24021 10.4473 1.36739 10.5 1.5 10.5H4.5C4.63261 10.5 4.75979 10.5527 4.85355 10.6464C4.94732 10.7402 5 10.8674 5 11C5 11.1326 4.94732 11.2598 4.85355 11.3536C4.75979 11.4473 4.63261 11.5 4.5 11.5Z" fill="#05253E"/>
  <path d="M12.5 12.5C12.0055 12.5 11.5222 12.3534 11.1111 12.0787C10.7 11.804 10.3795 11.4135 10.1903 10.9567C10.0011 10.4999 9.95157 9.99723 10.048 9.51228C10.1445 9.02732 10.3826 8.58187 10.7322 8.23223C11.0819 7.8826 11.5273 7.6445 12.0123 7.54804C12.4972 7.45157 12.9999 7.50108 13.4567 7.6903C13.9135 7.87952 14.304 8.19995 14.5787 8.61108C14.8534 9.0222 15 9.50555 15 10C15 10.663 14.7366 11.2989 14.2678 11.7678C13.7989 12.2366 13.163 12.5 12.5 12.5ZM12.5 8.5C12.2033 8.5 11.9133 8.58797 11.6666 8.7528C11.42 8.91762 11.2277 9.15189 11.1142 9.42598C11.0007 9.70007 10.9709 10.0017 11.0288 10.2926C11.0867 10.5836 11.2296 10.8509 11.4393 11.0607C11.6491 11.2704 11.9164 11.4133 12.2074 11.4712C12.4983 11.5291 12.7999 11.4994 13.074 11.3858C13.3481 11.2723 13.5824 11.08 13.7472 10.8334C13.912 10.5867 14 10.2967 14 10C14 9.60218 13.842 9.22065 13.5607 8.93934C13.2794 8.65804 12.8978 8.5 12.5 8.5Z" fill="#05253E"/>
</svg>