<svg xmlns="http://www.w3.org/2000/svg" width="23" height="22" viewBox="0 0 23 22" fill="none">
  <path d="M7.08998 11.6196C7.02744 11.6338 6.96252 11.6338 6.89998 11.6196C6.77956 11.5663 6.68331 11.47 6.62998 11.3496C6.61581 11.2871 6.61581 11.2222 6.62998 11.1596C6.63031 11.0245 6.68426 10.895 6.77998 10.7996C6.82545 10.7551 6.88004 10.721 6.93998 10.6996C7.06171 10.6496 7.19825 10.6496 7.31998 10.6996C7.37992 10.721 7.4345 10.7551 7.47998 10.7996C7.52908 10.8472 7.5667 10.9053 7.58998 10.9696C7.60486 11.0321 7.60486 11.0972 7.58998 11.1596C7.60415 11.2222 7.60415 11.2871 7.58998 11.3496C7.53665 11.47 7.4404 11.5663 7.31998 11.6196C7.24488 11.6416 7.16508 11.6416 7.08998 11.6196Z" fill="#05253E"/>
  <path d="M11.5 11.4902C11.4371 11.5007 11.3729 11.5007 11.31 11.4902C11.2464 11.4656 11.1886 11.4281 11.14 11.3802C11.0977 11.331 11.0609 11.2774 11.03 11.2202C11.0204 11.1573 11.0204 11.0932 11.03 11.0302C11.0307 10.8971 11.0805 10.7689 11.17 10.6702C11.2191 10.6255 11.277 10.5915 11.34 10.5702C11.4297 10.5311 11.5291 10.5197 11.6253 10.5375C11.7216 10.5553 11.8103 10.6016 11.88 10.6702C11.9723 10.7679 12.0257 10.896 12.03 11.0302C12.0393 11.0932 12.0393 11.1573 12.03 11.2202C12.0028 11.2795 11.9655 11.3336 11.92 11.3802C11.8624 11.4284 11.7949 11.4632 11.7223 11.4822C11.6497 11.5012 11.5738 11.5039 11.5 11.4902Z" fill="#05253E"/>
  <path d="M11.61 7.10034C11.4819 7.1109 11.3543 7.07545 11.25 7.00034C11.1577 6.90269 11.1044 6.77463 11.1 6.64034C11.1021 6.55807 11.1241 6.47754 11.1642 6.40562C11.2042 6.33371 11.261 6.27254 11.3298 6.22735C11.3985 6.18215 11.4772 6.15427 11.5591 6.14608C11.641 6.1379 11.7236 6.14965 11.8 6.18034C11.8606 6.2052 11.9151 6.2427 11.96 6.29034C12.0533 6.38326 12.1071 6.50868 12.11 6.64034C12.1057 6.77463 12.0523 6.90269 11.96 7.00034C11.8635 7.08678 11.7395 7.13636 11.61 7.14034V7.10034Z" fill="#05253E"/>
  <path d="M11.33 15.8596C11.2674 15.8738 11.2025 15.8738 11.14 15.8596C11.0788 15.836 11.024 15.7983 10.98 15.7496C10.9321 15.7048 10.894 15.6505 10.868 15.5903C10.8419 15.5301 10.8285 15.4652 10.8285 15.3996C10.8285 15.334 10.8419 15.2691 10.868 15.209C10.894 15.1488 10.9321 15.0945 10.98 15.0496C11.024 15.001 11.0788 14.9633 11.14 14.9396C11.2324 14.9022 11.3337 14.8927 11.4315 14.9122C11.5292 14.9318 11.6191 14.9796 11.69 15.0496C11.7793 15.1443 11.829 15.2695 11.829 15.3996C11.829 15.5298 11.7793 15.655 11.69 15.7496C11.6402 15.7908 11.5827 15.8217 11.521 15.8406C11.4592 15.8595 11.3943 15.8659 11.33 15.8596Z" fill="#05253E"/>
  <path d="M15.85 11.3502C15.7871 11.3606 15.7229 11.3606 15.66 11.3502C15.5953 11.3138 15.5404 11.2624 15.5 11.2002C15.4513 11.1562 15.4137 11.1014 15.39 11.0402C15.3758 10.9776 15.3758 10.9127 15.39 10.8502C15.3759 10.7843 15.3759 10.7161 15.39 10.6502C15.4137 10.589 15.4513 10.5342 15.5 10.4902C15.5474 10.4456 15.6014 10.4085 15.66 10.3802C15.7511 10.3449 15.8504 10.3365 15.9461 10.356C16.0419 10.3755 16.13 10.4221 16.2 10.4902C16.2455 10.5368 16.2827 10.591 16.31 10.6502C16.3194 10.7165 16.3194 10.7839 16.31 10.8502C16.3193 10.9132 16.3193 10.9772 16.31 11.0402C16.2827 11.0994 16.2455 11.1535 16.2 11.2002C16.1071 11.2935 15.9816 11.3472 15.85 11.3502Z" fill="#05253E"/>
  <path d="M11.5 21.59C11.0411 21.5951 10.5857 21.5093 10.1601 21.3377C9.73449 21.1661 9.34701 20.912 9.01999 20.59L1.91999 13.49C1.58861 13.1634 1.32547 12.7742 1.14586 12.345C0.966244 11.9159 0.873749 11.4552 0.873749 10.99C0.873749 10.5247 0.966244 10.0641 1.14586 9.63494C1.32547 9.20576 1.58861 8.81656 1.91999 8.48999L9.01999 1.38999C9.34656 1.05862 9.73576 0.795471 10.1649 0.615858C10.5941 0.436246 11.0547 0.34375 11.52 0.34375C11.9852 0.34375 12.4459 0.436246 12.875 0.615858C13.3042 0.795471 13.6934 1.05862 14.02 1.38999L21.13 8.48999C21.4614 8.81656 21.7245 9.20576 21.9041 9.63494C22.0837 10.0641 22.1762 10.5247 22.1762 10.99C22.1762 11.4552 22.0837 11.9159 21.9041 12.345C21.7245 12.7742 21.4614 13.1634 21.13 13.49L14.02 20.59C13.6896 20.9187 13.2959 21.1768 12.8627 21.3487C12.4295 21.5206 11.9659 21.6027 11.5 21.59ZM11.5 1.38999C11.1714 1.38886 10.8458 1.45278 10.542 1.57807C10.2382 1.70336 9.96226 1.88754 9.72999 2.11999L2.62999 9.21999C2.16464 9.69158 1.90373 10.3275 1.90373 10.99C1.90373 11.6525 2.16464 12.2884 2.62999 12.76L9.72999 19.86C10.2016 20.3253 10.8375 20.5863 11.5 20.5863C12.1625 20.5863 12.7984 20.3253 13.27 19.86L20.37 12.76C20.8378 12.2897 21.1003 11.6533 21.1003 10.99C21.1003 10.3267 20.8378 9.69031 20.37 9.21999L13.27 2.11999C13.0377 1.88754 12.7617 1.70336 12.458 1.57807C12.1542 1.45278 11.8286 1.38886 11.5 1.38999Z" fill="#05253E"/>
</svg>