<svg xmlns="http://www.w3.org/2000/svg" width="18" height="14" viewBox="0 0 18 14" fill="none">
  <path d="M14 13.4582H4C3.1712 13.4582 2.37634 13.1289 1.79029 12.5429C1.20424 11.9568 0.875 11.162 0.875 10.3332V3.6665C0.875 2.8377 1.20424 2.04285 1.79029 1.4568C2.37634 0.870744 3.1712 0.541504 4 0.541504H14C14.8288 0.541504 15.6237 0.870744 16.2097 1.4568C16.7958 2.04285 17.125 2.8377 17.125 3.6665V10.3332C17.125 11.162 16.7958 11.9568 16.2097 12.5429C15.6237 13.1289 14.8288 13.4582 14 13.4582ZM4 1.7915C3.50272 1.7915 3.02581 1.98905 2.67417 2.34068C2.32254 2.69231 2.125 3.16922 2.125 3.6665V10.3332C2.125 10.8305 2.32254 11.3074 2.67417 11.659C3.02581 12.0106 3.50272 12.2082 4 12.2082H14C14.4973 12.2082 14.9742 12.0106 15.3258 11.659C15.6775 11.3074 15.875 10.8305 15.875 10.3332V3.6665C15.875 3.16922 15.6775 2.69231 15.3258 2.34068C14.9742 1.98905 14.4973 1.7915 14 1.7915H4Z" fill="#05253E"/>
  <path d="M9.00111 9.35831C8.93499 9.37034 8.86723 9.37034 8.80111 9.35831L1.30111 6.79164C1.15 6.73413 1.02707 6.62029 0.958119 6.47405C0.889171 6.32781 0.879576 6.16054 0.93135 6.00738C0.983124 5.85421 1.09224 5.72707 1.23577 5.65266C1.37931 5.57824 1.5461 5.56234 1.70111 5.60831L9.00944 8.10831L16.3094 5.74164C16.4675 5.69201 16.6387 5.70714 16.7856 5.7837C16.9325 5.86027 17.043 5.992 17.0928 6.14997C17.1187 6.22764 17.1288 6.30969 17.1227 6.39133C17.1166 6.47297 17.0942 6.55257 17.057 6.62549C17.0197 6.69841 16.9684 6.76318 16.9058 6.81603C16.8433 6.86888 16.7709 6.90874 16.6928 6.93331L9.19277 9.36664C9.1288 9.37257 9.06432 9.36976 9.00111 9.35831V9.35831Z" fill="#05253E"/>
</svg>