<svg xmlns="http://www.w3.org/2000/svg" width="24" height="24" viewBox="0 0 24 24" fill="none">
  <path d="M21.4999 6.5H16.5C16.3011 6.5 16.1103 6.42098 15.9697 6.28033C15.829 6.13968 15.75 5.94891 15.75 5.75C15.75 5.55109 15.829 5.36032 15.9697 5.21967C16.1103 5.07902 16.3011 5 16.5 5H21.4999C21.6989 5 21.8896 5.07902 22.0303 5.21967C22.1709 5.36032 22.2499 5.55109 22.2499 5.75C22.2499 5.94891 22.1709 6.13968 22.0303 6.28033C21.8896 6.42098 21.6989 6.5 21.4999 6.5Z" fill="white"/>
  <path d="M11.5 6.5H2.5C2.30109 6.5 2.11032 6.42098 1.96967 6.28033C1.82902 6.13968 1.75 5.94891 1.75 5.75C1.75 5.55109 1.82902 5.36032 1.96967 5.21967C2.11032 5.07902 2.30109 5 2.5 5H11.5C11.6989 5 11.8897 5.07902 12.0303 5.21967C12.171 5.36032 12.25 5.55109 12.25 5.75C12.25 5.94891 12.171 6.13968 12.0303 6.28033C11.8897 6.42098 11.6989 6.5 11.5 6.5Z" fill="white"/>
  <path d="M4.75 13.5H2.25C2.05109 13.5 1.86032 13.421 1.71967 13.2803C1.57902 13.1397 1.5 12.9489 1.5 12.75C1.5 12.5511 1.57902 12.3603 1.71967 12.2197C1.86032 12.079 2.05109 12 2.25 12L4.75 12C4.94891 12 5.13968 12.079 5.28033 12.2197C5.42098 12.3603 5.5 12.5511 5.5 12.75C5.5 12.9489 5.42098 13.1397 5.28033 13.2803C5.13968 13.421 4.94891 13.5 4.75 13.5Z" fill="white"/>
  <path d="M21.25 13.5H9.5C9.30109 13.5 9.11032 13.421 8.96967 13.2803C8.82902 13.1397 8.75 12.9489 8.75 12.75C8.75 12.5511 8.82902 12.3603 8.96967 12.2197C9.11032 12.079 9.30109 12 9.5 12H21.25C21.4489 12 21.6397 12.079 21.7803 12.2197C21.921 12.3603 22 12.5511 22 12.75C22 12.9489 21.921 13.1397 21.7803 13.2803C21.6397 13.421 21.4489 13.5 21.25 13.5Z" fill="white"/>
  <path d="M9.5 19.5H2.5C2.30109 19.5 2.11032 19.421 1.96967 19.2803C1.82902 19.1397 1.75 18.9489 1.75 18.75C1.75 18.5511 1.82902 18.3603 1.96967 18.2197C2.11032 18.079 2.30109 18 2.5 18H9.5C9.69891 18 9.88968 18.079 10.0303 18.2197C10.171 18.3603 10.25 18.5511 10.25 18.75C10.25 18.9489 10.171 19.1397 10.0303 19.2803C9.88968 19.421 9.69891 19.5 9.5 19.5Z" fill="white"/>
  <path d="M21.25 19.5H14.25C14.0511 19.5 13.8603 19.421 13.7197 19.2803C13.579 19.1397 13.5 18.9489 13.5 18.75C13.5 18.5511 13.579 18.3603 13.7197 18.2197C13.8603 18.079 14.0511 18 14.25 18H21.25C21.4489 18 21.6397 18.079 21.7803 18.2197C21.921 18.3603 22 18.5511 22 18.75C22 18.9489 21.921 19.1397 21.7803 19.2803C21.6397 19.421 21.4489 19.5 21.25 19.5Z" fill="white"/>
  <circle cx="12" cy="18.5" r="1.9" stroke="white" stroke-width="1.2"/>
  <circle cx="7" cy="12.5" r="1.9" stroke="white" stroke-width="1.2"/>
  <circle cx="14" cy="5.5" r="1.9" stroke="white" stroke-width="1.2"/>
</svg>