<svg xmlns="http://www.w3.org/2000/svg" width="21" height="20" viewBox="0 0 21 20" fill="none">
  <path d="M5.5 19.5C4.83696 19.5 4.20107 19.2366 3.73223 18.7678C3.26339 18.2989 3 17.663 3 17V13C3 12.337 3.26339 11.7011 3.73223 11.2322C4.20107 10.7634 4.83696 10.5 5.5 10.5C6.16304 10.5 6.79893 10.7634 7.26777 11.2322C7.73661 11.7011 8 12.337 8 13V17C8 17.663 7.73661 18.2989 7.26777 18.7678C6.79893 19.2366 6.16304 19.5 5.5 19.5ZM5.5 11.5C5.10218 11.5 4.72064 11.658 4.43934 11.9393C4.15804 12.2206 4 12.6022 4 13V17C4 17.3978 4.15804 17.7794 4.43934 18.0607C4.72064 18.342 5.10218 18.5 5.5 18.5C5.89782 18.5 6.27936 18.342 6.56066 18.0607C6.84196 17.7794 7 17.3978 7 17V13C7 12.6022 6.84196 12.2206 6.56066 11.9393C6.27936 11.658 5.89782 11.5 5.5 11.5Z" fill="#05253E"/>
  <path d="M15.5 19.5C14.837 19.5 14.2011 19.2366 13.7322 18.7678C13.2634 18.2989 13 17.663 13 17V13C13 12.337 13.2634 11.7011 13.7322 11.2322C14.2011 10.7634 14.837 10.5 15.5 10.5C16.163 10.5 16.7989 10.7634 17.2678 11.2322C17.7366 11.7011 18 12.337 18 13V17C18 17.663 17.7366 18.2989 17.2678 18.7678C16.7989 19.2366 16.163 19.5 15.5 19.5ZM15.5 11.5C15.1022 11.5 14.7206 11.658 14.4393 11.9393C14.158 12.2206 14 12.6022 14 13V17C14 17.3978 14.158 17.7794 14.4393 18.0607C14.7206 18.342 15.1022 18.5 15.5 18.5C15.8978 18.5 16.2794 18.342 16.5607 18.0607C16.842 17.7794 17 17.3978 17 17V13C17 12.6022 16.842 12.2206 16.5607 11.9393C16.2794 11.658 15.8978 11.5 15.5 11.5Z" fill="#05253E"/>
  <path d="M20.5 15.5C20.3674 15.5 20.2402 15.4473 20.1464 15.3536C20.0527 15.2598 20 15.1326 20 15V11C20 8.48044 18.9991 6.06408 17.2175 4.28249C15.4359 2.50089 13.0196 1.5 10.5 1.5C7.98044 1.5 5.56408 2.50089 3.78249 4.28249C2.00089 6.06408 1 8.48044 1 11V15C1 15.1326 0.947321 15.2598 0.853553 15.3536C0.759785 15.4473 0.632608 15.5 0.5 15.5C0.367392 15.5 0.240215 15.4473 0.146447 15.3536C0.0526784 15.2598 0 15.1326 0 15V11C0 8.21523 1.10625 5.54451 3.07538 3.57538C5.04451 1.60625 7.71523 0.5 10.5 0.5C13.2848 0.5 15.9555 1.60625 17.9246 3.57538C19.8938 5.54451 21 8.21523 21 11V15C21 15.1326 20.9473 15.2598 20.8536 15.3536C20.7598 15.4473 20.6326 15.5 20.5 15.5Z" fill="#05253E"/>
</svg>