<svg xmlns="http://www.w3.org/2000/svg" width="21" height="19" viewBox="0 0 21 19" fill="none">
  <path d="M11.99 12.6896H2.50001C1.8997 12.6896 1.32383 12.4518 0.898404 12.0283C0.472983 11.6047 0.232656 11.0299 0.230011 10.4296V3.10961C0.232656 2.5093 0.472983 1.93448 0.898404 1.51094C1.32383 1.08739 1.8997 0.849604 2.50001 0.849609H14.5C15.1003 0.849604 15.6762 1.08739 16.1016 1.51094C16.527 1.93448 16.7674 2.5093 16.77 3.10961V4.24961C16.77 4.38222 16.7173 4.50939 16.6236 4.60316C16.5298 4.69693 16.4026 4.74961 16.27 4.74961C16.1382 4.74705 16.0125 4.69355 15.9193 4.60033C15.8261 4.50711 15.7726 4.38142 15.77 4.24961V3.10961C15.77 2.9433 15.7371 2.77863 15.6732 2.62511C15.6092 2.47158 15.5155 2.33223 15.3974 2.2151C15.2794 2.09797 15.1393 2.00537 14.9853 1.94264C14.8312 1.87991 14.6663 1.84829 14.5 1.84961H2.50001C2.16757 1.85225 1.84965 1.98616 1.61551 2.22217C1.38138 2.45818 1.25 2.77716 1.25001 3.10961V10.4296C1.25258 10.7613 1.38479 11.0788 1.61838 11.3142C1.85196 11.5497 2.16839 11.6844 2.50001 11.6896H11.97C12.1026 11.6896 12.2298 11.7423 12.3236 11.8361C12.4173 11.9298 12.47 12.057 12.47 12.1896C12.4701 12.3188 12.4202 12.4431 12.3307 12.5363C12.2412 12.6295 12.1191 12.6844 11.99 12.6896Z" fill="#05253E"/>
  <path d="M8.5 15.7795C8.36739 15.7795 8.24021 15.7268 8.14645 15.633C8.05268 15.5392 8 15.4121 8 15.2795V12.1895C8 12.0568 8.05268 11.9297 8.14645 11.8359C8.24021 11.7421 8.36739 11.6895 8.5 11.6895C8.63261 11.6895 8.75979 11.7421 8.85355 11.8359C8.94732 11.9297 9 12.0568 9 12.1895V15.2795C9 15.4121 8.94732 15.5392 8.85355 15.633C8.75979 15.7268 8.63261 15.7795 8.5 15.7795Z" fill="#05253E"/>
  <path d="M11.99 15.79H3.85001C3.7182 15.7875 3.5925 15.734 3.49929 15.6408C3.40607 15.5475 3.35257 15.4218 3.35001 15.29C3.35001 15.1574 3.40268 15.0303 3.49645 14.9365C3.59022 14.8427 3.7174 14.79 3.85001 14.79H11.99C12.1226 14.79 12.2498 14.8427 12.3436 14.9365C12.4373 15.0303 12.49 15.1574 12.49 15.29C12.49 15.4226 12.4373 15.5498 12.3436 15.6436C12.2498 15.7374 12.1226 15.79 11.99 15.79Z" fill="#05253E"/>
  <path d="M18.03 18.4993H14.21C13.4921 18.4966 12.8043 18.2103 12.2967 17.7026C11.789 17.195 11.5026 16.5072 11.5 15.7893V6.45926C11.5 5.73787 11.7866 5.04603 12.2967 4.53593C12.8068 4.02583 13.4986 3.73926 14.22 3.73926H18.04C18.7614 3.73926 19.4532 4.02583 19.9633 4.53593C20.4734 5.04603 20.76 5.73787 20.76 6.45926V15.7893C20.7587 16.1465 20.687 16.4999 20.5491 16.8294C20.4112 17.1589 20.2098 17.458 19.9563 17.7097C19.7028 17.9613 19.4022 18.1606 19.0717 18.296C18.7412 18.4315 18.3872 18.5006 18.03 18.4993ZM14.21 4.73926C13.7556 4.7419 13.3206 4.92428 13.0002 5.24656C12.6798 5.56883 12.5 6.00481 12.5 6.45926V15.7893C12.5026 16.2437 12.685 16.6786 13.0073 16.999C13.3296 17.3194 13.7656 17.4993 14.22 17.4993H18.04C18.4944 17.4993 18.9304 17.3194 19.2527 16.999C19.575 16.6786 19.7574 16.2437 19.76 15.7893V6.45926C19.76 6.00309 19.5788 5.5656 19.2562 5.24303C18.9337 4.92047 18.4962 4.73926 18.04 4.73926H14.21Z" fill="#05253E"/>
  <path d="M16.12 16.4296C15.9896 16.4304 15.8639 16.3802 15.77 16.2896C15.7217 16.2431 15.6835 16.1871 15.6577 16.1252C15.6319 16.0633 15.619 15.9967 15.62 15.9296C15.6192 15.864 15.6321 15.799 15.658 15.7387C15.6838 15.6785 15.722 15.6243 15.77 15.5796C15.8386 15.5092 15.9268 15.4611 16.0231 15.4415C16.1194 15.4219 16.2194 15.4317 16.31 15.4696C16.3686 15.4979 16.4226 15.535 16.47 15.5796C16.5181 15.6243 16.5562 15.6785 16.582 15.7387C16.6079 15.799 16.6208 15.864 16.62 15.9296C16.621 15.9967 16.6082 16.0633 16.5824 16.1252C16.5566 16.1871 16.5183 16.2431 16.47 16.2896C16.4226 16.3342 16.3686 16.3713 16.31 16.3996C16.2488 16.4201 16.1846 16.4303 16.12 16.4296Z" fill="#05253E"/>
</svg>