<svg xmlns="http://www.w3.org/2000/svg" width="15" height="13" viewBox="0 0 15 13" fill="none">
  <path d="M11.7867 10.0534H3.21334C2.55207 10.0534 1.91788 9.79068 1.45029 9.32309C0.982696 8.85549 0.720006 8.22131 0.720006 7.56003V2.89337C0.716485 2.56338 0.778329 2.23597 0.901971 1.93001C1.02561 1.62405 1.20861 1.34559 1.4404 1.1107C1.67219 0.875811 1.94819 0.689136 2.25248 0.561441C2.55678 0.433747 2.88334 0.36756 3.21334 0.366699H11.7867C12.4474 0.368459 13.0806 0.631714 13.5478 1.09892C14.015 1.56613 14.2782 2.1993 14.28 2.86003V7.56003C14.28 7.88746 14.2155 8.21169 14.0902 8.51419C13.9649 8.8167 13.7813 9.09156 13.5497 9.32309C13.3182 9.55461 13.0433 9.73827 12.7408 9.86357C12.4383 9.98887 12.1141 10.0534 11.7867 10.0534V10.0534ZM3.21334 1.03337C2.72888 1.03337 2.26426 1.22582 1.92169 1.56838C1.57912 1.91095 1.38667 2.37557 1.38667 2.86003V7.56003C1.38667 8.04449 1.57912 8.50911 1.92169 8.85168C2.26426 9.19425 2.72888 9.3867 3.21334 9.3867H11.7867C12.2711 9.3867 12.7358 9.19425 13.0783 8.85168C13.4209 8.50911 13.6133 8.04449 13.6133 7.56003V2.89337C13.6178 2.65069 13.5738 2.40957 13.484 2.18409C13.3942 1.95861 13.2603 1.75328 13.0903 1.58012C12.9202 1.40695 12.7173 1.26941 12.4935 1.17553C12.2697 1.08166 12.0294 1.03333 11.7867 1.03337H3.21334Z" fill="#05253E"/>
  <path d="M13.9467 7.52018H1.05333C0.965463 7.51848 0.881667 7.48281 0.819521 7.42066C0.757375 7.35852 0.721708 7.27472 0.720001 7.18685C0.720001 7.09844 0.75512 7.01366 0.817632 6.95115C0.880144 6.88863 0.964929 6.85352 1.05333 6.85352H13.9467C14.0351 6.85352 14.1199 6.88863 14.1824 6.95115C14.2449 7.01366 14.28 7.09844 14.28 7.18685C14.28 7.27525 14.2449 7.36004 14.1824 7.42255C14.1199 7.48506 14.0351 7.52018 13.9467 7.52018Z" fill="#05253E"/>
  <path d="M7.50001 12.6334C7.4116 12.6334 7.32681 12.5983 7.2643 12.5358C7.20179 12.4732 7.16667 12.3885 7.16667 12.3001V9.72005C7.16667 9.63165 7.20179 9.54686 7.2643 9.48435C7.32681 9.42184 7.4116 9.38672 7.50001 9.38672C7.58841 9.38672 7.6732 9.42184 7.73571 9.48435C7.79822 9.54686 7.83334 9.63165 7.83334 9.72005V12.3001C7.83334 12.3885 7.79822 12.4732 7.73571 12.5358C7.6732 12.5983 7.58841 12.6334 7.50001 12.6334Z" fill="#05253E"/>
  <path d="M11.3667 12.6335H3.63334C3.54493 12.6335 3.46015 12.5983 3.39763 12.5358C3.33512 12.4733 3.3 12.3885 3.3 12.3001C3.3 12.2117 3.33512 12.1269 3.39763 12.0644C3.46015 12.0019 3.54493 11.9668 3.63334 11.9668H11.3667C11.4551 11.9668 11.5399 12.0019 11.6024 12.0644C11.6649 12.1269 11.7 12.2117 11.7 12.3001C11.7 12.3885 11.6649 12.4733 11.6024 12.5358C11.5399 12.5983 11.4551 12.6335 11.3667 12.6335Z" fill="#05253E"/>
</svg>