<svg xmlns="http://www.w3.org/2000/svg" width="38" height="32" viewBox="0 0 38 32" fill="none">
  <path d="M33.46 24.3995H4.54C4.33968 24.4049 4.14031 24.37 3.95368 24.297C3.76705 24.224 3.59694 24.1144 3.45339 23.9746C3.30983 23.8348 3.19575 23.6676 3.11788 23.4829C3.04001 23.2983 2.99993 23.0999 3 22.8995V3.77952C3.00262 3.31727 3.09626 2.86006 3.27558 2.43399C3.4549 2.00793 3.71639 1.62136 4.04511 1.29635C4.37383 0.971344 4.76335 0.714268 5.19142 0.539801C5.6195 0.365333 6.07774 0.276891 6.54 0.279525H31.44C31.9039 0.274245 32.3643 0.360733 32.7947 0.534014C33.2251 0.707294 33.617 0.96395 33.9478 1.28922C34.2787 1.61449 34.542 2.00195 34.7225 2.42933C34.9031 2.85671 34.9974 3.31557 35 3.77952V22.8995C35.0001 23.0999 34.96 23.2983 34.8821 23.4829C34.8042 23.6676 34.6902 23.8348 34.5466 23.9746C34.4031 24.1144 34.2329 24.224 34.0463 24.297C33.8597 24.37 33.6603 24.4049 33.46 24.3995V24.3995ZM6.04 21.3995H32.04V3.77952C32.0348 3.64511 31.9778 3.51793 31.8808 3.42469C31.7838 3.33146 31.6545 3.27943 31.52 3.27952H6.54C6.40739 3.27952 6.28021 3.3322 6.18645 3.42597C6.09268 3.51974 6.04 3.64692 6.04 3.77952V21.3995Z" fill="#00E589"/>
  <path d="M36.5 31.7194H1.5C1.10379 31.7142 0.725257 31.5545 0.445068 31.2743C0.164878 30.9942 0.00517993 30.6156 0 30.2194V22.8994C0.00517993 22.5032 0.164878 22.1247 0.445068 21.8445C0.725257 21.5643 1.10379 21.4046 1.5 21.3994H36.5C36.8962 21.4046 37.2747 21.5643 37.5549 21.8445C37.8351 22.1247 37.9948 22.5032 38 22.8994V30.2194C37.9948 30.6156 37.8351 30.9942 37.5549 31.2743C37.2747 31.5545 36.8962 31.7142 36.5 31.7194V31.7194ZM3 28.7194H35V24.3994H3V28.7194Z" fill="#00E589"/>
</svg>