<svg xmlns="http://www.w3.org/2000/svg" width="16" height="16" viewBox="0 0 16 16" fill="none">
  <path d="M7.90048 15.0752C6.73885 15.0669 5.59602 14.7812 4.56715 14.2419C4.42402 14.1639 4.31644 14.0339 4.26678 13.8786C4.21711 13.7234 4.22918 13.5551 4.30048 13.4085C4.37685 13.2639 4.5069 13.1549 4.6627 13.1051C4.8185 13.0552 4.98765 13.0684 5.13381 13.1419C6.33454 13.7593 7.70599 13.9615 9.03381 13.7169C10.0957 13.5073 11.0819 13.0163 11.8891 12.2952C12.6963 11.5741 13.295 10.6494 13.6225 9.6177C13.95 8.58604 13.9944 7.48533 13.751 6.43066C13.5075 5.37598 12.9852 4.40608 12.2386 3.62235C11.492 2.83863 10.5486 2.26986 9.50701 1.97552C8.46539 1.68118 7.36383 1.67207 6.31749 1.94916C5.27115 2.22624 4.31846 2.77933 3.55904 3.55061C2.79961 4.32189 2.26133 5.28303 2.00048 6.33353C1.62533 7.89232 1.87984 9.53617 2.70881 10.9085C2.78717 11.0477 2.80924 11.2117 2.77049 11.3667C2.73175 11.5216 2.63513 11.6559 2.50048 11.7419C2.36127 11.8202 2.19733 11.8423 2.04235 11.8035C1.88737 11.7648 1.75311 11.6682 1.66715 11.5335C1.05854 10.5272 0.702959 9.38839 0.63087 8.21458C0.55878 7.04077 0.772332 5.86697 1.25323 4.79376C1.73412 3.72056 2.46803 2.77993 3.39206 2.05247C4.31609 1.32501 5.40271 0.832407 6.55881 0.616863C8.46064 0.262136 10.4255 0.677434 12.0211 1.7714C13.6167 2.86536 14.7124 4.54837 15.0671 6.4502C15.4219 8.35202 15.0066 10.3169 13.9126 11.9125C12.8187 13.5081 11.1356 14.6038 9.23381 14.9585C8.7934 15.0346 8.3474 15.0736 7.90048 15.0752Z" fill="#05253E"/>
  <path d="M1.44216 15.4998C1.24238 15.5046 1.04464 15.4587 0.867375 15.3664C0.690115 15.2741 0.539113 15.1384 0.428452 14.972C0.317792 14.8056 0.251077 14.6139 0.234532 14.4147C0.217986 14.2156 0.252148 14.0155 0.333831 13.8331L1.60883 10.9831C1.64126 10.9063 1.6889 10.837 1.74888 10.7791C1.80886 10.7213 1.87994 10.6763 1.95782 10.6467C2.0357 10.6171 2.11877 10.6036 2.20202 10.607C2.28526 10.6104 2.36695 10.6306 2.44216 10.6664C2.59412 10.7356 2.71264 10.8619 2.77195 11.0179C2.83125 11.174 2.82653 11.3472 2.75883 11.4998L1.56716 14.2081L4.6255 13.1164C4.70416 13.0819 4.7891 13.064 4.875 13.0637C4.96091 13.0635 5.04594 13.081 5.12478 13.1151C5.20363 13.1492 5.2746 13.1992 5.33326 13.2619C5.39192 13.3247 5.43702 13.3989 5.46573 13.4799C5.49444 13.5608 5.50615 13.6468 5.50013 13.7325C5.49412 13.8182 5.47049 13.9018 5.43075 13.9779C5.391 14.0541 5.33598 14.1212 5.26912 14.1752C5.20226 14.2291 5.125 14.2687 5.04216 14.2914L1.83383 15.4331C1.70845 15.4791 1.5757 15.5017 1.44216 15.4998V15.4998Z" fill="#05253E"/>
  <path d="M10.332 6.95898H5.33203C5.16627 6.95898 5.0073 6.89314 4.89009 6.77593C4.77288 6.65872 4.70703 6.49974 4.70703 6.33398C4.70703 6.16822 4.77288 6.00925 4.89009 5.89204C5.0073 5.77483 5.16627 5.70898 5.33203 5.70898H10.332C10.4978 5.70898 10.6568 5.77483 10.774 5.89204C10.8912 6.00925 10.957 6.16822 10.957 6.33398C10.957 6.49974 10.8912 6.65872 10.774 6.77593C10.6568 6.89314 10.4978 6.95898 10.332 6.95898V6.95898Z" fill="#05253E"/>
  <path d="M10.332 10.292H5.33203C5.16627 10.292 5.0073 10.2261 4.89009 10.1089C4.77288 9.99172 4.70703 9.83275 4.70703 9.66699C4.70703 9.50123 4.77288 9.34226 4.89009 9.22505C5.0073 9.10784 5.16627 9.04199 5.33203 9.04199H10.332C10.4978 9.04199 10.6568 9.10784 10.774 9.22505C10.8912 9.34226 10.957 9.50123 10.957 9.66699C10.957 9.83275 10.8912 9.99172 10.774 10.1089C10.6568 10.2261 10.4978 10.292 10.332 10.292V10.292Z" fill="black"/>
</svg>