<svg xmlns="http://www.w3.org/2000/svg" width="26" height="40" viewBox="0 0 26 40" fill="none">
  <path d="M12.6391 19.6601C11.2507 19.6601 9.89347 19.2484 8.73904 18.477C7.58461 17.7057 6.68484 16.6093 6.15351 15.3266C5.62218 14.0438 5.48316 12.6323 5.75403 11.2706C6.0249 9.90884 6.69349 8.658 7.67526 7.67623C8.65702 6.69447 9.90786 6.02588 11.2696 5.75501C12.6314 5.48414 14.0428 5.62316 15.3256 6.15449C16.6083 6.68581 17.7047 7.58558 18.4761 8.74002C19.2474 9.89445 19.6591 11.2517 19.6591 12.6401C19.6539 14.5003 18.9126 16.2828 17.5972 17.5982C16.2818 18.9135 14.4993 19.6548 12.6391 19.6601V19.6601ZM12.6391 8.62012C11.848 8.62012 11.0747 8.85472 10.4169 9.29424C9.75907 9.73377 9.24638 10.3585 8.94363 11.0894C8.64088 11.8203 8.56166 12.6246 8.716 13.4005C8.87034 14.1764 9.25131 14.8891 9.81072 15.4485C10.3701 16.008 11.0829 16.3889 11.8588 16.5433C12.6347 16.6976 13.439 16.6184 14.1699 16.3156C14.9008 16.0129 15.5255 15.5002 15.965 14.8424C16.4045 14.1846 16.6391 13.4112 16.6391 12.6201C16.6391 11.5593 16.2177 10.5418 15.4676 9.79169C14.7174 9.04155 13.7 8.62012 12.6391 8.62012V8.62012Z" fill="#00E589"/>
  <path d="M23.9196 16.3802H23.6996C23.5044 16.3534 23.3164 16.2878 23.1468 16.1874C22.9772 16.0869 22.8294 15.9536 22.712 15.7953C22.5947 15.6369 22.5101 15.4567 22.4633 15.2652C22.4166 15.0737 22.4085 14.8749 22.4396 14.6802V14.3802V13.9002C22.4572 13.7206 22.4572 13.5398 22.4396 13.3602C22.4396 12.8202 22.4396 12.5402 22.4396 12.5402C22.3144 10.057 21.2365 7.71764 19.4301 6.009C17.6238 4.30037 15.2282 3.35404 12.7418 3.36692C10.2555 3.3798 7.86981 4.35091 6.08129 6.07817C4.29277 7.80543 3.23914 10.1558 3.13963 12.6402C3.13963 12.6402 3.13963 12.9002 3.13963 13.2802C3.12403 13.4599 3.12403 13.6406 3.13963 13.8202C3.13963 14.0402 3.13963 14.2002 3.13963 14.3802V14.6802C3.17777 15.062 3.06819 15.4438 2.83341 15.7473C2.59863 16.0507 2.25651 16.2526 1.87741 16.3115C1.4983 16.3705 1.11104 16.2819 0.795245 16.064C0.479455 15.8461 0.259149 15.5155 0.179635 15.1402V14.4202C0.143247 14.0678 0.143247 13.7126 0.179635 13.3602V12.7802C0.171756 11.1203 0.490896 9.47511 1.11884 7.93854C1.74678 6.40196 2.67122 5.00412 3.83938 3.82482C5.00754 2.64551 6.39654 1.70784 7.92708 1.06534C9.45762 0.422845 11.0997 0.0880999 12.7596 0.0802205C14.4195 0.0723412 16.0647 0.391482 17.6013 1.01942C19.1379 1.64736 20.5357 2.5718 21.715 3.73996C22.8943 4.90813 23.832 6.29713 24.4745 7.82767C25.117 9.35821 25.4518 11.0003 25.4596 12.6602C25.4596 12.8202 25.4596 13.0402 25.4596 13.4202C25.4582 13.7835 25.418 14.1455 25.3396 14.5002V15.1402C25.2804 15.4781 25.1072 15.7855 24.8488 16.0112C24.5904 16.2368 24.2624 16.3671 23.9196 16.3802Z" fill="#00E589"/>
  <path d="M13 39.9999C12.8029 40.0008 12.6076 39.9624 12.4256 39.8869C12.2435 39.8113 12.0784 39.7001 11.94 39.5599C1.19996 28.8199 0.399958 13.3599 0.359958 12.6999C0.348978 12.3034 0.493429 11.9183 0.762474 11.6269C1.03152 11.3354 1.40384 11.1606 1.79996 11.1399C1.99698 11.1319 2.19365 11.1628 2.37872 11.2308C2.5638 11.2989 2.73364 11.4027 2.87853 11.5365C3.02342 11.6702 3.14052 11.8312 3.22313 12.0103C3.30574 12.1893 3.35223 12.3829 3.35996 12.5799C3.35996 12.7199 4.15996 27.5399 14.06 37.4399C14.3409 37.7212 14.4986 38.1024 14.4986 38.4999C14.4986 38.8974 14.3409 39.2787 14.06 39.5599C13.9215 39.7001 13.7564 39.8113 13.5743 39.8869C13.3923 39.9624 13.197 40.0008 13 39.9999V39.9999Z" fill="#00E589"/>
  <path d="M12.9987 39.9999C12.8016 40.0008 12.6063 39.9624 12.4243 39.8869C12.2423 39.8113 12.0772 39.7001 11.9387 39.5599C11.6578 39.2787 11.5 38.8974 11.5 38.4999C11.5 38.1024 11.6578 37.7212 11.9387 37.4399C21.9387 27.4399 22.6187 12.7199 22.6387 12.5799C22.6464 12.3829 22.6929 12.1893 22.7755 12.0103C22.8581 11.8312 22.9752 11.6702 23.1201 11.5365C23.265 11.4027 23.4348 11.2989 23.6199 11.2308C23.805 11.1628 24.0017 11.1319 24.1987 11.1399C24.5948 11.1606 24.9671 11.3354 25.2362 11.6269C25.5052 11.9183 25.6497 12.3034 25.6387 12.6999C25.6387 13.3599 24.7987 28.8199 14.0587 39.5599C13.9202 39.7001 13.7551 39.8113 13.5731 39.8869C13.391 39.9624 13.1958 40.0008 12.9987 39.9999V39.9999Z" fill="#00E589"/>
</svg>