<svg xmlns="http://www.w3.org/2000/svg" width="14" height="20" viewBox="0 0 14 20" fill="none">
  <path d="M6.82006 9.83006C6.12585 9.83006 5.44723 9.6242 4.87001 9.23852C4.29279 8.85284 3.84291 8.30465 3.57724 7.66328C3.31158 7.02191 3.24207 6.31617 3.3775 5.63529C3.51294 4.95442 3.84723 4.329 4.33812 3.83812C4.829 3.34723 5.45442 3.01294 6.13529 2.8775C6.81617 2.74207 7.52191 2.81158 8.16328 3.07724C8.80465 3.34291 9.35284 3.79279 9.73852 4.37001C10.1242 4.94723 10.3301 5.62585 10.3301 6.32006C10.3274 7.25016 9.95677 8.14141 9.29909 8.79909C8.64141 9.45677 7.75016 9.82742 6.82006 9.83006ZM6.82006 4.31006C6.4245 4.31006 6.03782 4.42736 5.70892 4.64712C5.38002 4.86688 5.12368 5.17924 4.9723 5.54469C4.82093 5.91015 4.78132 6.31228 4.85849 6.70024C4.93566 7.0882 5.12614 7.44457 5.40585 7.72427C5.68555 8.00398 6.04192 8.19446 6.42988 8.27163C6.81784 8.3488 7.21998 8.30919 7.58543 8.15782C7.95088 8.00644 8.26324 7.7501 8.483 7.4212C8.70276 7.0923 8.82006 6.70562 8.82006 6.31006C8.82006 5.77963 8.60935 5.27092 8.23427 4.89585C7.8592 4.52077 7.35049 4.31006 6.82006 4.31006Z" fill="#05253E"/>
  <path d="M12.4598 8.19011H12.3498C12.2522 8.1767 12.1582 8.14392 12.0734 8.09369C11.9886 8.04347 11.9147 7.97681 11.856 7.89763C11.7973 7.81845 11.7551 7.72835 11.7317 7.63261C11.7083 7.53687 11.7042 7.43743 11.7198 7.34011V7.19011V6.95011C11.7286 6.86032 11.7286 6.7699 11.7198 6.68011C11.7198 6.41011 11.7198 6.27011 11.7198 6.27011C11.6572 5.02848 11.1182 3.85882 10.2151 3.0045C9.31191 2.15019 8.11411 1.67702 6.87092 1.68346C5.62774 1.6899 4.43491 2.17546 3.54065 3.03908C2.64638 3.90271 2.11957 5.0779 2.06982 6.32011C2.06982 6.32011 2.06982 6.45011 2.06982 6.64011C2.06201 6.72994 2.06201 6.82028 2.06982 6.91011C2.06982 7.02011 2.06982 7.10011 2.06982 7.19011V7.34011C2.08889 7.53099 2.03409 7.72192 1.9167 7.87363C1.79932 8.02535 1.62826 8.12632 1.4387 8.15577C1.24915 8.18523 1.05552 8.14094 0.897623 8.032C0.739727 7.92307 0.629575 7.75777 0.589817 7.57011V7.21011C0.571623 7.03391 0.571623 6.85631 0.589817 6.68011V6.39011C0.585878 5.56016 0.745448 4.73755 1.05942 3.96927C1.37339 3.20098 1.83561 2.50206 2.41969 1.91241C3.00377 1.32276 3.69827 0.853922 4.46354 0.532672C5.22881 0.211423 6.04986 0.0440499 6.87982 0.0401103C7.70977 0.0361706 8.53237 0.195741 9.30066 0.509711C10.0689 0.823681 10.7679 1.2859 11.3575 1.86998C11.9472 2.45406 12.416 3.14856 12.7373 3.91383C13.0585 4.6791 13.2259 5.50016 13.2298 6.33011C13.2298 6.41011 13.2298 6.52011 13.2298 6.71011C13.2291 6.89173 13.209 7.07276 13.1698 7.25011V7.57011C13.1402 7.73906 13.0536 7.89276 12.9244 8.00559C12.7952 8.11841 12.6312 8.18354 12.4598 8.19011Z" fill="#05253E"/>
  <path d="M6.99998 20C6.90144 20.0004 6.8038 19.9812 6.71279 19.9434C6.62177 19.9056 6.53922 19.8501 6.46998 19.78C1.09998 14.41 0.699979 6.67996 0.679979 6.34996C0.674489 6.15171 0.746715 5.95916 0.881237 5.81343C1.01576 5.6677 1.20192 5.58032 1.39998 5.56996C1.49849 5.56594 1.59683 5.58138 1.68936 5.6154C1.7819 5.64943 1.86682 5.70136 1.93927 5.76823C2.01171 5.83511 2.07026 5.91561 2.11157 6.00513C2.15287 6.09465 2.17612 6.19144 2.17998 6.28996C2.17998 6.35996 2.57998 13.77 7.52998 18.72C7.67043 18.8606 7.74932 19.0512 7.74932 19.25C7.74932 19.4487 7.67043 19.6393 7.52998 19.78C7.46073 19.8501 7.37818 19.9056 7.28717 19.9434C7.19616 19.9812 7.09852 20.0004 6.99998 20Z" fill="#05253E"/>
  <path d="M6.99983 20C6.90129 20.0004 6.80365 19.9812 6.71264 19.9434C6.62162 19.9056 6.53907 19.8501 6.46983 19.78C6.32938 19.6393 6.25049 19.4487 6.25049 19.25C6.25049 19.0512 6.32938 18.8606 6.46983 18.72C11.4698 13.72 11.8098 6.35996 11.8198 6.28996C11.8237 6.19144 11.8469 6.09465 11.8882 6.00513C11.9295 5.91561 11.9881 5.83511 12.0605 5.76823C12.133 5.70136 12.2179 5.64943 12.3104 5.6154C12.403 5.58138 12.5013 5.56594 12.5998 5.56996C12.7979 5.58032 12.984 5.6677 13.1186 5.81343C13.2531 5.95916 13.3253 6.15171 13.3198 6.34996C13.3198 6.67996 12.8998 14.41 7.52983 19.78C7.46058 19.8501 7.37803 19.9056 7.28702 19.9434C7.19601 19.9812 7.09837 20.0004 6.99983 20Z" fill="#05253E"/>
</svg>