<svg width="194" height="28" viewBox="0 0 194 28" fill="none" xmlns="http://www.w3.org/2000/svg">
<g id="Logo">
<path id="Vector" d="M10.1837 0.48434C2.84198 2.46149 -1.49632 10.1538 0.475636 17.6299C2.44759 25.106 9.97134 29.5237 17.3131 27.5157C24.6548 25.5076 28.9931 17.8462 27.0211 10.3701C25.0492 2.89399 17.5254 -1.5237 10.1837 0.48434ZM22.1064 7.28079L24.0784 6.81739C24.3818 6.75561 24.5638 7.03364 24.3818 7.28079L23.1379 8.91811L21.7727 10.7408C21.621 10.957 21.2873 10.9879 21.166 10.8026L20.3772 9.56686L19.5884 8.33115C19.467 8.14579 19.6491 7.86775 19.8918 7.80597L22.1064 7.28079ZM15.1288 5.24185L16.6153 3.51185L17.9502 1.93631C18.1625 1.68916 18.4659 1.81274 18.4356 2.12167L18.3749 4.19149L18.3142 6.47757C18.3142 6.75561 18.0715 6.97186 17.8591 6.87918L16.494 6.354L15.1894 5.85971C15.0074 5.76703 14.9771 5.4581 15.1288 5.24185ZM20.4075 12.1001C20.4075 12.131 20.4075 12.131 20.4075 12.1619C21.4087 15.9308 19.2243 19.8233 15.5231 20.8737H15.4928C11.7613 21.924 7.90838 19.6997 6.87689 15.8999C5.84541 12.1001 8.02973 8.17668 11.7613 7.12632C15.5231 6.07596 19.4064 8.26936 20.4075 12.1001ZM9.78932 6.04507L9.97134 3.75899L10.123 1.68916C10.1534 1.38024 10.4567 1.28756 10.6388 1.5347L11.7916 3.23381L13.0658 5.11828C13.2175 5.33453 13.1568 5.67435 12.9444 5.70525L11.5489 6.07596L10.1534 6.44668C10.0017 6.53936 9.78932 6.3231 9.78932 6.04507ZM4.02515 5.70525L5.93643 6.38489L8.06007 7.15721C8.30277 7.24989 8.45446 7.55882 8.30277 7.71329L7.39264 8.85633L6.4825 9.99936C6.39149 10.1847 6.05778 10.1229 5.93643 9.87579L4.75325 7.89864L3.69143 6.13775C3.53975 5.85971 3.75211 5.61257 4.02515 5.70525ZM1.08239 13.0578L3.024 12.4708L5.17798 11.822C5.42068 11.7294 5.72406 11.9147 5.69372 12.131L5.66339 13.5829L5.60271 15.0658C5.60271 15.2821 5.29933 15.4056 5.05663 15.3129L2.96333 14.4171L1.08239 13.6138C0.779013 13.4903 0.779013 13.1504 1.08239 13.0578ZM5.20832 20.7501L3.23637 21.2135C2.93299 21.2753 2.75096 20.9972 2.93299 20.7501L4.17684 19.1128L5.54203 17.2901C5.69372 17.0738 6.02744 17.043 6.14879 17.2283L6.93757 18.464L7.72635 19.6997C7.8477 19.8851 7.66568 20.1631 7.42297 20.2249L5.20832 20.7501ZM12.186 22.789L10.6994 24.519L9.39493 26.0946C9.18256 26.3417 8.87918 26.2182 8.90952 25.9092L8.9702 23.8394L9.03087 21.5533C9.03087 21.2753 9.27357 21.059 9.48594 21.1517L10.8511 21.6769L12.2163 22.2021C12.3377 22.2639 12.368 22.5728 12.186 22.789ZM17.5558 21.9858L17.3737 24.2719L17.2221 26.3417C17.1917 26.6507 16.8883 26.7433 16.7063 26.4962L15.5535 24.7971L14.2793 22.9126C14.1276 22.6964 14.1883 22.3565 14.4007 22.3256L15.7962 21.9549L17.1917 21.5842C17.3434 21.4606 17.5558 21.7078 17.5558 21.9858ZM23.2896 22.2948L21.3783 21.6151L19.2547 20.8428C19.012 20.7501 18.8603 20.4412 19.012 20.2867L19.9221 19.1437L20.8322 18.0006C20.9536 17.8153 21.2873 17.908 21.4087 18.1242L22.5918 20.1014L23.6537 21.8623C23.8053 22.1403 23.593 22.4183 23.2896 22.2948ZM26.2627 14.9422L24.3211 15.5292L22.1368 16.2088C21.8941 16.3015 21.5907 16.1162 21.621 15.8999L21.6817 14.4171L21.7424 12.9342C21.7424 12.7179 22.0458 12.5944 22.2885 12.687L24.3818 13.5829L26.2627 14.3862C26.5661 14.5406 26.5661 14.8804 26.2627 14.9422Z" fill="#00E589"/>
<path id="Vector_2" d="M35.8802 21.0897L37.1543 18.7727C37.3667 18.402 37.8824 18.4638 38.0947 18.6182C38.2161 18.68 40.1576 20.1629 41.9778 20.1629C43.0699 20.1629 43.8586 19.4523 43.8586 18.4946C43.8586 17.3207 42.8879 16.4248 41.0374 15.6834C38.6711 14.7257 35.7285 12.8721 35.7285 9.5357C35.7285 6.78622 37.8217 4.00586 42.0384 4.00586C44.89 4.00586 47.0743 5.48872 47.8933 6.10658C48.227 6.29194 48.1664 6.81712 48.045 7.00247L46.6495 9.13409C46.4675 9.44302 45.9518 9.69016 45.7091 9.5048C45.4664 9.35034 43.4642 7.83658 41.7958 7.83658C40.825 7.83658 40.0666 8.51623 40.0666 9.25766C40.0666 10.2771 40.8857 11.0803 43.0395 11.9453C45.1631 12.8103 48.5607 14.5095 48.5607 18.2784C48.5607 21.1514 46.1338 24.0554 42.0991 24.0554C38.5498 24.0554 36.5779 22.5416 35.9409 21.9238C35.7589 21.5839 35.6678 21.4913 35.8802 21.0897Z" fill="white"/>
<path id="Vector_3" d="M60.1199 3.97559C65.5805 3.97559 69.9489 8.45506 69.9489 14.0158C69.9489 19.5765 65.5805 24.0251 60.1199 24.0251C54.6594 24.0251 50.291 19.6074 50.291 14.0158C50.291 8.42417 54.6594 3.97559 60.1199 3.97559ZM60.1199 19.5456C63.1232 19.5456 65.5805 17.0433 65.5805 14.0158C65.5805 10.9574 63.1232 8.42417 60.1199 8.42417C57.147 8.42417 54.6898 10.9574 54.6898 14.0158C54.6594 17.0433 57.147 19.5456 60.1199 19.5456Z" fill="white"/>
<path id="Vector_4" d="M72.9835 4.77909C72.9835 4.50105 73.1958 4.25391 73.4992 4.25391H76.7452C77.0182 4.25391 77.2609 4.50105 77.2609 4.77909V19.6386H83.7528C84.0562 19.6386 84.2685 19.8857 84.2685 20.1638V23.1913C84.2685 23.4693 84.0562 23.7165 83.7528 23.7165H73.4688C73.1655 23.7165 72.9531 23.4693 72.9531 23.1913V4.77909H72.9835Z" fill="white"/>
<path id="Vector_5" d="M81.8109 4.96347C81.6592 4.59275 81.8716 4.25293 82.266 4.25293H85.9063C86.1186 4.25293 86.331 4.40739 86.3613 4.56186L90.8814 14.7256H91.0331L95.5532 4.56186C95.6139 4.43829 95.7959 4.25293 96.0082 4.25293H99.6486C100.073 4.25293 100.286 4.62364 100.104 4.96347L91.5185 23.6846C91.4275 23.8391 91.2758 23.9935 91.0634 23.9935H90.7904C90.5781 23.9935 90.396 23.8391 90.3354 23.6846L81.8109 4.96347Z" fill="white"/>
<path id="Vector_6" d="M102.105 4.77909C102.105 4.50105 102.318 4.25391 102.621 4.25391H113.937C114.24 4.25391 114.452 4.50105 114.452 4.77909V7.80659C114.452 8.08463 114.24 8.33177 113.937 8.33177H106.353V11.7918H112.571C112.844 11.7918 113.087 12.0389 113.087 12.317V15.3445C113.087 15.6534 112.844 15.8697 112.571 15.8697H106.353V19.6386H113.937C114.24 19.6386 114.452 19.8857 114.452 20.1638V23.1913C114.452 23.4693 114.24 23.7165 113.937 23.7165H102.621C102.318 23.7165 102.105 23.4693 102.105 23.1913V4.77909Z" fill="white"/>
<path id="Vector_7" d="M117.852 4.77909C117.852 4.50105 118.064 4.25391 118.367 4.25391H126.528C129.804 4.25391 132.474 6.94159 132.474 10.278C132.474 12.8421 130.805 14.912 128.439 15.8697L132.17 22.9441C132.352 23.3148 132.17 23.7474 131.715 23.7474H128.075C127.863 23.7474 127.68 23.5929 127.65 23.5002L124.01 16.1168H122.129V23.2222C122.129 23.5002 121.886 23.7474 121.613 23.7474H118.367C118.064 23.7474 117.852 23.5002 117.852 23.2222V4.77909ZM126.194 12.5641C127.316 12.5641 128.257 11.5137 128.257 10.3398C128.257 9.16588 127.286 8.2391 126.194 8.2391H122.159V12.595H126.194V12.5641Z" fill="white"/>
<path id="Vector_8" d="M135.902 4.77811C135.902 4.50007 136.115 4.25293 136.388 4.25293H143.062C148.34 4.25293 152.648 8.60883 152.648 13.9533C152.648 19.3596 148.34 23.7155 143.062 23.7155H136.388C136.115 23.7155 135.902 23.4683 135.902 23.1903V4.77811ZM142.789 19.6067C145.883 19.6067 148.128 17.1353 148.128 13.9533C148.128 10.8022 145.883 8.3308 142.789 8.3308H140.149V19.6067H142.789Z" fill="white"/>
<path id="Vector_9" d="M155.715 4.77811C155.715 4.50007 155.927 4.25293 156.231 4.25293H167.546C167.849 4.25293 168.062 4.50007 168.062 4.77811V7.80562C168.062 8.08365 167.849 8.3308 167.546 8.3308H159.962V11.7908H166.181C166.454 11.7908 166.697 12.038 166.697 12.316V15.3435C166.697 15.6524 166.454 15.8687 166.181 15.8687H159.962V19.6376H167.546C167.849 19.6376 168.062 19.8848 168.062 20.1628V23.1903C168.062 23.4683 167.849 23.7155 167.546 23.7155H156.231C155.927 23.7155 155.715 23.4683 155.715 23.1903V4.77811Z" fill="white"/>
<path id="Vector_10" d="M172.43 18.7109C173.856 18.7109 175.069 19.9467 175.069 21.3986C175.069 22.8197 173.856 24.0245 172.43 24.0245C171.035 24.0245 169.852 22.8197 169.852 21.3986C169.852 19.9467 171.035 18.7109 172.43 18.7109Z" fill="#00E589"/>
<path id="Vector_11" d="M177.496 12.1312C177.496 11.9458 177.617 11.8223 177.799 11.8223H181.834C183.897 11.8223 185.566 13.5214 185.566 15.5912C185.566 17.6919 183.867 19.4219 181.834 19.4219H180.075V23.4071C180.075 23.5925 179.923 23.716 179.771 23.716H177.799C177.617 23.716 177.496 23.5616 177.496 23.4071V12.1312ZM181.683 16.9196C182.411 16.9196 183.017 16.3326 183.017 15.5603C183.017 14.8498 182.411 14.2937 181.683 14.2937H180.105V16.8887H181.683V16.9196Z" fill="white"/>
<path id="Vector_12" d="M188.661 14.324H186.264C186.082 14.324 185.961 14.1695 185.961 14.015V12.1615C185.961 11.9761 186.082 11.8525 186.264 11.8525H193.697C193.879 11.8525 194 12.007 194 12.1615V14.015C194 14.2004 193.879 14.324 193.697 14.324H191.3V23.4065C191.3 23.5919 191.148 23.7154 190.997 23.7154H188.995C188.813 23.7154 188.691 23.561 188.691 23.4065V14.324H188.661Z" fill="white"/>
</g>
</svg>
