<svg xmlns="http://www.w3.org/2000/svg" width="20" height="21" viewBox="0 0 20 21" fill="none">
  <path d="M9.99973 19.1403C8.38018 19.1403 6.79708 18.6595 5.45104 17.7589C4.10499 16.8583 3.05658 15.5784 2.43864 14.0813C1.82071 12.5843 1.66107 10.9375 1.97996 9.34967C2.29884 7.76182 3.08189 6.30437 4.22989 5.16198C5.37789 4.0196 6.83916 3.2437 8.42855 2.93261C10.0179 2.62151 11.6639 2.78922 13.1579 3.41448C14.6519 4.03975 15.9266 5.09442 16.8206 6.44487C17.7146 7.79531 18.1877 9.38075 18.1797 11.0003C18.1665 13.162 17.2992 15.2308 15.7669 16.7557C14.2345 18.2805 12.1615 19.1377 9.99973 19.1403ZM9.99973 4.29028C8.67983 4.29029 7.38952 4.68132 6.29166 5.41401C5.1938 6.1467 4.3376 7.18821 3.83114 8.40707C3.32467 9.62593 3.19065 10.9675 3.44597 12.2625C3.7013 13.5575 4.33454 14.7478 5.26575 15.6832C6.19697 16.6186 7.38442 17.2571 8.67823 17.5182C9.97204 17.7794 11.3142 17.6514 12.5353 17.1504C13.7565 16.6494 14.8018 15.7978 15.5394 14.7033C16.277 13.6087 16.6738 12.3202 16.6797 11.0003C16.6837 10.1205 16.5138 9.24866 16.1799 8.43474C15.8459 7.62082 15.3545 6.88088 14.7338 6.2574C14.1132 5.63392 13.3754 5.13919 12.563 4.80162C11.7506 4.46404 10.8795 4.29027 9.99973 4.29028Z" fill="#05253E"/>
  <path d="M10 6.10021C9.80109 6.10021 9.61032 6.0212 9.46967 5.88054C9.32902 5.73989 9.25 5.54913 9.25 5.35021V1.72021C9.25 1.5213 9.32902 1.33054 9.46967 1.18988C9.61032 1.04923 9.80109 0.970215 10 0.970215C10.1989 0.970215 10.3897 1.04923 10.5303 1.18988C10.671 1.33054 10.75 1.5213 10.75 1.72021V5.35021C10.75 5.54913 10.671 5.73989 10.5303 5.88054C10.3897 6.0212 10.1989 6.10021 10 6.10021Z" fill="#05253E"/>
  <path d="M10 21.0003C9.80109 21.0003 9.61032 20.9213 9.46967 20.7806C9.32902 20.64 9.25 20.4492 9.25 20.2503V16.5703C9.25 16.3714 9.32902 16.1806 9.46967 16.04C9.61032 15.8993 9.80109 15.8203 10 15.8203C10.1989 15.8203 10.3897 15.8993 10.5303 16.04C10.671 16.1806 10.75 16.3714 10.75 16.5703V20.2003C10.7569 20.3029 10.7425 20.4059 10.7079 20.5027C10.6733 20.5995 10.6192 20.6882 10.5488 20.7633C10.4785 20.8383 10.3935 20.8981 10.299 20.9388C10.2046 20.9796 10.1028 21.0005 10 21.0003Z" fill="#05253E"/>
  <path d="M19.2399 11.75H15.6099C15.411 11.75 15.2202 11.671 15.0795 11.5303C14.9389 11.3897 14.8599 11.1989 14.8599 11C14.8599 10.8011 14.9389 10.6103 15.0795 10.4697C15.2202 10.329 15.411 10.25 15.6099 10.25H19.2399C19.4388 10.25 19.6295 10.329 19.7702 10.4697C19.9108 10.6103 19.9899 10.8011 19.9899 11C19.9899 11.1989 19.9108 11.3897 19.7702 11.5303C19.6295 11.671 19.4388 11.75 19.2399 11.75Z" fill="#05253E"/>
  <path d="M4.38977 11.7104H0.759766C0.560853 11.7104 0.370088 11.6314 0.229436 11.4908C0.0887834 11.3501 0.00976562 11.1594 0.00976562 10.9604C0.00976562 10.7615 0.0887834 10.5708 0.229436 10.4301C0.370088 10.2895 0.560853 10.2104 0.759766 10.2104H4.38977C4.48826 10.2104 4.58578 10.2298 4.67678 10.2675C4.76777 10.3052 4.85045 10.3605 4.9201 10.4301C4.98974 10.4998 5.04498 10.5824 5.08267 10.6734C5.12037 10.7644 5.13977 10.862 5.13977 10.9604C5.13977 11.0589 5.12037 11.1565 5.08267 11.2475C5.04498 11.3385 4.98974 11.4211 4.9201 11.4908C4.85045 11.5604 4.76777 11.6157 4.67678 11.6534C4.58578 11.691 4.48826 11.7104 4.38977 11.7104Z" fill="#05253E"/>
  <path d="M11.4298 11.7402H8.56982C8.37091 11.7402 8.18015 11.6612 8.03949 11.5206C7.89884 11.3799 7.81982 11.1891 7.81982 10.9902C7.81982 10.7913 7.89884 10.6006 8.03949 10.4599C8.18015 10.3193 8.37091 10.2402 8.56982 10.2402H11.4298C11.6287 10.2402 11.8195 10.3193 11.9602 10.4599C12.1008 10.6006 12.1798 10.7913 12.1798 10.9902C12.1798 11.1891 12.1008 11.3799 11.9602 11.5206C11.8195 11.6612 11.6287 11.7402 11.4298 11.7402Z" fill="#05253E"/>
  <path d="M10 13.1403C9.80109 13.1403 9.61032 13.0613 9.46967 12.9206C9.32902 12.78 9.25 12.5892 9.25 12.3903V9.53027C9.25 9.33136 9.32902 9.1406 9.46967 8.99994C9.61032 8.85929 9.80109 8.78027 10 8.78027C10.1989 8.78027 10.3897 8.85929 10.5303 8.99994C10.671 9.1406 10.75 9.33136 10.75 9.53027V12.3903C10.75 12.5892 10.671 12.78 10.5303 12.9206C10.3897 13.0613 10.1989 13.1403 10 13.1403Z" fill="#05253E"/>
</svg>