<svg xmlns="http://www.w3.org/2000/svg" width="13" height="14" viewBox="0 0 13 14" fill="none">
  <path d="M6.5 12.7608C5.45326 12.7608 4.43009 12.4501 3.56013 11.868C2.69017 11.2859 2.01259 10.4586 1.61325 9.49108C1.21391 8.52352 1.11079 7.45918 1.31695 6.43294C1.5231 5.40671 2.02927 4.46477 2.77129 3.72649C3.51331 2.98821 4.4578 2.48682 5.48506 2.28585C6.51233 2.08489 7.57613 2.19339 8.54166 2.59762C9.5072 3.00185 10.331 3.6836 10.9087 4.55649C11.4864 5.42938 11.7919 6.45411 11.7867 7.50084C11.7779 8.89778 11.2172 10.2346 10.2269 11.2199C9.23661 12.2052 7.89696 12.7591 6.5 12.7608V12.7608ZM6.5 2.83417C5.58824 2.83422 4.69689 3.10404 3.93818 3.60966C3.17947 4.11528 2.58732 4.83408 2.23632 5.67556C1.88531 6.51704 1.79114 7.44357 1.96565 8.33846C2.14016 9.23336 2.57557 10.0566 3.21702 10.7045C3.85848 11.3525 4.67732 11.7961 5.57041 11.9796C6.46351 12.1631 7.39093 12.0783 8.2359 11.7357C9.08086 11.3932 9.80558 10.8083 10.3188 10.0547C10.832 9.30114 11.1108 8.41254 11.12 7.50084C11.1262 6.89021 11.0112 6.28443 10.7818 5.7185C10.5524 5.15258 10.2131 4.63775 9.78344 4.20379C9.35382 3.76983 8.84243 3.42535 8.27884 3.19026C7.71525 2.95517 7.11065 2.83414 6.5 2.83417V2.83417Z" fill="white"/>
  <path d="M6.50001 4.06714C6.4116 4.06714 6.32681 4.03202 6.2643 3.9695C6.20179 3.90699 6.16667 3.82221 6.16667 3.7338V1.3138C6.16667 1.2254 6.20179 1.14061 6.2643 1.0781C6.32681 1.01559 6.4116 0.980469 6.50001 0.980469C6.58841 0.980469 6.6732 1.01559 6.73571 1.0781C6.79822 1.14061 6.83334 1.2254 6.83334 1.3138V3.7338C6.83334 3.82221 6.79822 3.90699 6.73571 3.9695C6.6732 4.03202 6.58841 4.06714 6.50001 4.06714Z" fill="white"/>
  <path d="M6.50001 13.9675C6.4116 13.9675 6.32681 13.9324 6.2643 13.8699C6.20179 13.8074 6.16667 13.7226 6.16667 13.6342V11.2142C6.16667 11.1258 6.20179 11.041 6.2643 10.9785C6.32681 10.916 6.4116 10.8809 6.50001 10.8809C6.58841 10.8809 6.6732 10.916 6.73571 10.9785C6.79822 11.041 6.83334 11.1258 6.83334 11.2142V13.6342C6.83334 13.7226 6.79822 13.8074 6.73571 13.8699C6.6732 13.9324 6.58841 13.9675 6.50001 13.9675Z" fill="white"/>
  <path d="M12.66 7.83366H10.24C10.1516 7.83366 10.0668 7.79854 10.0043 7.73603C9.94178 7.67352 9.90666 7.58873 9.90666 7.50033C9.90666 7.41192 9.94178 7.32714 10.0043 7.26462C10.0668 7.20211 10.1516 7.16699 10.24 7.16699H12.66C12.7484 7.16699 12.8332 7.20211 12.8957 7.26462C12.9582 7.32714 12.9933 7.41192 12.9933 7.50033C12.9933 7.58873 12.9582 7.67352 12.8957 7.73603C12.8332 7.79854 12.7484 7.83366 12.66 7.83366Z" fill="white"/>
  <path d="M2.76 7.80729H0.340001C0.251596 7.80729 0.166811 7.77217 0.104299 7.70966C0.0417871 7.64715 0.00666809 7.56236 0.00666809 7.47396C0.00666809 7.38555 0.0417871 7.30077 0.104299 7.23826C0.166811 7.17574 0.251596 7.14062 0.340001 7.14062H2.76C2.84841 7.14062 2.93319 7.17574 2.9957 7.23826C3.05822 7.30077 3.09333 7.38555 3.09333 7.47396C3.09333 7.56236 3.05822 7.64715 2.9957 7.70966C2.93319 7.77217 2.84841 7.80729 2.76 7.80729Z" fill="white"/>
  <path d="M7.45333 7.82682H5.54667C5.45826 7.82682 5.37348 7.7917 5.31096 7.72919C5.24845 7.66668 5.21333 7.58189 5.21333 7.49349C5.21333 7.40508 5.24845 7.3203 5.31096 7.25779C5.37348 7.19528 5.45826 7.16016 5.54667 7.16016H7.45333C7.54174 7.16016 7.62652 7.19528 7.68904 7.25779C7.75155 7.3203 7.78667 7.40508 7.78667 7.49349C7.78667 7.58189 7.75155 7.66668 7.68904 7.72919C7.62652 7.7917 7.54174 7.82682 7.45333 7.82682Z" fill="white"/>
  <path d="M6.50001 8.76083C6.4116 8.76083 6.32681 8.72571 6.2643 8.6632C6.20179 8.60069 6.16667 8.51591 6.16667 8.4275V6.52083C6.16667 6.43243 6.20179 6.34764 6.2643 6.28513C6.32681 6.22262 6.4116 6.1875 6.50001 6.1875C6.58841 6.1875 6.6732 6.22262 6.73571 6.28513C6.79822 6.34764 6.83334 6.43243 6.83334 6.52083V8.4275C6.83334 8.47127 6.82472 8.51462 6.80796 8.55506C6.79121 8.5955 6.76666 8.63225 6.73571 8.6632C6.70475 8.69416 6.66801 8.71871 6.62757 8.73546C6.58712 8.75221 6.54378 8.76083 6.50001 8.76083Z" fill="white"/>
</svg>