<svg xmlns="http://www.w3.org/2000/svg" width="14" height="14" viewBox="0 0 14 14" fill="none">
  <path d="M7.00047 12.2608C5.95373 12.2608 4.93056 11.9501 4.0606 11.368C3.19065 10.7859 2.51307 9.95865 2.11373 8.99108C1.71439 8.02352 1.61126 6.95918 1.81742 5.93294C2.02358 4.90671 2.52974 3.96477 3.27176 3.22649C4.01379 2.48821 4.95827 1.98682 5.98554 1.78585C7.0128 1.58489 8.0766 1.69339 9.04213 2.09762C10.0077 2.50185 10.8315 3.1836 11.4092 4.05649C11.9869 4.92938 12.2924 5.95411 12.2871 7.00084C12.2783 8.39778 11.7177 9.73461 10.7274 10.7199C9.73708 11.7052 8.39744 12.2591 7.00047 12.2608V12.2608ZM7.00047 2.33417C6.08872 2.33422 5.19736 2.60404 4.43865 3.10966C3.67994 3.61528 3.0878 4.33408 2.73679 5.17556C2.38579 6.01704 2.29161 6.94357 2.46612 7.83846C2.64064 8.73336 3.07604 9.55661 3.7175 10.2045C4.35896 10.8525 5.17779 11.2961 6.07089 11.4796C6.96398 11.6631 7.89141 11.5783 8.73637 11.2357C9.58133 10.8932 10.3061 10.3083 10.8193 9.55473C11.3325 8.80114 11.6113 7.91254 11.6205 7.00084C11.6266 6.39021 11.5117 5.78443 11.2823 5.2185C11.0529 4.65258 10.7135 4.13775 10.2839 3.70379C9.85429 3.26983 9.3429 2.92535 8.77931 2.69026C8.21572 2.45517 7.61112 2.33414 7.00047 2.33417V2.33417Z" fill="#05253E"/>
  <path d="M7.00033 3.56714C6.91192 3.56714 6.82714 3.53202 6.76462 3.4695C6.70211 3.40699 6.66699 3.32221 6.66699 3.2338V0.813802C6.66699 0.725397 6.70211 0.640612 6.76462 0.5781C6.82714 0.515588 6.91192 0.480469 7.00033 0.480469C7.08873 0.480469 7.17352 0.515588 7.23603 0.5781C7.29854 0.640612 7.33366 0.725397 7.33366 0.813802V3.2338C7.33366 3.32221 7.29854 3.40699 7.23603 3.4695C7.17352 3.53202 7.08873 3.56714 7.00033 3.56714Z" fill="#05253E"/>
  <path d="M7.00033 13.4675C6.91192 13.4675 6.82714 13.4324 6.76462 13.3699C6.70211 13.3074 6.66699 13.2226 6.66699 13.1342V10.7142C6.66699 10.6258 6.70211 10.541 6.76462 10.4785C6.82714 10.416 6.91192 10.3809 7.00033 10.3809C7.08873 10.3809 7.17352 10.416 7.23603 10.4785C7.29854 10.541 7.33366 10.6258 7.33366 10.7142V13.1342C7.33366 13.2226 7.29854 13.3074 7.23603 13.3699C7.17352 13.4324 7.08873 13.4675 7.00033 13.4675Z" fill="#05253E"/>
  <path d="M13.1606 7.33366H10.7406C10.6522 7.33366 10.5674 7.29854 10.5049 7.23603C10.4423 7.17352 10.4072 7.08873 10.4072 7.00033C10.4072 6.91192 10.4423 6.82714 10.5049 6.76462C10.5674 6.70211 10.6522 6.66699 10.7406 6.66699H13.1606C13.249 6.66699 13.3337 6.70211 13.3963 6.76462C13.4588 6.82714 13.4939 6.91192 13.4939 7.00033C13.4939 7.08873 13.4588 7.17352 13.3963 7.23603C13.3337 7.29854 13.249 7.33366 13.1606 7.33366Z" fill="#05253E"/>
  <path d="M3.26017 7.30729H0.840169C0.751764 7.30729 0.666979 7.27217 0.604467 7.20966C0.541955 7.14715 0.506836 7.06236 0.506836 6.97396C0.506836 6.88555 0.541955 6.80077 0.604467 6.73826C0.666979 6.67574 0.751764 6.64062 0.840169 6.64062H3.26017C3.34857 6.64062 3.43336 6.67574 3.49587 6.73826C3.55838 6.80077 3.5935 6.88555 3.5935 6.97396C3.5935 7.06236 3.55838 7.14715 3.49587 7.20966C3.43336 7.27217 3.34857 7.30729 3.26017 7.30729Z" fill="black"/>
  <path d="M7.95387 7.32682H6.0472C5.9588 7.32682 5.87401 7.2917 5.8115 7.22919C5.74899 7.16668 5.71387 7.08189 5.71387 6.99349C5.71387 6.90508 5.74899 6.8203 5.8115 6.75779C5.87401 6.69528 5.9588 6.66016 6.0472 6.66016H7.95387C8.04227 6.66016 8.12706 6.69528 8.18957 6.75779C8.25208 6.8203 8.2872 6.90508 8.2872 6.99349C8.2872 7.08189 8.25208 7.16668 8.18957 7.22919C8.12706 7.2917 8.04227 7.32682 7.95387 7.32682Z" fill="black"/>
  <path d="M7.00033 8.26083C6.91192 8.26083 6.82714 8.22571 6.76462 8.1632C6.70211 8.10069 6.66699 8.01591 6.66699 7.9275V6.02083C6.66699 5.93243 6.70211 5.84764 6.76462 5.78513C6.82714 5.72262 6.91192 5.6875 7.00033 5.6875C7.08873 5.6875 7.17352 5.72262 7.23603 5.78513C7.29854 5.84764 7.33366 5.93243 7.33366 6.02083V7.9275C7.33366 7.97127 7.32504 8.01462 7.30829 8.05506C7.29153 8.0955 7.26698 8.13225 7.23603 8.1632C7.20508 8.19416 7.16833 8.21871 7.12789 8.23546C7.08744 8.25221 7.0441 8.26083 7.00033 8.26083Z" fill="black"/>
</svg>