<svg xmlns="http://www.w3.org/2000/svg" width="12" height="18" viewBox="0 0 12 18" fill="none">
  <path d="M8.5 17.9582H3.5C2.6712 17.9582 1.87634 17.6289 1.29029 17.0429C0.70424 16.4568 0.375 15.662 0.375 14.8332V3.1665C0.375 2.3377 0.70424 1.54285 1.29029 0.956795C1.87634 0.370744 2.6712 0.0415039 3.5 0.0415039H8.5C9.3288 0.0415039 10.1237 0.370744 10.7097 0.956795C11.2958 1.54285 11.625 2.3377 11.625 3.1665V14.8332C11.625 15.662 11.2958 16.4568 10.7097 17.0429C10.1237 17.6289 9.3288 17.9582 8.5 17.9582ZM3.5 1.2915C3.00272 1.2915 2.52581 1.48905 2.17417 1.84068C1.82254 2.19231 1.625 2.66922 1.625 3.1665V14.8332C1.625 15.3305 1.82254 15.8074 2.17417 16.159C2.52581 16.5106 3.00272 16.7082 3.5 16.7082H8.5C8.99728 16.7082 9.47419 16.5106 9.82582 16.159C10.1775 15.8074 10.375 15.3305 10.375 14.8332V3.1665C10.375 2.66922 10.1775 2.19231 9.82582 1.84068C9.47419 1.48905 8.99728 1.2915 8.5 1.2915H3.5Z" fill="#05253E"/>
  <path d="M5.99945 15.4581C5.91637 15.4576 5.83421 15.4406 5.75778 15.4081C5.68341 15.3764 5.61558 15.3312 5.55778 15.2747C5.44074 15.1575 5.375 14.9987 5.375 14.8331C5.375 14.6674 5.44074 14.5086 5.55778 14.3914C5.61558 14.3349 5.68341 14.2897 5.75778 14.2581C5.83407 14.225 5.91632 14.208 5.99945 14.208C6.08258 14.208 6.16483 14.225 6.24112 14.2581C6.31549 14.2897 6.38332 14.3349 6.44112 14.3914C6.55816 14.5086 6.6239 14.6674 6.6239 14.8331C6.6239 14.9987 6.55816 15.1575 6.44112 15.2747C6.38332 15.3312 6.31549 15.3764 6.24112 15.4081C6.16468 15.4406 6.08253 15.4576 5.99945 15.4581V15.4581Z" fill="#05253E"/>
</svg>