<svg xmlns="http://www.w3.org/2000/svg" width="19" height="22" viewBox="0 0 19 22" fill="none">
  <path d="M14.5 21.4601H4.50001C3.57518 21.4654 2.68583 21.1045 2.02627 20.4562C1.36671 19.8079 0.990565 18.9249 0.980011 18.0001V4.0001C0.990565 3.07532 1.36671 2.1923 2.02627 1.54398C2.68583 0.895667 3.57518 0.534753 4.50001 0.540098H14.5C15.4248 0.534753 16.3142 0.895667 16.9737 1.54398C17.6333 2.1923 18.0095 3.07532 18.02 4.0001V18.0001C18.0095 18.9249 17.6333 19.8079 16.9737 20.4562C16.3142 21.1045 15.4248 21.4654 14.5 21.4601ZM4.50001 1.5401C3.84039 1.53474 3.20538 1.79029 2.73335 2.25108C2.26132 2.71187 1.99054 3.34054 1.98001 4.0001V18.0001C1.99054 18.6597 2.26132 19.2883 2.73335 19.7491C3.20538 20.2099 3.84039 20.4655 4.50001 20.4601H14.5C14.8283 20.4601 15.1534 20.3954 15.4567 20.2698C15.76 20.1442 16.0356 19.96 16.2678 19.7279C16.4999 19.4957 16.6841 19.2201 16.8097 18.9168C16.9353 18.6135 17 18.2884 17 17.9601V4.0001C16.9895 3.34401 16.7215 2.71836 16.2538 2.25813C15.7861 1.79791 15.1562 1.54001 14.5 1.5401H4.50001Z" fill="#05253E"/>
  <path d="M9.50002 15.0697C9.42139 15.0693 9.344 15.0501 9.27438 15.0135C9.20476 14.977 9.14495 14.9242 9.10002 14.8597L6.50002 11.2897C6.4411 11.2045 6.40955 11.1033 6.40955 10.9997C6.40955 10.8961 6.4411 10.7949 6.50002 10.7097L9.10002 7.13969C9.14495 7.07516 9.20476 7.02239 9.27438 6.98584C9.344 6.94929 9.42139 6.93003 9.50002 6.92969C9.5799 6.93084 9.65844 6.95039 9.72954 6.98681C9.80065 7.02323 9.8624 7.07554 9.91002 7.13969L12.5 10.7097C12.5589 10.7949 12.5905 10.8961 12.5905 10.9997C12.5905 11.1033 12.5589 11.2045 12.5 11.2897L9.93002 14.8597C9.8804 14.9266 9.81544 14.9805 9.74061 15.0171C9.66579 15.0536 9.58327 15.0717 9.50002 15.0697ZM7.50002 10.9997L9.50002 13.7197L11.5 10.9997L9.50002 8.27969L7.50002 10.9997Z" fill="#05253E"/>
</svg>