<svg xmlns="http://www.w3.org/2000/svg" width="39" height="46" viewBox="0 0 39 46" fill="none">
  <path d="M19.833 23.5C17.5585 23.5 15.3351 22.8255 13.444 21.5619C11.5528 20.2983 10.0788 18.5022 9.2084 16.4009C8.33799 14.2995 8.11025 11.9872 8.55398 9.75647C8.99771 7.52568 10.093 5.47658 11.7013 3.86828C13.3096 2.25997 15.3587 1.1647 17.5895 0.720974C19.8203 0.277244 22.1325 0.504983 24.2339 1.37539C26.3352 2.2458 28.1313 3.71978 29.3949 5.61095C30.6585 7.50211 31.333 9.72552 31.333 12C31.3277 15.0484 30.1144 17.9704 27.9589 20.1259C25.8034 22.2814 22.8814 23.4947 19.833 23.5V23.5ZM19.833 3.50001C18.1519 3.50001 16.5085 3.99852 15.1107 4.93251C13.7128 5.86651 12.6234 7.19402 11.98 8.7472C11.3367 10.3004 11.1684 12.0094 11.4963 13.6583C11.8243 15.3071 12.6339 16.8217 13.8226 18.0104C15.0114 19.1992 16.5259 20.0087 18.1747 20.3367C19.8236 20.6647 21.5326 20.4963 23.0858 19.853C24.639 19.2096 25.9665 18.1202 26.9005 16.7224C27.8345 15.3245 28.333 13.6811 28.333 12C28.3277 9.74729 27.4305 7.58835 25.8376 5.99543C24.2447 4.40252 22.0857 3.50529 19.833 3.50001V3.50001Z" fill="#00E589"/>
  <path d="M1.83301 39.5C1.43679 39.4948 1.05827 39.3351 0.778076 39.0549C0.497886 38.7747 0.338188 38.3962 0.333008 38C0.343573 33.362 2.19071 28.9169 5.47031 25.6373C8.74991 22.3577 13.195 20.5106 17.833 20.5H21.833C22.2308 20.5 22.6124 20.658 22.8937 20.9393C23.175 21.2206 23.333 21.6022 23.333 22C23.333 22.3978 23.175 22.7794 22.8937 23.0607C22.6124 23.342 22.2308 23.5 21.833 23.5H17.833C13.989 23.5053 10.3039 25.0347 7.5858 27.7528C4.86767 30.4709 3.3383 34.156 3.33301 38C3.32783 38.3962 3.16813 38.7747 2.88794 39.0549C2.60775 39.3351 2.22922 39.4948 1.83301 39.5V39.5Z" fill="#00E589"/>
  <path d="M28.833 45.5C28.4368 45.4948 28.0583 45.3351 27.7781 45.0549C27.4979 44.7747 27.3382 44.3962 27.333 44V28C27.333 27.6022 27.491 27.2206 27.7723 26.9393C28.0537 26.658 28.4352 26.5 28.833 26.5C29.2308 26.5 29.6124 26.658 29.8937 26.9393C30.175 27.2206 30.333 27.6022 30.333 28V44C30.3278 44.3962 30.1681 44.7747 29.8879 45.0549C29.6077 45.3351 29.2292 45.4948 28.833 45.5V45.5Z" fill="#00E589"/>
  <path d="M36.833 37.5H20.833C20.4352 37.5 20.0537 37.342 19.7723 37.0607C19.491 36.7794 19.333 36.3978 19.333 36C19.333 35.6022 19.491 35.2206 19.7723 34.9393C20.0537 34.658 20.4352 34.5 20.833 34.5H36.833C37.2308 34.5 37.6124 34.658 37.8937 34.9393C38.175 35.2206 38.333 35.6022 38.333 36C38.333 36.3978 38.175 36.7794 37.8937 37.0607C37.6124 37.342 37.2308 37.5 36.833 37.5Z" fill="#00E589"/>
</svg>