<svg xmlns="http://www.w3.org/2000/svg" width="10" height="14" viewBox="0 0 10 14" fill="none">
  <path d="M4.88037 6.72069C4.45052 6.72069 4.03033 6.59323 3.67293 6.35442C3.31552 6.11561 3.03696 5.77618 2.87247 5.37906C2.70797 4.98193 2.66493 4.54495 2.74879 4.12336C2.83265 3.70178 3.03964 3.31453 3.34359 3.01058C3.64753 2.70663 4.03478 2.49964 4.45637 2.41578C4.87795 2.33193 5.31494 2.37497 5.71206 2.53946C6.10919 2.70395 6.44862 2.98252 6.68743 3.33992C6.92624 3.69732 7.0537 4.11751 7.0537 4.54736C7.0537 5.12376 6.82472 5.67656 6.41714 6.08414C6.00957 6.49172 5.45677 6.72069 4.88037 6.72069V6.72069ZM4.88037 3.04069C4.58237 3.04069 4.29108 3.12906 4.04331 3.29461C3.79554 3.46016 3.60242 3.69547 3.48839 3.97078C3.37435 4.24609 3.34451 4.54903 3.40265 4.84129C3.46078 5.13356 3.60428 5.40202 3.81499 5.61273C4.0257 5.82344 4.29416 5.96694 4.58643 6.02507C4.87869 6.08321 5.18163 6.05337 5.45694 5.93934C5.73225 5.8253 5.96756 5.63219 6.13311 5.38442C6.29867 5.13665 6.38703 4.84535 6.38703 4.54736C6.38703 4.14776 6.22829 3.76454 5.94574 3.48198C5.66319 3.19943 5.27996 3.04069 4.88037 3.04069Z" fill="white"/>
  <path d="M8.6399 5.62704H8.58656C8.5047 5.60645 8.43342 5.55615 8.3866 5.48591C8.33977 5.41567 8.32075 5.33053 8.33323 5.24704V5.14038C8.33543 5.09374 8.33543 5.04702 8.33323 5.00038C8.3398 4.93165 8.3398 4.86244 8.33323 4.79371C8.33323 4.62038 8.33323 4.53371 8.33323 4.53371C8.33323 3.63728 7.97712 2.77756 7.34325 2.14369C6.70938 1.50982 5.84966 1.15371 4.95323 1.15371C4.0568 1.15371 3.19708 1.50982 2.56321 2.14369C1.92934 2.77756 1.57323 3.63728 1.57323 4.53371C1.57323 4.53371 1.57323 4.62038 1.57323 4.74704C1.59181 4.83559 1.62325 4.92094 1.66656 5.00038V5.16704V5.27371C1.67313 5.31748 1.67101 5.36212 1.66032 5.40508C1.64964 5.44803 1.6306 5.48846 1.60429 5.52406C1.57798 5.55965 1.54491 5.58972 1.50699 5.61254C1.46906 5.63535 1.427 5.65048 1.38323 5.65704C1.33946 5.66361 1.29482 5.66149 1.25186 5.65081C1.20891 5.64012 1.16848 5.62108 1.13288 5.59477C1.09729 5.56846 1.06722 5.5354 1.0444 5.49747C1.02159 5.45954 1.00646 5.41749 0.999897 5.37371V5.13371C0.988316 5.02513 0.988316 4.91563 0.999897 4.80704V4.60038C0.999897 3.52713 1.42624 2.49785 2.18514 1.73895C2.94404 0.980055 3.97332 0.553711 5.04656 0.553711C6.11981 0.553711 7.14909 0.980055 7.90799 1.73895C8.66689 2.49785 9.09323 3.52713 9.09323 4.60038C9.09323 4.60038 9.09323 4.71371 9.09323 4.84704C9.09202 4.95672 9.08086 5.06605 9.0599 5.17371L8.9999 5.34704C8.98826 5.43145 8.9441 5.50796 8.87685 5.56027C8.80959 5.61257 8.72457 5.63654 8.6399 5.62704Z" fill="white"/>
  <path d="M5.00007 13.5008C4.95635 13.5013 4.91301 13.4927 4.87282 13.4755C4.83264 13.4583 4.7965 13.4328 4.76674 13.4008C1.2334 9.86748 1.00007 4.77414 0.953402 4.56081C0.951616 4.51703 0.958479 4.47332 0.9736 4.4322C0.988721 4.39107 1.0118 4.35333 1.04152 4.32113C1.07125 4.28893 1.10702 4.26291 1.14681 4.24455C1.1866 4.22619 1.22962 4.21586 1.2734 4.21414C1.31718 4.21236 1.36089 4.21922 1.40202 4.23434C1.44314 4.24946 1.48089 4.27254 1.51308 4.30227C1.54528 4.33199 1.57131 4.36777 1.58966 4.40755C1.60802 4.44734 1.61835 4.49036 1.62007 4.53414C1.62007 4.58081 1.8934 9.58748 5.2334 12.9341C5.26529 12.9641 5.2907 13.0002 5.30808 13.0403C5.32545 13.0805 5.33441 13.1237 5.33441 13.1675C5.33441 13.2112 5.32545 13.2545 5.30808 13.2946C5.2907 13.3347 5.26529 13.3709 5.2334 13.4008C5.20364 13.4328 5.1675 13.4583 5.12732 13.4755C5.08713 13.4927 5.04379 13.5013 5.00007 13.5008V13.5008Z" fill="white"/>
  <path d="M5.00036 13.5003C4.95664 13.5008 4.9133 13.4922 4.87311 13.475C4.83293 13.4577 4.79679 13.4323 4.76703 13.4003C4.73514 13.3704 4.70973 13.3342 4.69235 13.2941C4.67498 13.2539 4.66602 13.2107 4.66602 13.1669C4.66602 13.1232 4.67498 13.0799 4.69235 13.0398C4.70973 12.9997 4.73514 12.9635 4.76703 12.9336C8.10036 9.60028 8.37369 4.58028 8.38036 4.53361C8.37801 4.48864 8.38559 4.4437 8.40257 4.40198C8.41955 4.36027 8.44551 4.32281 8.4786 4.29226C8.5117 4.26172 8.55111 4.23883 8.59405 4.22524C8.63698 4.21165 8.68238 4.20768 8.72703 4.21361C8.81486 4.21877 8.89726 4.25777 8.95694 4.32241C9.01661 4.38706 9.0489 4.47232 9.04703 4.56028C9.04703 4.77361 8.76703 9.89361 5.23369 13.4003C5.20393 13.4323 5.16779 13.4577 5.12761 13.475C5.08742 13.4922 5.04408 13.5008 5.00036 13.5003V13.5003Z" fill="white"/>
</svg>