<svg xmlns="http://www.w3.org/2000/svg" width="20" height="21" viewBox="0 0 20 21" fill="none">
  <path d="M7.86537 6.45695C7.71016 6.61309 7.62305 6.8243 7.62305 7.04445C7.62305 7.26461 7.71016 7.47582 7.86537 7.63195L10.8154 10.6236L7.86537 13.5736C7.71016 13.7298 7.62305 13.941 7.62305 14.1611C7.62305 14.3813 7.71016 14.5925 7.86537 14.7486C7.94284 14.8267 8.03501 14.8887 8.13656 14.931C8.23811 14.9733 8.34703 14.9951 8.45704 14.9951C8.56705 14.9951 8.67597 14.9733 8.77752 14.931C8.87907 14.8887 8.97124 14.8267 9.04871 14.7486L12.582 11.2153C12.6601 11.1378 12.7221 11.0456 12.7644 10.9441C12.8068 10.8426 12.8285 10.7336 12.8285 10.6236C12.8285 10.5136 12.8068 10.4047 12.7644 10.3031C12.7221 10.2016 12.6601 10.1094 12.582 10.032L9.04871 6.45695C8.97124 6.37885 8.87907 6.31685 8.77752 6.27454C8.67597 6.23224 8.56705 6.21045 8.45704 6.21045C8.34703 6.21045 8.23811 6.23224 8.13656 6.27454C8.03501 6.31685 7.94284 6.37885 7.86537 6.45695Z" fill="white"/>
</svg>