<svg xmlns="http://www.w3.org/2000/svg" width="7" height="11" viewBox="0 0 7 11" fill="none">
  <path d="M0.438253 0.648733C0.252002 0.836096 0.147461 1.08955 0.147461 1.35373C0.147461 1.61792 0.252002 1.87137 0.438253 2.05873L3.97825 5.64873L0.438253 9.18873C0.252002 9.3761 0.147461 9.62955 0.147461 9.89373C0.147461 10.1579 0.252002 10.4114 0.438253 10.5987C0.531216 10.6925 0.641817 10.7669 0.763677 10.8176C0.885536 10.8684 1.01624 10.8945 1.14825 10.8945C1.28027 10.8945 1.41097 10.8684 1.53283 10.8176C1.65469 10.7669 1.76529 10.6925 1.85825 10.5987L6.09825 6.35873C6.19198 6.26577 6.26638 6.15517 6.31714 6.03331C6.36791 5.91145 6.39405 5.78074 6.39405 5.64873C6.39405 5.51672 6.36791 5.38602 6.31714 5.26416C6.26638 5.1423 6.19198 5.0317 6.09825 4.93873L1.85825 0.648733C1.76529 0.555005 1.65469 0.480611 1.53283 0.429842C1.41097 0.379073 1.28026 0.352934 1.14825 0.352934C1.01624 0.352934 0.885535 0.379073 0.763676 0.429842C0.641817 0.480611 0.531216 0.555005 0.438253 0.648733Z" fill="#05253E"/>
</svg>