<svg xmlns="http://www.w3.org/2000/svg" width="22" height="22" viewBox="0 0 22 22" fill="none">
  <path d="M4.16 14.9098C3.38668 14.9098 2.63072 14.6805 1.98772 14.2509C1.34473 13.8213 0.843571 13.2106 0.547633 12.4961C0.251694 11.7817 0.174263 10.9955 0.325131 10.237C0.476 9.47858 0.848391 8.78188 1.39521 8.23506C1.94204 7.68823 2.63873 7.31584 3.3972 7.16497C4.15566 7.01411 4.94184 7.09154 5.65629 7.38748C6.37075 7.68342 6.98141 8.18457 7.41105 8.82757C7.84068 9.47056 8.07 10.2265 8.07 10.9998C8.06736 12.036 7.65457 13.029 6.92187 13.7617C6.18918 14.4944 5.19619 14.9072 4.16 14.9098ZM4.16 8.58985C3.68335 8.58985 3.2174 8.73119 2.82108 8.996C2.42476 9.26082 2.11586 9.63721 1.93345 10.0776C1.75104 10.5179 1.70332 11.0025 1.79631 11.47C1.8893 11.9375 2.11883 12.3669 2.45587 12.704C2.79292 13.041 3.22234 13.2705 3.68983 13.3635C4.15733 13.4565 4.6419 13.4088 5.08227 13.2264C5.52264 13.044 5.89903 12.7351 6.16384 12.3388C6.42866 11.9424 6.57 11.4765 6.57 10.9998C6.57 10.3607 6.31609 9.74768 5.86413 9.29572C5.41217 8.84376 4.79917 8.58985 4.16 8.58985Z" fill="#5355E4"/>
  <path d="M17.8397 8.59002C17.0664 8.59002 16.3104 8.3607 15.6674 7.93107C15.0244 7.50143 14.5233 6.89077 14.2273 6.17631C13.9314 5.46185 13.854 4.67568 14.0048 3.91722C14.1557 3.15875 14.5281 2.46206 15.0749 1.91523C15.6217 1.36841 16.3184 0.996019 17.0769 0.845151C17.8354 0.694283 18.6215 0.771714 19.336 1.06765C20.0504 1.36359 20.6611 1.86475 21.0907 2.50774C21.5204 3.15074 21.7497 3.9067 21.7497 4.68002C21.747 5.71621 21.3343 6.7092 20.6016 7.44189C19.8689 8.17459 18.8759 8.58738 17.8397 8.59002ZM17.8397 2.28002C17.3626 2.28003 16.8963 2.42163 16.4997 2.68688C16.1032 2.95214 15.7943 3.32913 15.6122 3.77008C15.4301 4.21103 15.383 4.69611 15.4768 5.16388C15.5706 5.63164 15.8011 6.06104 16.1391 6.39769C16.4772 6.73433 16.9075 6.96307 17.3757 7.05493C17.8438 7.14678 18.3287 7.09763 18.7689 6.91369C19.2091 6.72975 19.5848 6.4193 19.8484 6.02166C20.112 5.62402 20.2517 5.15709 20.2497 4.68002C20.247 4.04258 19.992 3.43216 19.5403 2.98235C19.0886 2.53255 18.4771 2.28002 17.8397 2.28002Z" fill="#5355E4"/>
  <path d="M17.8397 21.2199C17.0659 21.2199 16.3096 20.9903 15.6664 20.5602C15.0232 20.1302 14.522 19.5189 14.2264 18.8039C13.9307 18.0888 13.8539 17.3022 14.0056 16.5434C14.1572 15.7847 14.5306 15.088 15.0784 14.5416C15.6263 13.9952 16.3239 13.6236 17.083 13.4738C17.8421 13.3241 18.6286 13.4029 19.3429 13.7004C20.0572 13.9979 20.6672 14.5006 21.0956 15.1449C21.524 15.7892 21.7517 16.5462 21.7497 17.3199C21.747 18.3552 21.3339 19.3471 20.6009 20.0782C19.868 20.8093 18.8749 21.2199 17.8397 21.2199ZM17.8397 14.9099C17.363 14.9099 16.8971 15.0512 16.5008 15.3161C16.1044 15.5809 15.7955 15.9573 15.6131 16.3976C15.4307 16.838 15.383 17.3226 15.476 17.7901C15.569 18.2576 15.7985 18.687 16.1355 19.024C16.4726 19.3611 16.902 19.5906 17.3695 19.6836C17.837 19.7766 18.3216 19.7289 18.7619 19.5465C19.2023 19.364 19.5787 19.0552 19.8435 18.6588C20.1083 18.2625 20.2497 17.7966 20.2497 17.3199C20.2497 16.6807 19.9958 16.0677 19.5438 15.6158C19.0918 15.1638 18.4788 14.9099 17.8397 14.9099Z" fill="#5355E4"/>
  <path d="M15.2304 16.2803C15.1018 16.279 14.9752 16.2482 14.8604 16.1903L6.94037 11.6502C6.82652 11.5845 6.73223 11.4897 6.6672 11.3754C6.60218 11.2612 6.56875 11.1317 6.57037 11.0002C6.57277 10.866 6.61115 10.7349 6.68151 10.6206C6.75186 10.5062 6.85162 10.4129 6.97037 10.3502L15.1504 6.14025C15.3281 6.04875 15.5348 6.03159 15.7252 6.09254C15.9155 6.15349 16.0739 6.28755 16.1654 6.46525C16.2569 6.64294 16.274 6.84971 16.2131 7.04006C16.1521 7.23041 16.0181 7.38875 15.8404 7.48025L8.89037 11.0002L15.6104 14.8403C15.754 14.9229 15.8662 15.0508 15.9294 15.2039C15.9927 15.3571 16.0035 15.5268 15.9601 15.6867C15.9166 15.8466 15.8215 15.9877 15.6895 16.0878C15.5575 16.1879 15.3961 16.2415 15.2304 16.2402V16.2803Z" fill="#5355E4"/>
</svg>