<svg xmlns="http://www.w3.org/2000/svg" width="19" height="19" viewBox="0 0 19 19" fill="none">
  <path d="M9.5 18.3398C2.19 18.3398 0.5 5.33984 0.5 4.75984C0.49279 4.68934 0.500652 4.6181 0.523064 4.55087C0.545477 4.48363 0.581928 4.42192 0.63 4.36984C0.675443 4.31612 0.732141 4.27304 0.796081 4.24367C0.86002 4.21429 0.929636 4.19933 1 4.19984C3.32 4.19984 4.36 0.739844 4.37 0.699844C4.40169 0.59681 4.46522 0.506468 4.55146 0.441789C4.6377 0.37711 4.74221 0.34142 4.85 0.339844H14.23C14.3378 0.34142 14.4423 0.37711 14.5285 0.441789C14.6148 0.506468 14.6783 0.59681 14.71 0.699844C14.71 0.699844 15.71 4.19984 18.08 4.19984C18.1504 4.19933 18.22 4.21429 18.2839 4.24367C18.3479 4.27304 18.4046 4.31612 18.45 4.36984C18.4987 4.42124 18.5348 4.48317 18.5556 4.55081C18.5764 4.61845 18.5813 4.68999 18.57 4.75984C18.5 5.30984 16.81 18.3398 9.5 18.3398ZM1.5 5.14984C1.88 7.51984 3.79 17.3398 9.5 17.3398C15.21 17.3398 17.09 7.51984 17.5 5.14984C15.31 4.76984 14.2 2.28984 13.86 1.33984H5.17C4.83 2.28984 3.72 4.76984 1.5 5.14984Z" fill="#05253E"/>
</svg>