<svg width="71" height="81" viewBox="0 0 71 81" fill="none" xmlns="http://www.w3.org/2000/svg">
<g id="Group">
<g id="BOLA">
<g id="BOLA_1_">
<g id="Group_2">
<path id="Vector" d="M58.226 16.2118C58.226 24.992 51.1584 32.0868 42.4326 32.0868C33.7068 32.0868 26.6392 24.992 26.6392 16.2118C26.6392 7.43168 33.7068 0.826172 42.4326 0.826172C51.1584 0.826172 58.226 7.43168 58.226 16.2118Z" fill="#976126"/>
<path id="Vector_2" d="M42.4321 32.3586C40.2575 32.3586 38.1372 31.9237 36.1528 31.081C34.2228 30.2655 32.5103 29.0967 31.0424 27.6288C29.5745 26.1337 28.4056 24.4212 27.5901 22.4912C26.7474 20.5068 26.3125 18.3865 26.3125 16.1847C26.3125 11.8897 27.9979 7.921 31.0424 4.98522C32.5103 3.5717 34.25 2.45719 36.1528 1.69606C38.1372 0.907747 40.2303 0.5 42.4049 0.5C44.5796 0.5 46.6999 0.907747 48.657 1.69606C50.587 2.45719 52.2996 3.5717 53.7675 4.98522C56.812 7.921 58.4973 11.8897 58.4973 16.1847C58.4973 18.3593 58.0624 20.4796 57.2197 22.4912C56.4042 24.4212 55.2354 26.1337 53.7675 27.6288C52.2996 29.1239 50.5599 30.2927 48.657 31.081C46.727 31.9509 44.6068 32.3586 42.4321 32.3586ZM42.4321 1.09803C40.339 1.09803 38.3003 1.47859 36.3974 2.23972C34.549 2.97367 32.8908 4.06099 31.4773 5.42015C28.5415 8.2472 26.9377 12.0528 26.9377 16.1847C26.9377 18.2778 27.3455 20.3165 28.161 22.2465C28.9493 24.095 30.0638 25.7803 31.4773 27.1939C32.8908 28.6346 34.549 29.7491 36.3974 30.5374C38.3003 31.3529 40.339 31.7606 42.4321 31.7606C44.5252 31.7606 46.5639 31.3529 48.4668 30.5374C50.3152 29.7491 51.9734 28.6346 53.3869 27.1939C54.8004 25.7531 55.9421 24.095 56.7033 22.2465C57.5188 20.3165 57.9265 18.2778 57.9265 16.1847C57.9265 12.0528 56.3227 8.22001 53.3869 5.42015C51.9734 4.06099 50.3152 3.00085 48.4668 2.23972C46.5639 1.47859 44.5252 1.09803 42.4321 1.09803Z" fill="#231F20"/>
</g>
<path id="Vector_3" d="M42.4321 32.3586C40.2575 32.3586 38.1372 31.9237 36.1528 31.081C34.2228 30.2655 32.5103 29.0967 31.0424 27.6288C29.5745 26.1337 28.4056 24.4212 27.5901 22.4912C26.7474 20.5068 26.3125 18.3865 26.3125 16.1847C26.3125 11.8897 27.9979 7.921 31.0424 4.98522C32.5103 3.5717 34.25 2.45719 36.1528 1.69606C38.1372 0.907747 40.2303 0.5 42.4049 0.5C44.5796 0.5 46.6999 0.907747 48.657 1.69606C50.587 2.45719 52.2996 3.5717 53.7675 4.98522C56.812 7.921 58.4973 11.8897 58.4973 16.1847C58.4973 18.3593 58.0624 20.4796 57.2197 22.4912C56.4042 24.4212 55.2354 26.1337 53.7675 27.6288C52.2996 29.1239 50.5599 30.2927 48.657 31.081C46.727 31.9509 44.6068 32.3586 42.4321 32.3586ZM42.4321 1.09803C40.339 1.09803 38.3003 1.47859 36.3974 2.23972C34.549 2.97367 32.8908 4.06099 31.4773 5.42015C28.5415 8.2472 26.9377 12.0528 26.9377 16.1847C26.9377 18.2778 27.3455 20.3165 28.161 22.2465C28.9493 24.095 30.0638 25.7803 31.4773 27.1939C32.8908 28.6346 34.549 29.7491 36.3974 30.5374C38.3003 31.3529 40.339 31.7606 42.4321 31.7606C44.5252 31.7606 46.5639 31.3529 48.4668 30.5374C50.3152 29.7491 51.9734 28.6346 53.3869 27.1939C54.8004 25.7531 55.9421 24.095 56.7033 22.2465C57.5188 20.3165 57.9265 18.2778 57.9265 16.1847C57.9265 12.0528 56.3227 8.22001 53.3869 5.42015C51.9734 4.06099 50.3152 3.00085 48.4668 2.23972C46.5639 1.47859 44.5252 1.09803 42.4321 1.09803Z" fill="#231F20"/>
</g>
<g id="INTERIOR">
<g id="Group_3">
<path id="Vector_4" d="M39.6869 9.06213L39.415 8.73593C40.6383 7.75734 43.4381 6.0448 46.1565 5.41959C47.869 5.01184 49.8806 5.01184 51.2941 5.06621C52.7892 5.12058 53.9037 5.28367 53.9308 5.28367L53.8765 5.71861C53.8221 5.71861 49.4728 5.12058 46.2924 5.85452C43.6012 6.45255 40.8829 8.11072 39.6869 9.06213Z" fill="#231F20"/>
<path id="Vector_5" d="M34.0868 19.7999L33.6519 19.7727C33.6519 19.7455 33.7062 18.9572 33.9509 17.8155C34.1683 16.7554 34.5761 15.1516 35.3372 13.6021C36.3158 11.5634 38.3545 9.57901 39.4147 8.73633L39.6865 9.06253C38.6536 9.9052 36.6692 11.8352 35.7178 13.7924C34.3314 16.6738 34.0868 19.7727 34.0868 19.7999Z" fill="#231F20"/>
</g>
<path id="Vector_6" d="M32.9999 20.1804C32.9455 20.0445 31.5048 16.6194 31.2873 15.3962C30.8796 13.0584 31.3145 5.25686 31.3417 4.93066L31.7766 4.95785C31.7766 5.0394 31.3417 13.0312 31.7223 15.3146C31.9125 16.4835 33.3804 19.9629 33.4076 20.0173L32.9999 20.1804Z" fill="#231F20"/>
<g id="Group_4">
<path id="Vector_7" d="M34.6577 23.8235C34.0597 23.8235 33.4073 23.5245 32.918 22.9808C32.1297 22.0566 32.1025 20.779 32.8908 20.1266C33.2714 19.8004 33.7879 19.6645 34.3315 19.7732C34.848 19.8547 35.3645 20.1538 35.745 20.5887C36.1256 21.0236 36.3431 21.5673 36.3431 22.0838C36.3431 22.6274 36.1528 23.1167 35.7722 23.4429C35.446 23.6876 35.0655 23.8235 34.6577 23.8235ZM33.9781 20.1538C33.6791 20.1538 33.3801 20.2625 33.1626 20.4528C32.5646 20.9693 32.619 21.975 33.2442 22.709C33.8694 23.4429 34.8752 23.6332 35.4732 23.1167C35.745 22.8721 35.9081 22.5187 35.881 22.0838C35.881 21.6488 35.6907 21.2139 35.3917 20.8605C35.0926 20.5071 34.6849 20.2625 34.25 20.1809C34.1684 20.1538 34.0597 20.1538 33.9781 20.1538Z" fill="#231F20"/>
<path id="Vector_8" d="M35.6912 30.7005C35.6368 30.5917 34.1417 27.9006 33.8427 25.8075C33.6253 24.3668 33.6524 23.4969 33.9243 23.3066L34.1689 23.66C34.1961 23.6328 34.1961 23.6328 34.1961 23.6328C34.1961 23.6328 33.9786 23.9862 34.2505 25.7531C34.5495 27.7647 36.0446 30.4558 36.0446 30.483L35.6912 30.7005Z" fill="#231F20"/>
<path id="Vector_9" d="M44.607 24.0407C44.3895 24.0407 44.1992 24.0407 43.9818 24.0407C42.677 23.9863 41.3178 23.7688 39.9586 23.3883C37.6209 22.7631 36.0986 21.8932 36.0171 21.8388L36.2346 21.4583C36.2617 21.4583 37.8112 22.3281 40.0946 22.9533C41.4265 23.3067 42.7585 23.5242 44.0089 23.5785C45.5856 23.6329 47.1078 23.4698 48.4942 23.0349C49.8805 22.6 51.2668 21.9747 52.5988 21.1592C53.659 20.5069 54.6919 19.7457 55.6433 18.903C57.2743 17.4352 58.1985 16.2119 58.1985 16.2119L58.5519 16.4566C58.5247 16.5109 57.6005 17.7342 55.9423 19.2292C54.9637 20.0991 53.9036 20.8874 52.8163 21.5398C51.4571 22.3553 50.0436 23.0077 48.6301 23.4426C47.3525 23.8504 45.9933 24.0407 44.607 24.0407Z" fill="#231F20"/>
<path id="Vector_10" d="M46.9448 31.5702C46.9176 31.5702 46.1293 31.4071 44.9604 30.945C43.8731 30.51 42.2421 29.6945 40.6111 28.3354C37.5122 25.753 35.4735 23.4424 35.4463 23.4152L35.7725 23.1162C35.7997 23.1434 37.8112 25.4268 40.8829 27.982C42.4595 29.314 44.0633 30.1023 45.0963 30.51C46.238 30.9721 46.9991 31.1352 47.0263 31.1352L46.9448 31.5702Z" fill="#231F20"/>
<path id="Vector_11" d="M28.9496 24.1227C28.8408 24.1227 28.7593 24.1227 28.7593 24.1227V23.6878C28.7865 23.6878 30.3359 23.7149 31.097 23.4975C31.8582 23.28 32.8911 22.5732 32.8911 22.5732L33.1358 22.9266C33.0814 22.9538 32.0484 23.6878 31.2058 23.9324C30.5534 24.0955 29.4117 24.1227 28.9496 24.1227Z" fill="#231F20"/>
<path id="Vector_12" d="M32.5104 21.2135C32.456 21.1864 31.1241 20.7242 29.7921 19.9631C28.4873 19.202 26.5845 17.5982 26.5029 17.5166L26.7748 17.1904C26.8019 17.2176 28.7048 18.8486 29.9824 19.5825C31.26 20.3165 32.592 20.7786 32.6191 20.7786L32.5104 21.2135Z" fill="#231F20"/>
<path id="Vector_13" d="M39.0072 27.8187C38.7354 27.8187 38.5179 27.8187 38.4907 27.8187L38.5179 27.3838C38.7354 27.3838 39.4149 27.411 39.6868 27.3566C40.0402 27.3023 40.8285 27.0576 40.8285 27.0576L40.9372 27.4654C40.91 27.4654 40.1217 27.71 39.7411 27.7644C39.5509 27.7916 39.2518 27.8187 39.0072 27.8187Z" fill="#231F20"/>
<path id="Vector_14" d="M39.9039 28.9879C39.6593 28.9879 39.4418 28.9879 39.2787 28.9607C38.735 28.9064 38.436 28.8248 38.436 28.8248L38.572 28.4171C38.572 28.4171 39.6865 28.7433 41.5621 28.4171C42.5407 28.254 43.1931 27.9821 43.5736 27.7919C43.9542 27.6016 44.1173 27.4385 44.1173 27.4385L44.4163 27.7647C44.3891 27.7919 43.628 28.4986 41.6436 28.852C40.9369 28.9607 40.366 28.9879 39.9039 28.9879Z" fill="#231F20"/>
<path id="Vector_15" d="M40.8827 29.9664V29.5315C40.9098 29.5315 43.0029 29.5043 45.1232 28.5801C47.2435 27.6559 47.9231 26.4326 47.9503 26.4326L48.3308 26.6501C48.3037 26.7044 47.5697 27.9821 45.3135 28.9878C43.0573 29.9392 40.9642 29.9664 40.8827 29.9664Z" fill="#231F20"/>
<path id="Vector_16" d="M41.2634 30.809C39.7139 30.809 38.681 30.5372 38.6538 30.5372L38.7625 30.1022C38.7897 30.1022 39.9586 30.4013 41.644 30.3469C42.6225 30.3197 43.6011 30.1838 44.5254 29.9391C45.6671 29.6401 46.7544 29.1508 47.7602 28.4984C48.7388 27.846 49.5814 27.1121 50.261 26.2422C50.8047 25.5627 51.2396 24.8015 51.5658 24.0132C52.0007 22.9259 52.1366 21.9745 52.1638 21.6211H52.5988C52.5988 21.6755 52.5716 22.7356 52.0007 24.1491C51.6473 24.9918 51.1852 25.7801 50.6416 26.4869C49.9348 27.3839 49.0378 28.1722 48.0048 28.8518C46.9718 29.5314 45.8573 30.0207 44.6341 30.3469C43.6827 30.5915 42.6769 30.7546 41.644 30.7818C41.508 30.809 41.3721 30.809 41.2634 30.809Z" fill="#231F20"/>
<path id="Vector_17" d="M45.8574 31.217L45.6943 30.8093C45.6943 30.8093 46.6186 30.4559 47.8146 29.7492C48.9291 29.0968 50.5057 28.0366 51.7834 26.5959C52.4901 25.8076 53.4415 24.3941 54.1211 22.1922C54.5289 20.8603 54.6376 19.8817 54.6376 19.8545L55.0725 19.9089C55.0725 19.9632 54.9638 20.9418 54.556 22.301C54.1755 23.5514 53.4415 25.3727 52.1367 26.8677C50.8319 28.3628 49.201 29.4501 48.0593 30.1297C46.8088 30.8365 45.8846 31.1899 45.8574 31.217Z" fill="#231F20"/>
</g>
</g>
</g>
<g id="TACO_1_">
<g id="Group_5">
<path id="TACO_00000124843558135366058450000003919067626015724938_" d="M18.6474 54.1598C18.729 53.9695 18.8921 53.7792 19.0552 53.6433L42.1337 36.8441L58.8785 24.3942C58.8785 24.3942 64.2607 20.643 68.6644 24.9107C68.6644 24.9107 72.0623 28.2543 69.2353 33.6909C68.9091 34.3161 68.447 34.8598 67.8761 35.2675C60.1833 40.9488 28.4877 64.5709 27.3732 65.4136C27.346 65.4408 27.3189 65.4408 27.2917 65.4408C27.1014 65.468 26.3674 65.5495 25.0626 65.1146C23.5676 64.5981 21.5017 64.9787 21.5017 64.9787C21.5017 64.9787 21.4473 64.9787 20.5231 65.468C19.6804 65.9301 7.42078 74.9005 5.95289 75.9607C5.81698 76.0694 5.68106 76.2053 5.59951 76.3412C5.54515 76.4228 5.51796 76.5315 5.49078 76.6403C5.4636 76.9121 5.6267 77.7276 5.21895 77.9722C4.8112 78.2169 4.10444 78.1897 3.80543 77.7548C3.75106 77.7004 3.66951 77.7004 3.61514 77.6732L1.44049 77.5101C1.44049 77.5101 0.516265 77.646 0.706547 76.5587C0.89683 75.4714 1.05993 74.4384 1.05993 74.4384C1.05993 74.4384 1.11429 74.2753 0.842463 73.8948C0.706547 73.6773 0.624998 73.4326 0.652181 73.188C0.706547 72.8074 0.869646 72.3725 1.49486 72.4269C1.49486 72.4269 2.36472 72.7531 2.85402 72.3453C3.34331 71.9376 16.8262 60.9012 16.8262 60.9012L18.1038 59.7867C18.1038 59.7867 18.9736 59.0799 18.8105 56.8781C18.7018 55.383 18.6202 54.785 18.5931 54.5404C18.6202 54.4044 18.6202 54.2685 18.6474 54.1598Z" fill="#E10600"/>
<path id="Vector_18" d="M4.64789 78.4341C4.59352 78.4341 4.53916 78.4341 4.48479 78.4341C4.13141 78.4069 3.8324 78.2438 3.6693 77.9992L1.52183 77.8361C1.38591 77.8361 1.00535 77.8633 0.706334 77.5643C0.488869 77.3196 0.40732 76.9934 0.461686 76.5313C0.624785 75.444 0.815067 74.411 0.815067 74.3838C0.815067 74.3567 0.787884 74.2479 0.651968 74.0576C0.461686 73.7858 0.380137 73.4596 0.434503 73.1334C0.516052 72.4267 0.950982 72.0461 1.60338 72.1005H1.63056L1.65774 72.1276C1.84803 72.2092 2.44606 72.3451 2.71789 72.1005C3.20718 71.6927 16.092 61.1728 16.69 60.6564L17.9676 59.5418C17.9948 59.5147 18.1579 59.3516 18.321 58.971C18.4841 58.5904 18.6472 57.9109 18.5657 56.8779C18.4569 55.3828 18.3754 54.7848 18.3482 54.5673C18.321 54.4042 18.321 54.2139 18.3754 54.0508V54.0237V53.9965C18.4841 53.7518 18.6744 53.5344 18.8919 53.3713L41.9704 36.5721L58.7152 24.1222C58.7695 24.095 60.1287 23.1436 62.0587 22.7359C63.2004 22.4912 64.3149 22.4912 65.3479 22.7087C66.6526 23.0077 67.8215 23.6601 68.8817 24.6659C68.9089 24.693 69.7787 25.5629 70.2952 27.1395C70.5942 28.0638 70.7029 29.0152 70.6486 30.0209C70.567 31.2442 70.1865 32.5218 69.5069 33.7994C69.1807 34.4518 68.6642 35.0226 68.0662 35.4848C60.4277 41.1389 28.8953 64.6251 27.5633 65.6309C27.5089 65.6852 27.4274 65.7124 27.373 65.7124C27.1555 65.7396 26.34 65.8483 25.0081 65.359C23.6761 64.8969 21.8276 65.1959 21.6102 65.2231C21.5558 65.2503 21.3655 65.3319 20.6859 65.6852C20.0064 66.0386 11.2262 72.4267 6.14296 76.1507C6.03423 76.2323 5.95268 76.341 5.87113 76.4498C5.81677 76.5313 5.81677 76.6129 5.81677 76.64C5.81677 76.6944 5.81677 76.776 5.81677 76.8575C5.84395 77.2653 5.87113 77.9177 5.38184 78.1895C5.19155 78.3526 4.89254 78.4341 4.64789 78.4341ZM1.44028 77.2381H1.46746L3.64211 77.4012C3.77803 77.4012 3.88676 77.4555 3.9955 77.5371L4.04986 77.5643L4.07705 77.6186C4.26733 77.8905 4.78381 77.9176 5.08282 77.7274C5.24592 77.6186 5.21874 77.1837 5.21874 76.9119C5.21874 76.8031 5.21874 76.6944 5.21874 76.64C5.21874 76.5041 5.2731 76.3682 5.35465 76.2323C5.46339 76.042 5.5993 75.8789 5.78958 75.743C8.07297 74.0576 19.5443 65.6852 20.4141 65.2231C21.3112 64.761 21.4199 64.7066 21.4743 64.7066C21.6645 64.6795 23.6761 64.3261 25.1712 64.8426C26.34 65.2503 27.0468 65.1959 27.2371 65.1688C28.8953 63.9183 60.1015 40.6496 67.7128 35.0498C68.2565 34.6693 68.6914 34.1528 68.9904 33.5819C69.6156 32.3859 69.969 31.1898 70.0505 30.0481C70.1049 29.1239 70.0234 28.254 69.7515 27.4114C69.2894 25.9707 68.4739 25.1552 68.4739 25.1552C67.5225 24.2309 66.4352 23.6057 65.2391 23.3611C64.2877 23.1436 63.2819 23.1436 62.2218 23.3883C60.4549 23.7688 59.1501 24.6387 59.0686 24.693L42.3509 37.1429L19.2724 53.9421C19.1365 54.0508 19.0278 54.1596 18.9462 54.3227C18.919 54.377 18.919 54.4586 18.9462 54.5401C19.0006 54.812 19.0821 55.4644 19.1909 56.9051C19.2724 57.8837 19.1637 58.6992 18.8647 59.3244C18.6472 59.7865 18.4297 60.004 18.3754 60.0583L17.0978 61.1728C16.9619 61.2816 3.58775 72.2092 3.12563 72.6169C2.58197 73.0791 1.71211 72.8344 1.52183 72.7529C1.30436 72.7257 1.0869 72.8072 1.03253 73.2693C1.00535 73.4596 1.05972 73.6227 1.16845 73.7858C1.44028 74.1936 1.46746 74.4382 1.4131 74.5741C1.38591 74.71 1.22281 75.6886 1.05972 76.6944C1.03253 76.8575 1.03253 77.1022 1.14126 77.2109C1.25 77.3196 1.46746 77.3196 1.49465 77.3196L1.44028 77.2381Z" fill="#231F20"/>
</g>
<g id="CABO">
<path id="Vector_19" d="M1.09883 73.7559L0.80127 73.9932L3.98711 77.989L4.28467 77.7518L1.09883 73.7559Z" fill="#231F20"/>
<path id="Vector_20" d="M5.38147 77.293L4.3757 75.7708C3.96795 75.1456 3.50584 74.5475 3.01654 74.0039L1.76611 72.5903L2.03794 72.3457L3.28837 73.7592C3.80485 74.3301 4.26696 74.9553 4.67471 75.5805L5.68049 77.1028L5.38147 77.293Z" fill="#231F20"/>
<path id="Vector_21" d="M3.6963 77.2381L3.5332 76.9118L3.8594 76.7487C4.04968 76.64 4.21278 76.5313 4.37588 76.3954L4.75644 76.042L5.00109 76.3138L4.62053 76.6672C4.43025 76.8303 4.23996 76.9662 4.0225 77.0749L3.6963 77.2381Z" fill="#231F20"/>
<path id="Vector_22" d="M6.03391 75.8249L5.7349 75.1453C5.68053 75.0094 5.62617 74.9006 5.5718 74.8191C5.16405 74.1123 4.64757 73.4327 4.10391 72.8347C3.99518 72.726 3.85926 72.5901 3.75053 72.4813L3.26123 72.0736L3.50588 71.8018L3.99518 72.2095C4.13109 72.3182 4.26701 72.4542 4.37574 72.5901C4.94659 73.2153 5.46307 73.8949 5.898 74.6288C5.95236 74.7375 6.03391 74.8735 6.08828 75.0094L6.38729 75.6889L6.03391 75.8249Z" fill="#231F20"/>
<path id="Vector_23" d="M7.09446 75.1178L6.79544 74.4383C6.74108 74.3023 6.68671 74.1936 6.63234 74.1121C6.2246 73.4053 5.70812 72.7257 5.16446 72.1277C5.05572 72.019 4.91981 71.883 4.81107 71.7743L4.32178 71.3666L4.56643 71.0947L5.05572 71.5025C5.19164 71.6112 5.32755 71.7471 5.43629 71.883C6.00713 72.5082 6.52361 73.1878 6.95854 73.9218C7.01291 74.0305 7.09446 74.1664 7.14882 74.3023L7.44784 74.9819L7.09446 75.1178Z" fill="#231F20"/>
<path id="Vector_24" d="M7.99143 74.3571L7.69242 73.6775C7.63805 73.5416 7.58368 73.4329 7.52932 73.3513C7.12157 72.6445 6.60509 71.965 6.06143 71.3669C5.9527 71.2582 5.81678 71.1223 5.70805 71.0136L5.21875 70.6058L5.4634 70.334L5.9527 70.7417C6.08861 70.8505 6.22453 70.9864 6.33326 71.1223C6.90411 71.7475 7.42059 72.4271 7.85552 73.161C7.90988 73.2698 7.99143 73.4057 8.0458 73.5416L8.34481 74.2212L7.99143 74.3571Z" fill="#231F20"/>
<path id="Vector_25" d="M9.15989 73.3786L8.86087 72.699C8.80651 72.5631 8.75214 72.4543 8.69777 72.3728C8.29003 71.666 7.77355 70.9865 7.22988 70.3884C7.12115 70.2797 6.98524 70.1438 6.8765 70.035L6.38721 69.6273L6.63185 69.3555L7.12115 69.7632C7.25707 69.8719 7.39298 70.0079 7.50172 70.1438C8.07256 70.769 8.58904 71.4486 9.02397 72.1825C9.07834 72.2912 9.15989 72.4272 9.21425 72.5631L9.51327 73.2427L9.15989 73.3786Z" fill="#231F20"/>
<path id="Vector_26" d="M10.2473 72.5905L9.94828 71.9109C9.89391 71.775 9.83954 71.6663 9.78518 71.5847C9.37743 70.878 8.86095 70.1984 8.31729 69.6003C8.20855 69.4916 8.07264 69.3557 7.96391 69.247L7.47461 68.8392L7.71926 68.5674L8.20855 68.9751C8.34447 69.0839 8.48039 69.2198 8.58912 69.3557C9.15996 69.9809 9.67644 70.6605 10.1114 71.3944C10.1657 71.5032 10.2473 71.6391 10.3017 71.775L10.6007 72.4546L10.2473 72.5905Z" fill="#231F20"/>
<path id="Vector_27" d="M11.2805 71.938L10.8999 71.0953C10.8456 70.9594 10.7912 70.8507 10.7368 70.7419C10.3291 70.0352 9.81261 69.3556 9.26895 68.7576C9.16021 68.6488 9.0243 68.5129 8.91557 68.4042L8.42627 67.9964L8.67092 67.7246L9.16021 68.1324C9.29613 68.2411 9.43205 68.377 9.54078 68.5129C10.1116 69.1381 10.6281 69.8177 11.063 70.5517C11.1174 70.6604 11.1989 70.7963 11.2533 70.9322L11.6339 71.7749L11.2805 71.938Z" fill="#231F20"/>
<path id="Vector_28" d="M12.3404 71.1218L11.9598 70.3334C11.9055 70.1975 11.8511 70.0888 11.7967 70.0072C11.389 69.3005 10.8725 68.6209 10.3289 68.0229C10.2201 67.9141 10.0842 67.7782 9.97547 67.6967L9.37744 67.2346L9.59491 66.9355L10.2201 67.3977C10.356 67.5064 10.492 67.6423 10.6007 67.7782C11.1715 68.4034 11.688 69.083 12.1229 69.817C12.1773 69.9257 12.2589 70.0616 12.3132 70.1975L12.6938 70.9858L12.3404 71.1218Z" fill="#231F20"/>
<path id="Vector_29" d="M13.6182 70.361L13.1561 69.3553C13.1018 69.2193 13.0474 69.1106 12.993 69.0291C12.5853 68.3223 12.0688 67.6427 11.5251 67.0447C11.4164 66.936 11.2805 66.8 11.1718 66.6913L10.4922 66.1476L10.7097 65.8486L11.4164 66.3923C11.5523 66.501 11.6882 66.6369 11.797 66.7729C12.3678 67.3981 12.8843 68.0777 13.3192 68.8116C13.3736 68.9203 13.4551 69.0562 13.5095 69.1922L13.9716 70.1979L13.6182 70.361Z" fill="#231F20"/>
<path id="Vector_30" d="M14.6241 69.4636L14.162 68.4578C14.1076 68.3219 14.0533 68.2132 13.9989 68.1316C13.5911 67.4248 13.0747 66.7453 12.531 66.1472C12.4223 66.0385 12.2864 65.9026 12.1776 65.7939L11.498 65.2502L11.7155 64.9512L12.4223 65.4948C12.5582 65.6036 12.6941 65.7395 12.8028 65.8754C13.3737 66.5006 13.8902 67.1802 14.3251 67.9141C14.3795 68.0229 14.461 68.1588 14.5154 68.2947L14.9775 69.3005L14.6241 69.4636Z" fill="#231F20"/>
<path id="Vector_31" d="M15.6842 68.6218L15.2221 67.616C15.1677 67.4801 15.1133 67.3713 15.059 67.2898C14.6512 66.583 14.1347 65.9035 13.5911 65.3054C13.4823 65.1967 13.3464 65.0608 13.2377 64.952L12.5581 64.4084L12.7756 64.1094L13.4823 64.653C13.6182 64.7618 13.7542 64.8977 13.8629 65.0336C14.4337 65.6588 14.9502 66.3384 15.3852 67.0723C15.4395 67.1811 15.5211 67.317 15.5754 67.4529L16.0375 68.4587L15.6842 68.6218Z" fill="#231F20"/>
<path id="Vector_32" d="M16.9073 67.8054L16.4452 66.7996C16.3908 66.6637 16.3365 66.5549 16.2821 66.4734C15.8744 65.7666 15.3579 65.0871 14.8142 64.489C14.7055 64.3803 14.5696 64.2444 14.4608 64.1356L13.7812 63.592L13.9987 63.293L14.7055 63.8366C14.8414 63.9454 14.9773 64.0813 15.086 64.2172C15.6569 64.8424 16.1734 65.522 16.6083 66.2559C16.6627 66.3647 16.7442 66.5006 16.7986 66.6365L17.2607 67.6423L16.9073 67.8054Z" fill="#231F20"/>
<path id="Vector_33" d="M17.9947 66.9899L17.5326 65.9842C17.4782 65.8482 17.4239 65.7395 17.3695 65.658C16.9618 64.9512 16.4453 64.2716 15.9016 63.6736C15.7929 63.5649 15.657 63.4289 15.5482 63.3202L14.8687 62.7766L15.0861 62.4775L15.7929 63.0212C15.9288 63.1299 16.0647 63.2658 16.1734 63.4018C16.7443 64.027 17.2608 64.7066 17.6957 65.4405C17.7501 65.5492 17.8316 65.6851 17.886 65.8211L18.3481 66.8268L17.9947 66.9899Z" fill="#231F20"/>
<path id="Vector_34" d="M18.9461 66.365L18.4296 65.2233C18.3752 65.0874 18.3208 64.9786 18.2665 64.8699C17.8587 64.1631 17.3422 63.4835 16.7986 62.8855C16.6899 62.7768 16.5539 62.6409 16.4452 62.5321L15.7656 61.9885L15.9831 61.6895L16.6899 62.2331C16.8258 62.3418 16.9617 62.4778 17.0704 62.6137C17.6413 63.2389 18.1577 63.9185 18.5927 64.6524C18.647 64.7612 18.7286 64.8971 18.783 65.033L19.2994 66.1747L18.9461 66.365Z" fill="#231F20"/>
<path id="Vector_35" d="M19.9518 65.7673L19.4081 64.4897C19.3537 64.3538 19.2994 64.2451 19.245 64.1363C18.8372 63.4024 18.3751 62.75 17.8315 62.0976C17.7227 61.9617 17.614 61.853 17.4781 61.7442L16.6626 61.0375L16.9072 60.7656L17.7227 61.4724C17.8587 61.5811 17.9946 61.717 18.1033 61.853C18.6742 62.5053 19.1363 63.1849 19.5712 63.9461C19.6256 64.0548 19.7071 64.1907 19.7615 64.3266L20.3051 65.6042L19.9518 65.7673Z" fill="#231F20"/>
<path id="Vector_36" d="M21.1481 65.0875L20.5228 63.6196C20.4685 63.4837 20.4141 63.375 20.3597 63.2662C19.952 62.5323 19.4899 61.8799 18.9462 61.2275C18.8375 61.0916 18.7288 60.9828 18.5928 60.8741L17.7773 60.1673L18.022 59.8955L18.8375 60.6023C18.9734 60.711 19.1093 60.8469 19.218 60.9828C19.7889 61.6352 20.251 62.3148 20.6859 63.0759C20.7403 63.1847 20.8219 63.3206 20.8762 63.4565L21.5014 64.9244L21.1481 65.0875Z" fill="#231F20"/>
<path id="Vector_37" d="M22.0177 64.734V64.6796C21.9362 64.0273 21.8274 63.6467 21.7187 63.2933L21.6915 63.2389C21.6371 63.0487 21.5556 62.8584 21.474 62.7225C21.0663 61.9885 20.6042 61.3361 20.0605 60.6837C19.9518 60.5478 19.8431 60.4391 19.7071 60.3303L19.6256 60.2488C19.2994 59.9498 18.946 59.6779 18.5383 59.4605L18.4023 59.3789L18.5926 59.0527L18.7285 59.1343C19.1363 59.3789 19.5169 59.6508 19.8702 59.977L19.9518 60.0585C20.0877 60.1672 20.2236 60.3032 20.3323 60.4391C20.9032 61.0915 21.3653 61.7711 21.8002 62.5322C21.909 62.7225 21.9905 62.9127 22.0449 63.1302L22.0721 63.1846C22.1808 63.538 22.2895 63.9457 22.3983 64.6253V64.6796L22.0177 64.734Z" fill="#231F20"/>
<path id="Vector_38" d="M20.3867 59.0256L20.278 58.9441C19.8158 58.6451 19.3265 58.4004 18.8101 58.2645L18.8916 57.9111C19.4625 58.047 20.0061 58.2917 20.4682 58.6179L20.577 58.6994L20.3867 59.0256Z" fill="#231F20"/>
<path id="Vector_39" d="M24.4368 64.9517L24.3281 63.5925C24.2737 62.777 24.0834 61.9887 23.7844 61.2276L23.7572 61.146C23.4039 60.249 22.8602 59.4335 22.1806 58.7267C21.6098 58.1287 20.8758 57.6938 20.1147 57.4219L18.7827 56.9598L18.8914 56.6064L20.2234 57.0686C21.0661 57.3676 21.8272 57.8297 22.4524 58.4549C23.1864 59.1888 23.73 60.0315 24.1106 60.9829L24.1378 61.0645C24.4368 61.8528 24.6271 62.6955 24.7086 63.5382L24.8174 64.8973L24.4368 64.9517Z" fill="#231F20"/>
<path id="Vector_40" d="M23.4313 64.707L23.0508 64.6798C23.1595 62.6954 22.0722 60.847 21.2295 59.6237L21.5285 59.4062C22.3984 60.6839 23.5401 62.6139 23.4313 64.707Z" fill="#231F20"/>
<path id="Vector_41" d="M4.91979 75.9879L4.56641 75.8792L4.64796 75.6345C4.78387 75.2268 5.02852 74.8462 5.32753 74.5472L5.43627 74.4385L5.7081 74.7103L5.59937 74.819C5.32753 75.0909 5.13725 75.4171 5.00134 75.7705L4.91979 75.9879Z" fill="#231F20"/>
<path id="Vector_42" d="M3.96813 74.7378L3.61475 74.6018L3.6963 74.3572C3.83221 73.9494 4.07686 73.5689 4.40306 73.2699L4.51179 73.1611L4.75644 73.433L4.6477 73.5417C4.37587 73.7863 4.15841 74.1125 4.04968 74.4659L3.96813 74.7378Z" fill="#231F20"/>
<path id="Vector_43" d="M18.6547 62.8527L4.53711 73.1582L4.76149 73.4656L18.8791 63.1601L18.6547 62.8527Z" fill="#231F20"/>
<path id="Vector_44" d="M19.461 64.2461L5.45605 74.4277L5.67983 74.7355L19.6847 64.5539L19.461 64.2461Z" fill="#231F20"/>
<path id="Vector_45" d="M19.6799 64.5434L19.4624 64.2444C19.843 63.9725 20.2507 63.7551 20.6856 63.6191L20.7944 63.9725C20.4138 64.1084 20.0332 64.2987 19.6799 64.5434Z" fill="#231F20"/>
<path id="Vector_46" d="M18.9191 63.1029L18.7017 62.8039C19.0822 62.5321 19.49 62.3146 19.9249 62.1787L20.0336 62.5321C19.6531 62.6408 19.2725 62.8311 18.9191 63.1029Z" fill="#231F20"/>
<path id="Vector_47" d="M20.0607 62.505L19.9248 62.1516L20.4685 61.9341C20.9578 61.7438 21.4471 61.6351 21.9635 61.5807L22.6159 61.5264L22.6431 61.9069L21.9907 61.9613C21.5014 62.0157 21.0393 62.1244 20.6044 62.2875L20.0607 62.505Z" fill="#231F20"/>
<path id="Vector_48" d="M20.8488 63.9457L20.7129 63.5923L20.9304 63.5108C21.9089 63.103 22.9691 62.9127 24.002 62.9671L24.4913 62.9943L24.4642 63.3749L23.9749 63.3477C22.9691 63.2933 21.9633 63.4836 21.0663 63.8641L20.8488 63.9457Z" fill="#231F20"/>
</g>
<g id="LEIX&#195;&#149;ES_SPORT_CLUB">
<g id="LEIX&#195;&#149;ES">
<g id="Group_6">
<path id="L_00000111151651605459713100000012006155011173462176_" d="M22.8882 55.7627L23.4862 53.7783L27.8083 60.0576L31.7771 56.7956L32.1305 58.6441L27.3462 62.0148L22.8882 55.7627Z" fill="white"/>
<path id="Vector_49" d="M27.3461 62.0418L22.8608 55.7625L23.4861 53.751V53.7782L27.781 60.0575L31.7497 56.7955L32.1031 58.6439L27.3461 62.0418ZM22.888 55.7353L27.3461 61.9875L32.1031 58.6168L31.7497 56.8227L27.8082 60.0847L23.5132 53.8053L22.888 55.7353Z" fill="#231F20"/>
</g>
<g id="Group_7">
<path id="E_x5F_1_00000157289688327887019400000003979461351190288281_" d="M25.1719 55.518L27.564 58.8072L29.6571 57.1762L29.3581 56.2792L28.1892 57.5296L27.265 56.551L28.2436 56.1161L27.564 55.3006L26.9931 55.9801L26.4495 55.3006L27.863 54.4579L27.1834 53.9414L25.1719 55.518Z" fill="white"/>
<path id="Vector_50" d="M27.5635 58.8342L25.1714 55.5179L27.1829 53.9141L27.8897 54.4577L26.449 55.3004L26.9927 55.9528L27.5635 55.2732L28.2431 56.1159L27.2645 56.578L28.1887 57.5294L29.3576 56.2518L29.6566 57.176L27.5635 58.8342ZM25.1986 55.5179L27.5635 58.7798L29.6294 57.1489L29.3576 56.279L28.1887 57.5294L27.2373 56.5508L28.2159 56.0887L27.5635 55.3004L26.9927 55.98L26.4218 55.2732L27.8353 54.4305L27.1829 53.9141L25.1986 55.5179Z" fill="#231F20"/>
</g>
<g id="Group_8">
<path id="I_00000093155128884720694210000014950202920942082475_" d="M30.2547 56.6596L31.2605 55.9529L28.9228 52.7725L27.9985 53.4792L30.2547 56.6596Z" fill="white"/>
<path id="Vector_51" d="M30.2274 56.6868L27.9712 53.4792L28.8954 52.7725L31.2332 55.9801L30.2274 56.6868ZM28.0256 53.4792L30.2546 56.6325L31.2332 55.9257L28.9226 52.7725L28.0256 53.4792Z" fill="#231F20"/>
</g>
<g id="Group_9">
<path id="X_00000121267072359482329390000000957548447566192534_" d="M31.5596 55.7091L32.3479 55.1382L32.1304 53.3441L33.7886 53.9965L34.8216 53.3441L32.1304 52.3384V50.4355L31.3965 50.9248V52.0665L30.3907 51.5501L29.4937 52.3384L31.5052 53.0723L31.5596 55.7091Z" fill="white"/>
<path id="Vector_52" d="M31.5596 55.7361L31.5052 53.0722L29.4937 52.311L30.4179 51.5227L31.4237 52.012V50.8975L32.1576 50.4082V52.3382L34.8759 53.344L33.8158 53.9964L32.1848 53.344L32.4022 55.1109L31.5596 55.7361ZM29.5208 52.3382L31.5324 53.0722L31.5868 55.7089L32.3479 55.1381L32.1304 53.344L33.7886 53.9964L34.7944 53.3712L32.1304 52.3654V50.4626L31.4508 50.9247V52.0664L30.4179 51.5499L29.5208 52.3382Z" fill="#231F20"/>
</g>
<g id="Group_10">
<path id="_x7E__00000039819993696468977030000007889765548415468683_" d="M32.0493 49.0218C32.0493 49.0218 32.7833 48.6956 33.3269 48.2063C33.3813 48.152 33.4357 48.1248 33.49 48.1248C33.8434 48.0704 34.3055 48.3694 34.3055 48.3694C34.3055 48.3694 33.3269 49.0762 33.0279 49.2121C32.7833 49.2393 32.4571 49.3752 32.0493 49.0218Z" fill="white"/>
<path id="Vector_53" d="M32.6469 49.2666C32.4566 49.2666 32.2663 49.2122 32.0488 49.0219H32.076C32.076 49.0219 32.8371 48.6957 33.3536 48.2064C33.408 48.152 33.4624 48.1249 33.5167 48.1249C33.707 48.0977 33.9245 48.1792 34.0604 48.2336C34.2235 48.3151 34.3322 48.3695 34.3322 48.3695C34.3322 48.3695 33.3536 49.0763 33.0546 49.2122C33.0274 49.2122 32.9731 49.2122 32.9459 49.2394C32.8371 49.2394 32.7556 49.2666 32.6469 49.2666ZM32.076 49.0219C32.4022 49.3209 32.7012 49.2666 32.9187 49.2122C32.9731 49.2122 33.0002 49.185 33.0274 49.185C33.2993 49.0491 34.1691 48.4511 34.2778 48.3423C34.1963 48.288 33.7885 48.0433 33.4624 48.0977C33.408 48.0977 33.3536 48.1249 33.2993 48.1792C32.8643 48.6413 32.1847 48.9675 32.076 49.0219Z" fill="#231F20"/>
</g>
<g id="Group_11">
<path id="O_00000106115995458752853820000008153372985428247184_" d="M36.2354 49.9729C35.6102 48.9671 34.4141 48.5865 33.5714 49.103C32.7287 49.6195 32.5656 50.8699 33.1637 51.8485C33.7889 52.8543 34.9849 53.2349 35.8276 52.7184C36.6975 52.2291 36.8606 50.9787 36.2354 49.9729ZM35.5286 52.1204C35.1752 52.365 34.5228 52.0116 34.0879 51.332C33.653 50.6796 33.5986 49.9457 33.9792 49.7011C34.3325 49.4564 34.9849 49.8098 35.4199 50.4894C35.8276 51.1689 35.882 51.9029 35.5286 52.1204Z" fill="white"/>
<path id="Vector_54" d="M35.0119 52.9905C34.3323 52.9905 33.6256 52.5828 33.1907 51.9032C32.8916 51.4139 32.7557 50.8702 32.8373 50.3266C32.9188 49.8101 33.1907 49.3752 33.5984 49.1305C34.0061 48.8859 34.5226 48.8315 35.0119 48.9946C35.5284 49.1577 35.9633 49.5111 36.2623 50.0004C36.5614 50.4897 36.6973 51.0333 36.6157 51.577C36.5342 52.0935 36.2623 52.5284 35.8546 52.7731C35.5828 52.909 35.3109 52.9905 35.0119 52.9905ZM34.4139 48.913C34.1149 48.913 33.843 48.9946 33.5712 49.1577C33.1635 49.4023 32.8916 49.8373 32.8373 50.3538C32.7557 50.8702 32.8916 51.4139 33.1907 51.9032C33.8159 52.8818 34.9847 53.2895 35.8274 52.7459C36.2352 52.5012 36.507 52.0663 36.5614 51.5498C36.6429 51.0333 36.507 50.4897 36.208 50.0004C35.909 49.5111 35.474 49.1577 34.9576 48.9946C34.7945 48.9402 34.6042 48.913 34.4139 48.913ZM35.2566 52.2022C35.1207 52.2022 34.9847 52.1478 34.8216 52.0663C34.5498 51.9304 34.278 51.6585 34.0605 51.3323C33.843 51.0062 33.7343 50.6528 33.7071 50.3538C33.6799 50.0276 33.7615 49.8101 33.9518 49.7014C34.1421 49.5926 34.3867 49.5926 34.6585 49.7557C34.9304 49.8916 35.2022 50.1635 35.4197 50.4897C35.8546 51.1692 35.909 51.9032 35.5284 52.1478C35.4469 52.175 35.3653 52.2022 35.2566 52.2022ZM34.2236 49.647C34.1149 49.647 34.0333 49.6742 33.9518 49.7285C33.7887 49.8373 33.7071 50.0819 33.7071 50.3809C33.7343 50.68 33.843 51.0333 34.0605 51.3595C34.278 51.6857 34.5226 51.9304 34.7945 52.0935C35.0663 52.2294 35.3109 52.2566 35.474 52.1478C35.8274 51.9032 35.7731 51.1964 35.3653 50.5169C35.1478 50.1907 34.9032 49.946 34.6314 49.7829C34.4954 49.7014 34.3595 49.647 34.2236 49.647Z" fill="#231F20"/>
</g>
<g id="Group_12">
<path id="E_x5F_2_00000024708076737968148890000013157209798429789076_" d="M35.2295 48.0434L37.6216 51.3326L39.6875 49.6744L39.4157 48.7774L38.2468 50.055L37.2954 49.0764L38.274 48.6143L37.6216 47.826L37.0508 48.5055L36.4799 47.826L37.9206 46.9833L37.241 46.4668L35.2295 48.0434Z" fill="white"/>
<path id="Vector_55" d="M37.5943 51.3323L35.2021 48.0159L37.2137 46.4121L37.9205 46.9558L36.4798 47.7985L37.0234 48.4508L37.5943 47.7713L38.2738 48.6139L37.2953 49.0761L38.2195 50.0275L39.3884 48.7499L39.6874 49.6741L37.5943 51.3323ZM35.2293 48.0431L37.5943 51.3051L39.6602 49.6741L39.3884 48.8042L38.2195 50.0547L37.2681 49.0761L38.2467 48.6139L37.5943 47.8256L37.0234 48.5052L36.4526 47.7985L37.8661 46.9558L37.2137 46.4393L35.2293 48.0431Z" fill="#231F20"/>
</g>
<g id="Group_13">
<path id="Vector_56" d="M39.9048 48.0973V49.0487C39.9048 49.0487 42.4328 49.2661 42.0251 47.0915C42.0251 47.0643 41.9979 47.0099 41.9707 46.9828C41.8348 46.7653 41.2912 45.977 39.9048 46.5478C39.9048 46.5478 39.1437 46.7109 39.2796 45.9498C39.2796 45.9498 39.334 45.5692 40.0407 45.8411L40.0951 45.1615C40.0951 45.1615 39.0078 44.8897 38.5728 45.678C38.5728 45.678 37.9748 46.7109 39.0893 47.309C39.0893 47.309 39.3612 47.3633 39.932 47.2818C40.5028 47.2002 41.0465 46.9556 41.1281 47.5536C41.1281 47.5808 41.2096 48.505 39.9048 48.0973Z" fill="white"/>
<path id="Vector_57" d="M40.095 49.0484C39.9863 49.0484 39.9048 49.0484 39.9048 49.0484V48.0698H39.932C40.3941 48.2057 40.7474 48.2057 40.9377 48.0426C41.1552 47.8795 41.128 47.5805 41.128 47.5805C41.1008 47.4174 41.0736 47.3359 40.9921 47.2543C40.829 47.1456 40.5572 47.2 40.2582 47.2543C40.1766 47.2815 40.0679 47.2815 39.9863 47.3087C39.4155 47.3902 39.1436 47.3359 39.1436 47.3359C38.7903 47.1456 38.5728 46.9009 38.4912 46.6019C38.3553 46.1398 38.6272 45.6777 38.6272 45.6777C38.8718 45.27 39.2796 45.1612 39.5786 45.134C39.9048 45.1069 40.1766 45.1612 40.1766 45.1612L40.1222 45.868C39.7689 45.7321 39.5786 45.7593 39.497 45.8136C39.3883 45.868 39.3883 45.9767 39.3883 45.9767C39.3611 46.1942 39.3883 46.3845 39.497 46.466C39.6873 46.6291 40.0135 46.5747 40.0135 46.5747C41.3998 46.0039 41.9707 46.765 42.1066 47.0097C42.1338 47.0369 42.1338 47.0912 42.161 47.1184C42.2697 47.7164 42.1882 48.1786 41.8891 48.5048C41.2911 48.994 40.4756 49.0484 40.095 49.0484ZM39.932 49.0212C40.0407 49.0212 41.1824 49.0756 41.7532 48.4504C42.0522 48.1242 42.1338 47.6621 42.0251 47.064C42.0251 47.0369 41.9979 46.9825 41.9979 46.9553C41.862 46.7107 41.3183 45.9767 39.932 46.5476C39.9048 46.5476 39.5786 46.6291 39.3883 46.4388C39.2796 46.3301 39.2252 46.167 39.2796 45.9224C39.2796 45.9224 39.2796 45.8136 39.3883 45.7593C39.5242 45.6777 39.7417 45.7049 40.0135 45.8136L40.0679 45.1612C39.9591 45.134 38.9805 44.9438 38.5456 45.6777C38.5456 45.6777 38.301 46.1126 38.4097 46.5747C38.4912 46.8738 38.7087 47.1184 39.0349 47.2815C39.0621 47.2815 39.3339 47.3359 39.8776 47.2543C39.9591 47.2271 40.0679 47.2271 40.1494 47.2C40.4484 47.1456 40.7474 47.0912 40.9105 47.2C40.9921 47.2543 41.0465 47.3631 41.0736 47.5262C41.0736 47.5262 41.1008 47.8252 40.8834 48.0155C40.6659 48.1786 40.3397 48.2057 39.8776 48.0426V49.0212H39.932Z" fill="#231F20"/>
</g>
</g>
<g id="SPORT">
<g id="Group_14">
<path id="S_00000155825407271192065800000000642417156865296553_" d="M41.7529 40.8672L41.0733 40.541C41.0733 40.541 39.3064 42.3079 40.7471 44.0205C41.0189 44.3467 41.3723 44.6185 41.7801 44.7816C42.0519 44.8903 42.514 45.0806 43.3839 45.2981C43.4926 45.3253 43.6013 45.3524 43.7101 45.3796C44.145 45.4612 45.6129 45.8145 45.3954 47.0922C45.3954 47.0922 45.2051 48.1251 43.9003 47.7174L43.7916 48.6688C43.7916 48.6688 45.5313 49.4027 46.4284 47.5543C47.0536 46.2495 46.0206 45.135 45.3682 44.6185C45.1508 44.4282 44.9061 44.2923 44.6343 44.1564C44.1722 43.9389 43.1936 43.4768 42.6227 43.2321C42.514 43.1778 42.4053 43.1506 42.2694 43.0962C41.6441 42.8516 40.9917 42.0361 41.7529 40.8672Z" fill="white"/>
<path id="Vector_58" d="M44.6071 48.8316C44.145 48.8316 43.8188 48.6956 43.8188 48.6956L43.9275 47.717C44.3625 47.853 44.7159 47.853 44.9877 47.6899C45.3411 47.4996 45.3954 47.119 45.3954 47.0918C45.5857 45.8414 44.145 45.4608 43.7101 45.3793C43.5742 45.3521 43.4654 45.3249 43.3839 45.2977C42.6771 45.1346 42.1606 44.9715 41.7801 44.7813C41.3723 44.591 41.0189 44.3192 40.7471 43.993C40.4209 43.6124 40.2306 43.1775 40.2035 42.7153C40.1763 42.362 40.2306 41.9814 40.3937 41.6008C40.6384 40.9484 41.1005 40.5135 41.1005 40.4863L41.8073 40.8397C41.4811 41.329 41.3995 41.7911 41.5354 42.2261C41.6713 42.661 42.0519 42.9328 42.3509 43.0415H42.3781C42.4868 43.0687 42.5956 43.1231 42.7043 43.1775C43.2751 43.4221 44.1994 43.857 44.7159 44.1017C44.9877 44.2376 45.2323 44.3735 45.4498 44.5638C45.776 44.8084 46.1837 45.2162 46.4556 45.7327C46.7546 46.3307 46.7818 46.9287 46.5099 47.4996C46.0478 48.451 45.3682 48.7228 44.8518 48.75C44.743 48.8316 44.6887 48.8316 44.6071 48.8316ZM43.846 48.6685C43.9004 48.6956 44.3081 48.8316 44.8246 48.8044C45.3139 48.75 45.9935 48.5054 46.4556 47.5539C46.7274 46.9831 46.9449 45.8686 45.3954 44.6182C45.178 44.4279 44.9333 44.292 44.6615 44.1561C44.145 43.9114 43.2208 43.4765 42.6499 43.2318C42.5412 43.1775 42.4325 43.1503 42.3237 43.0959H42.2966C41.9975 42.9872 41.617 42.7153 41.4539 42.2532C41.318 41.8455 41.3995 41.3562 41.7257 40.8669L41.0733 40.5407C41.0189 40.5951 40.6112 41.03 40.3937 41.628C40.2306 42.0086 40.1763 42.3891 40.2035 42.7425C40.2306 43.1775 40.4209 43.6124 40.7471 43.993C41.0189 44.3192 41.3723 44.591 41.7801 44.7541C42.1606 44.9172 42.6771 45.0803 43.3839 45.2706C43.4926 45.2977 43.5742 45.3249 43.7101 45.3521C44.1722 45.4337 45.6129 45.8142 45.4226 47.0918C45.4226 47.0918 45.3411 47.4996 44.9877 47.6899C44.7159 47.853 44.3625 47.853 43.9275 47.717L43.846 48.6685Z" fill="#231F20"/>
</g>
<g id="Group_15">
<path id="P_00000083796026223255166550000003166219699603201970_" d="M46.2383 43.0962C46.2383 43.0962 46.5645 42.7428 46.9451 42.3622C47.0538 42.2535 47.1082 42.1176 47.1353 41.9817C47.1625 40.9487 46.4286 40.5953 45.9393 40.541C45.749 40.5138 45.5587 40.5682 45.3956 40.7041L43.8462 41.8458L46.2655 44.999L47.1625 44.2651L46.2383 43.0962ZM46.1839 42.172L45.8306 42.5253L45.151 41.6827L45.45 41.438C45.5044 41.3836 45.5859 41.3565 45.6675 41.3565C46.048 41.3837 46.1839 41.737 46.2383 41.9545C46.2383 42.036 46.2111 42.1176 46.1839 42.172Z" fill="white"/>
<path id="Vector_59" d="M46.2928 45.0262L43.8735 41.8458L45.423 40.7041C45.5861 40.5953 45.7764 40.541 45.9666 40.541C46.5375 40.5953 47.1899 41.0031 47.1627 41.9817C47.1355 42.1176 47.0811 42.2807 46.9724 42.3894C46.619 42.7428 46.32 43.069 46.2657 43.1234L47.1899 44.2922L46.2928 45.0262ZM43.8735 41.8458L46.2657 44.9718L47.1355 44.2379L46.2113 43.069C46.2113 43.069 46.5375 42.7156 46.918 42.3351C47.0268 42.2263 47.0811 42.0904 47.1083 41.9545C47.1083 41.3565 46.8093 40.6225 45.9395 40.541C45.7492 40.5138 45.5589 40.5682 45.3958 40.7041L43.8735 41.8458ZM45.8035 42.5525L45.124 41.7098L45.423 41.4652C45.5045 41.4108 45.5861 41.3837 45.6676 41.3837C45.8307 41.3837 46.1297 41.4924 46.2385 41.9817C46.2657 42.0632 46.2385 42.1448 46.1841 42.1991L45.8035 42.5525ZM45.1511 41.7098L45.8035 42.5253L46.1569 42.172C46.2113 42.1176 46.2385 42.0632 46.2113 41.9817C46.1026 41.4924 45.8035 41.4108 45.6676 41.4108C45.5861 41.4108 45.5045 41.438 45.4502 41.4924L45.1511 41.7098Z" fill="#231F20"/>
</g>
<g id="Group_16">
<path id="O_00000060709414627494319170000015037102943732307095_" d="M50.4243 39.427C49.7991 38.4212 48.6031 38.0406 47.7604 38.5571C46.9177 39.0736 46.7546 40.324 47.3526 41.3026C47.9778 42.3084 49.1739 42.689 50.0166 42.1725C50.8593 41.6832 51.0495 40.4328 50.4243 39.427ZM49.7176 41.5745C49.3642 41.8191 48.7118 41.4657 48.2769 40.7861C47.8419 40.1337 47.7876 39.3998 48.1681 39.1552C48.5215 38.9105 49.1739 39.2639 49.6088 39.9435C50.0166 40.623 50.071 41.3298 49.7176 41.5745Z" fill="white"/>
<path id="Vector_60" d="M49.2014 42.4446C48.5218 42.4446 47.815 42.0369 47.3801 41.3573C47.0811 40.868 46.9452 40.3243 47.0267 39.7807C47.1083 39.2642 47.3801 38.8293 47.7879 38.5846C48.1956 38.34 48.7121 38.2856 49.2014 38.4487C49.7179 38.6118 50.1528 38.9652 50.4518 39.4545C50.7508 39.9438 50.8867 40.4874 50.8052 41.0311C50.7236 41.5476 50.4518 41.9825 50.0441 42.2272C49.7722 42.3631 49.5004 42.4446 49.2014 42.4446ZM48.6033 38.3672C48.3043 38.3672 48.0325 38.4487 47.7607 38.6118C47.3529 38.8564 47.0811 39.2914 47.0267 39.8079C46.9452 40.3243 47.0811 40.868 47.3801 41.3573C48.0053 42.3359 49.1742 42.7436 50.0169 42.2C50.4246 41.9553 50.6965 41.5204 50.7508 41.0039C50.8324 40.4874 50.6965 39.9438 50.3974 39.4545C50.0984 38.9652 49.6635 38.6118 49.147 38.4487C48.9839 38.3943 48.7936 38.3672 48.6033 38.3672ZM49.446 41.6563C49.0655 41.6563 48.6033 41.3301 48.25 40.8136C48.0325 40.4874 47.9238 40.1341 47.8966 39.835C47.8694 39.536 47.951 39.2914 48.1412 39.1826C48.5218 38.938 49.1742 39.2914 49.6091 39.971C50.0441 40.6505 50.0984 41.3845 49.7179 41.6291C49.6363 41.6291 49.5276 41.6563 49.446 41.6563ZM48.4131 39.1011C48.3043 39.1011 48.2228 39.1283 48.1412 39.1826C47.9781 39.2914 47.8966 39.536 47.8966 39.835C47.9238 40.1341 48.0325 40.4874 48.25 40.8136C48.6849 41.466 49.3101 41.8194 49.6635 41.5748C50.0169 41.3301 49.9625 40.6234 49.5548 39.9438C49.2557 39.4273 48.7664 39.1011 48.4131 39.1011Z" fill="#231F20"/>
</g>
<g id="Group_17">
<path id="R_00000029766979390587691140000001302186294650385284_" d="M54.3392 38.5837C54.0674 38.638 53.6868 38.7196 52.5995 38.2031C52.5995 38.2031 52.8985 37.5779 52.518 36.9799C52.4908 36.9527 52.4636 36.8983 52.4364 36.8711C52.3821 36.8168 52.3005 36.7352 52.2461 36.6537C52.083 36.4906 51.8928 36.3818 51.6481 36.3818C51.485 36.3818 51.3219 36.409 51.1316 36.5178C50.6695 36.8439 49.5278 37.6323 49.5278 37.6323L51.8928 40.8399L52.7898 40.1603L51.9199 39.073C51.9199 39.073 51.8384 38.8827 52.2733 39.073C52.7083 39.2632 54.2305 39.7254 54.3121 38.7196C54.3392 38.7196 54.3664 38.5837 54.3392 38.5837ZM51.7568 38.04L51.3219 38.339L50.7511 37.5507C50.7511 37.5507 51.3219 36.8711 51.6753 37.3604C51.8112 37.5507 51.8656 37.6866 51.8928 37.7682C51.8928 37.8769 51.8656 37.9856 51.7568 38.04Z" fill="white"/>
<path id="Vector_61" d="M51.9201 40.8671L49.5552 37.6323C49.5552 37.6323 50.6969 36.844 51.159 36.5178C51.3221 36.4091 51.4852 36.3547 51.6755 36.3819C51.8929 36.3819 52.1104 36.4907 52.2735 36.6538C52.355 36.7353 52.4094 36.8169 52.4638 36.8712C52.491 36.8984 52.5181 36.9528 52.5453 36.98C52.8987 37.5236 52.6541 38.1216 52.6269 38.2032C53.7142 38.7197 54.0948 38.6381 54.3394 38.5838H54.3666C54.3938 38.6109 54.3666 38.7197 54.3666 38.7469C54.3394 38.9915 54.2307 39.1546 54.0676 39.2633C53.5783 39.5624 52.6269 39.2362 52.3279 39.1002C52.0832 38.9915 52.0288 39.0187 52.0017 39.0187C51.9745 39.0459 52.0017 39.0731 52.0017 39.0731L52.8715 40.1604L51.9201 40.8671ZM49.5824 37.6323L51.9201 40.84L52.8172 40.1876L51.9473 39.1002C51.9473 39.1002 51.9201 39.0459 51.9473 39.0187C52.0017 38.9643 52.1104 38.9915 52.3007 39.0731C52.5997 39.209 53.5239 39.508 54.0132 39.2362C54.1763 39.1274 54.285 38.9643 54.3122 38.7197C54.3394 38.6653 54.3394 38.5838 54.3122 38.5838C54.0404 38.6381 53.6598 38.7197 52.5725 38.2032C52.5725 38.2032 52.8715 37.578 52.491 36.98C52.4638 36.9528 52.4366 36.9256 52.4094 36.8712C52.355 36.8169 52.3007 36.7625 52.2191 36.6538C52.056 36.4907 51.8657 36.3819 51.6483 36.3819C51.458 36.3819 51.2949 36.4091 51.159 36.5178C50.7241 36.844 49.6911 37.5508 49.5824 37.6323ZM51.3493 38.3663L50.7512 37.5508C50.7512 37.5236 51.0502 37.1702 51.3764 37.1702C51.3764 37.1702 51.3764 37.1702 51.4036 37.1702C51.5124 37.1702 51.6211 37.2246 51.7026 37.3605C51.8114 37.5236 51.8929 37.6595 51.9201 37.7955C51.9473 37.9042 51.8929 38.0129 51.8114 38.0673L51.3493 38.3663ZM50.7784 37.5508L51.3493 38.3391L51.757 38.0401C51.8386 37.9857 51.8929 37.877 51.8657 37.7955C51.8386 37.6867 51.7842 37.5508 51.6483 37.3877C51.5667 37.279 51.4852 37.2246 51.3493 37.2246C51.1046 37.1702 50.8056 37.4964 50.7784 37.5508Z" fill="#231F20"/>
</g>
<g id="Group_18">
<path id="T_00000031206225011801742340000001899070405321072300_" d="M55.399 38.3392L56.3776 37.6053L54.2301 34.9413L55.1272 34.5607L54.4748 34.0986L52.5176 35.5122L52.7079 36.3005L53.3874 35.5937L55.399 38.3392Z" fill="white"/>
<path id="Vector_62" d="M55.399 38.3664L53.3874 35.6209L52.7079 36.3277L52.5176 35.5122L54.4748 34.0986L55.1543 34.5607L54.2573 34.9413L56.3776 37.6053L55.399 38.3664ZM53.3874 35.5665L55.399 38.312L56.3504 37.5781L54.2301 34.9141L55.1272 34.5336L54.4748 34.0986L52.5448 35.485L52.735 36.2461L53.3874 35.5665Z" fill="#231F20"/>
</g>
</g>
<g id="CLUB">
<g id="Group_19">
<path id="C_00000175308243357253631670000007296897060956825509_" d="M57.7093 30.5643V29.3954C57.7093 29.3954 55.8609 29.2867 55.5891 30.7274C55.4803 31.407 55.5347 32.1137 55.6434 32.7118C55.8609 33.9622 56.4589 35.1311 57.4103 36.0009C58.1443 36.6805 59.1772 37.2785 60.4005 37.0339C62.9285 36.5174 62.4664 34.5059 62.4664 34.5059L61.9771 34.4787C61.9771 34.4787 61.5965 36.1097 60.2102 35.8378C58.8238 35.566 57.655 34.1797 57.655 34.1797C57.655 34.1797 56.3502 32.6846 56.4589 31.5701C56.5676 30.4556 57.1657 30.5643 57.7093 30.5643Z" fill="white"/>
<path id="Vector_63" d="M59.8028 37.0881C59.4222 37.0881 59.0688 37.0065 58.6883 36.8706C58.2533 36.6803 57.7912 36.4085 57.3835 36.0008C56.4864 35.1581 55.8612 33.9892 55.6166 32.7116C55.4807 31.9777 55.4535 31.3253 55.5622 30.7272C55.6981 29.9933 56.2962 29.6671 56.7311 29.5312C57.2204 29.3681 57.6825 29.3953 57.6825 29.3953V30.5913C57.6281 30.5913 57.5738 30.5913 57.5194 30.5913C57.0301 30.5913 56.5136 30.5641 56.4321 31.5699C56.3233 32.6844 57.6281 34.1523 57.6281 34.1795C57.6281 34.2067 58.8242 35.5658 60.1833 35.8377C60.8901 35.9736 61.325 35.593 61.5697 35.2668C61.8415 34.8862 61.9231 34.5057 61.9231 34.4785L62.4395 34.5057C62.4395 34.5057 62.6026 35.2668 62.1405 35.9736C61.7871 36.5172 61.1891 36.8706 60.3464 37.0337C60.1833 37.0609 59.9931 37.0881 59.8028 37.0881ZM57.6281 29.3953C57.465 29.3953 57.1116 29.4224 56.7583 29.5312C56.2962 29.6671 55.7525 29.9933 55.5894 30.7272C55.4807 31.3253 55.5078 31.9777 55.6438 32.7116C55.8884 33.9892 56.4864 35.1581 57.4107 36.0008C57.8456 36.3813 58.2805 36.6803 58.7155 36.8706C59.2591 37.0881 59.83 37.1424 60.3736 37.0337C61.2163 36.8706 61.8143 36.4901 62.1677 35.9736C62.6026 35.3212 62.4667 34.6144 62.4395 34.5329L61.9502 34.5057C61.9231 34.5601 61.8415 34.9406 61.5969 35.294C61.3794 35.593 61.026 35.9192 60.4824 35.9192C60.4008 35.9192 60.2921 35.9192 60.1833 35.892C58.8242 35.6202 57.6281 34.261 57.6281 34.2339C57.6281 34.2067 56.3233 32.7388 56.4321 31.5971C56.5408 30.5913 57.0573 30.5913 57.5466 30.5913C57.6009 30.5913 57.6553 30.5913 57.7097 30.5913V29.4496C57.6825 29.3953 57.6553 29.3953 57.6281 29.3953Z" fill="#231F20"/>
</g>
<g id="Group_20">
<path id="L_00000073692743861744426970000008513643221404371104_" d="M57.2476 31.9778L58.1718 31.3525L60.0474 34.098L61.2707 32.902L61.5425 33.799L59.5853 35.2397L57.2476 31.9778Z" fill="white"/>
<path id="Vector_64" d="M59.5853 35.2396L57.2476 31.9776L58.199 31.3252L60.0746 34.0707L61.2978 32.8746L61.5697 33.7989L59.5853 35.2396ZM57.2747 31.9776L59.5853 35.2124L61.5153 33.7989L61.2707 32.929L60.0746 34.1251L58.199 31.3796L57.2747 31.9776Z" fill="#231F20"/>
</g>
<g id="Group_21">
<path id="U_00000111883581260616969390000015402585955249819580_" d="M59.6938 30.1569L60.4822 29.6132L62.1675 31.9509C62.1675 31.9509 62.4122 32.3587 62.9286 31.9509C63.3364 31.5432 63.0102 31.217 63.0102 31.217L61.352 29.0152L61.8957 28.6074L63.581 30.918C63.581 30.918 64.2334 31.7063 63.2548 32.4402C62.2762 33.1742 61.7326 32.9839 61.4336 32.5762C61.1346 32.1684 59.6938 30.1569 59.6938 30.1569Z" fill="white"/>
<path id="Vector_65" d="M62.113 32.9294C62.0586 32.9294 62.0314 32.9294 61.9771 32.9294C61.7596 32.9022 61.5693 32.7663 61.4062 32.576C61.1072 32.1683 59.6665 30.2111 59.6665 30.1839L60.4548 29.613L62.1402 31.9508C62.1402 31.9508 62.2217 32.0867 62.412 32.1139C62.5479 32.1411 62.711 32.0867 62.9013 31.9236C63.0372 31.7877 63.1188 31.6518 63.1188 31.5159C63.1188 31.3256 63.01 31.2168 63.01 31.2168L61.3519 28.9878L61.8955 28.5801L63.5809 30.8906C63.5809 30.8906 63.8255 31.2168 63.7983 31.6246C63.7712 31.9236 63.5809 32.1954 63.2547 32.4401C62.8197 32.7663 62.4392 32.9294 62.113 32.9294ZM59.7209 30.1839C59.8296 30.3198 61.1616 32.1954 61.4606 32.576C61.5965 32.7663 61.7868 32.9022 62.0043 32.9294C62.3305 32.9838 62.7654 32.8207 63.2547 32.4401C63.5809 32.1954 63.744 31.9236 63.7712 31.6518C63.8255 31.244 63.5537 30.945 63.5537 30.945L61.8955 28.6616L61.379 29.0422L63.0372 31.244C63.0372 31.244 63.1731 31.3528 63.1731 31.543C63.1731 31.679 63.0916 31.8421 62.9557 31.978C62.7654 32.1139 62.6023 32.1954 62.4664 32.1683C62.2761 32.1411 62.1945 31.978 62.1945 31.978L60.5092 29.6674L59.7209 30.1839Z" fill="#231F20"/>
</g>
<g id="Group_22">
<path id="B_00000062892016819043048620000004541818044318517395_" d="M66.4897 28.4169C66.1363 27.9548 65.348 28.1995 65.348 28.1995C65.5383 27.8461 65.4296 27.6286 65.1034 27.1937C64.7772 26.7588 64.3151 26.9762 64.3151 26.9762L62.7656 28.0636L65.049 31.1081C65.049 31.1081 66.5984 29.8305 66.8431 29.5315C67.0606 29.2324 66.8431 28.8791 66.4897 28.4169ZM64.5325 28.716L63.8258 27.8733L64.0704 27.7102C64.3694 27.4655 64.6684 27.8461 64.6684 27.8461C65.1577 28.3082 64.5325 28.716 64.5325 28.716ZM65.647 30.1295L64.8587 29.1509L65.1306 28.9606C65.4839 28.6888 65.8101 29.1237 65.8101 29.1237C66.381 29.6674 65.647 30.1295 65.647 30.1295Z" fill="white"/>
<path id="Vector_66" d="M65.0222 31.1351L62.7388 28.0634L64.3154 26.9489C64.3154 26.9489 64.7775 26.7314 65.1037 27.1664C65.4027 27.6013 65.5386 27.8188 65.3755 28.1721C65.4299 28.145 65.593 28.1178 65.8105 28.1178C66.1367 28.1178 66.3813 28.1993 66.5172 28.3896C66.8978 28.8789 67.0609 29.2323 66.8434 29.5041C66.5716 29.8303 65.0493 31.1079 65.0222 31.1351ZM62.766 28.0906L65.0222 31.1351C65.1581 31.0264 66.5716 29.8303 66.8162 29.5585C67.0609 29.2595 66.8162 28.8789 66.49 28.4712C66.2998 28.2537 66.0007 28.1993 65.7833 28.1993C65.5386 28.1993 65.3484 28.2537 65.3484 28.2537H65.3212V28.2265C65.4843 27.9003 65.4027 27.6828 65.0765 27.2207C64.9406 27.0304 64.7775 26.9489 64.56 26.9489C64.3969 26.9489 64.2882 27.0033 64.2882 27.0033L62.766 28.0906ZM65.6474 30.1565L64.8319 29.1779L65.1037 28.9876C65.1853 28.9061 65.294 28.8789 65.4027 28.9061C65.6202 28.9333 65.7833 29.1507 65.8105 29.1507C65.9736 29.3138 66.0551 29.4497 66.0279 29.64C66.0007 29.9119 65.6746 30.1293 65.6474 30.1565ZM64.8591 29.1779L65.6474 30.1293C65.7017 30.1021 65.9736 29.8847 66.0008 29.6128C66.0279 29.4497 65.9464 29.2866 65.7833 29.1507C65.7833 29.1507 65.6202 28.9333 65.4027 28.9061C65.294 28.9061 65.2124 28.9333 65.1309 28.9876L64.8591 29.1779ZM64.5329 28.7158L63.8261 27.8459L64.0707 27.6828C64.1523 27.6285 64.2338 27.6013 64.3154 27.6013C64.5057 27.6285 64.6688 27.8188 64.6688 27.8188C64.8047 27.9547 64.8862 28.0906 64.8591 28.2265C64.8319 28.5255 64.5329 28.7158 64.5329 28.7158ZM63.8533 27.8459L64.5329 28.6886C64.5872 28.6614 64.8319 28.4712 64.8591 28.2537C64.8591 28.1178 64.8047 27.9819 64.6688 27.8459C64.6688 27.8459 64.5057 27.6557 64.3426 27.6285C64.261 27.6285 64.1795 27.6285 64.0979 27.71L63.8533 27.8459Z" fill="#231F20"/>
</g>
</g>
</g>
</g>
<g id="RAQUETE">
<g id="RAQUETE_1_">
<g id="Group_23">
<g id="Group_24">
<g id="Group_25">
<path id="Vector_67" d="M48.7115 77.6735L34.9297 59.787L38.9528 56.7969L52.8706 74.2213C52.8706 74.2213 56.6218 75.1727 54.42 78.0541C54.0394 78.5434 53.6045 78.9511 53.1152 79.2773C51.8648 80.1472 49.2824 81.4248 48.7115 77.6735Z" fill="#976126"/>
<path id="Vector_68" d="M50.7502 80.5001C50.4511 80.5001 50.1793 80.4458 49.9347 80.337C49.1463 80.0108 48.6299 79.141 48.4124 77.7818L34.4946 59.7322L38.9798 56.3887L53.0335 73.9762C53.4413 74.0849 54.882 74.6014 55.2897 75.7703C55.5344 76.5042 55.3169 77.3469 54.6373 78.2439C54.2568 78.7332 53.7947 79.1681 53.251 79.5487C52.7345 79.9021 52.218 80.1739 51.7559 80.337C51.4025 80.4458 51.0764 80.5001 50.7502 80.5001ZM35.3373 59.8681L48.9832 77.5643V77.6459C49.1735 78.842 49.5541 79.5487 50.1521 79.8205C50.3424 79.9021 50.5327 79.9293 50.723 79.9293C51.5113 79.9293 52.3811 79.4128 52.8976 79.0594C53.3869 78.7332 53.7947 78.3255 54.148 77.8905C54.7189 77.1566 54.9092 76.5042 54.7189 75.9605C54.3655 74.9276 52.7889 74.5198 52.7617 74.5198L52.653 74.4926L52.5986 74.4111L38.8439 57.2042L35.3373 59.8681Z" fill="#231F20"/>
</g>
<path id="Vector_69" d="M43.2802 62.2319L39.2852 65.4619L39.6611 65.9269L43.6561 62.6969L43.2802 62.2319Z" fill="#231F20"/>
<path id="Vector_70" d="M42.4431 63.2723L41.9727 63.6416L51.4397 75.7012L51.9101 75.3319L42.4431 63.2723Z" fill="#231F20"/>
<path id="Vector_71" d="M41.1332 64.3606L40.6587 64.7246L49.9893 76.8885L50.4638 76.5245L41.1332 64.3606Z" fill="#231F20"/>
<path id="Vector_72" d="M48.8475 77.945L48.5757 77.4285C48.6029 77.4285 50.0436 76.6945 50.9134 75.9606C51.8105 75.2267 52.5988 74.085 52.5988 74.085L53.0881 74.4112C53.0609 74.4655 52.2182 75.6344 51.294 76.4227C50.3698 77.1838 48.9019 77.9178 48.8475 77.945Z" fill="#231F20"/>
<g id="Group_26">
<path id="Vector_73" d="M39.5238 65.3596C39.5238 65.3596 36.6152 61.1462 36.7239 59.2162C36.7239 59.0259 36.8327 58.8356 36.9958 58.6997L37.2676 58.4822C37.5394 58.2648 37.8928 58.2104 38.219 58.3463C39.1432 58.7541 40.9645 59.7055 43.1663 62.451L43.3838 62.3151L38.9801 56.7969L34.957 59.787L39.3879 65.5227L39.5238 65.3596Z" fill="black"/>
<path id="Vector_74" d="M39.3605 65.5499L34.9297 59.787L38.9528 56.7969L43.3565 62.3151L43.139 62.451C40.7469 59.5152 38.8169 58.6453 38.1917 58.3463C37.8926 58.2104 37.5121 58.2648 37.2674 58.4822L36.9956 58.6997C36.8325 58.8356 36.751 58.9987 36.751 59.2162C36.7238 59.7598 36.9412 60.8743 38.1101 62.9946C38.8169 64.2722 39.5508 65.3324 39.5508 65.3324L39.3605 65.5499ZM34.9569 59.787L39.3605 65.4955L39.4965 65.3324C39.4421 65.2237 38.7353 64.2179 38.0557 62.9946C37.4034 61.7986 36.6422 60.1948 36.6966 59.189C36.6966 58.9987 36.8053 58.8084 36.9684 58.6725L37.2403 58.455C37.5121 58.2376 37.8926 58.1832 38.1917 58.3191C38.6266 58.5094 39.3334 58.8628 40.176 59.5152C41.1818 60.2491 42.1604 61.2277 43.139 62.4238L43.3293 62.3151L38.9528 56.8241L34.9569 59.787Z" fill="#231F20"/>
</g>
</g>
<g id="Group_27">
<g id="Group_28">
<path id="Vector_75" d="M30.6079 27.6018C28.4332 22.3282 21.9364 17.4081 21.9364 17.4081C21.9364 17.4081 15.7387 11.8355 7.69248 15.2062C-0.353728 18.5769 0.652047 27.2756 0.652047 27.2756C0.652047 27.2756 0.815147 35.648 6.52361 42.1719C12.2321 48.6959 18.2667 49.8104 20.7404 50.1366C23.2141 50.4628 22.8607 50.8705 22.8607 50.8705L32.4291 43.9116C32.701 42.5253 32.7825 39.3449 32.7825 39.3449C32.8369 34.7509 32.7825 32.8481 30.6079 27.6018ZM25.5246 44.1563C20.3598 48.0978 10.2205 42.4437 6.25178 35.5936C2.28304 28.7434 2.69078 20.7516 7.80121 17.7886C12.9388 14.8529 21.2297 18.2236 25.1712 25.1009C29.1128 31.9782 30.6351 41.1933 25.5246 44.1563Z" fill="#976126"/>
<path id="Vector_76" d="M23.0507 51.1147L22.6702 50.6798C22.5886 50.7885 22.6158 50.8701 22.643 50.8972C22.643 50.8972 22.3983 50.6526 20.7402 50.4351C19.9518 50.3264 17.5869 50.0274 14.7599 48.7498C11.661 47.3634 8.83393 45.216 6.33309 42.3617C5.02829 40.8395 3.8866 39.1269 2.96237 37.1969C2.22843 35.6747 1.6304 34.0437 1.19547 32.3312C0.461525 29.5041 0.407158 27.4654 0.379975 27.2751C0.352792 27.0576 0.16251 24.9373 0.896455 22.4093C1.33139 20.8599 2.03815 19.5007 2.98956 18.3046C4.15843 16.8368 5.70787 15.6951 7.58351 14.9068C9.45915 14.1184 11.3892 13.7379 13.3192 13.8194C14.8686 13.8738 16.418 14.1728 17.9403 14.7437C20.4411 15.6951 21.9906 17.027 22.1265 17.163C22.2624 17.2717 23.839 18.4949 25.6603 20.289C26.7748 21.4035 27.7534 22.4908 28.5689 23.5782C29.6019 24.9373 30.363 26.2421 30.8795 27.4654C31.9668 30.1021 32.5376 31.8962 32.8367 33.6631C33.1357 35.3757 33.1357 36.9523 33.1357 39.3444C33.1357 39.4803 33.0269 42.5792 32.7551 43.9384L32.7279 44.0471L32.6464 44.1286L23.0507 51.1147ZM12.9658 14.3903C11.2261 14.3903 9.51351 14.7437 7.82816 15.4504C6.03407 16.2115 4.56618 17.2717 3.45167 18.658C2.55463 19.7725 1.90223 21.0773 1.4673 22.5452C0.733356 25.0732 0.978005 27.1935 0.978005 27.2207V27.2479V27.2751C0.978005 27.3023 1.03237 29.3682 1.76632 32.2224C2.20125 33.8806 2.77209 35.4844 3.50604 36.9795C4.40308 38.8279 5.49041 40.5133 6.76802 41.9812C9.18731 44.781 11.96 46.8741 14.9773 48.2333C17.7228 49.4565 20.0334 49.7555 20.7945 49.8643C22.1537 50.0274 22.7245 50.2448 22.9692 50.4351L32.1571 43.7481C32.4017 42.3889 32.4833 39.4803 32.4833 39.3444C32.4833 36.9795 32.4833 35.43 32.1843 33.7719C31.9124 32.0593 31.3416 30.3196 30.2814 27.71C29.7921 26.5411 29.0582 25.2635 28.0524 23.9587C27.2641 22.8986 26.2855 21.8113 25.1982 20.7239C23.3497 18.8755 21.7187 17.6251 21.7187 17.6251L21.6916 17.5979C21.6644 17.5979 20.1421 16.2115 17.6685 15.2873C16.2278 14.7437 14.7327 14.4446 13.2648 14.3903C13.1832 14.3903 13.0745 14.3903 12.9658 14.3903ZM21.3382 45.7596C20.6586 45.7596 19.9247 45.6781 19.1635 45.5422C14.2434 44.5636 8.69802 40.4317 6.00689 35.7562C5.02829 34.0437 4.29435 32.2496 3.83224 30.4283C3.37012 28.6342 3.20702 26.8945 3.34294 25.2363C3.61477 21.7569 5.13703 19.0386 7.66506 17.5707C8.96985 16.8096 10.4649 16.4562 12.1231 16.4562C13.6997 16.4562 15.3851 16.8368 17.0432 17.5163C18.7014 18.2231 20.278 19.2017 21.7187 20.4521C23.2138 21.7569 24.4642 23.2792 25.4428 24.9645C27.5088 28.5527 28.8407 32.603 29.0582 36.0824C29.1941 37.9852 28.9766 39.6434 28.4602 41.0026C27.8893 42.5248 26.9651 43.6665 25.6875 44.4005C24.5186 45.2975 23.0235 45.7596 21.3382 45.7596ZM12.0687 17.027C10.5193 17.027 9.16013 17.3804 7.96407 18.06C5.59914 19.4192 4.18562 21.9744 3.91378 25.2635C3.80505 26.8673 3.94097 28.5527 4.3759 30.2652C4.81083 32.0321 5.54477 33.7719 6.49618 35.4572C7.77379 37.659 9.75816 39.8065 12.0687 41.5462C14.4065 43.286 16.9617 44.482 19.2723 44.9441C20.4683 45.1888 21.5556 45.216 22.5614 45.0529C23.6216 44.8898 24.5458 44.5092 25.3069 43.9112H25.3341H25.3613C26.5302 43.2316 27.3728 42.1986 27.8893 40.8123C28.3786 39.5075 28.5689 37.9309 28.433 36.1368C28.2155 32.7389 26.9107 28.7702 24.8992 25.2635C23.9478 23.6325 22.7517 22.1647 21.2838 20.887C19.9247 19.691 18.3752 18.7124 16.7714 18.06C15.1948 17.4076 13.5638 17.0542 12.0959 17.0542C12.1231 17.027 12.0959 17.027 12.0687 17.027Z" fill="#231F20"/>
</g>
<path id="Vector_77" d="M15.7608 44.1191L14.7417 48.459L15.3239 48.5957L16.343 44.2558L15.7608 44.1191Z" fill="#231F20"/>
<path id="Vector_78" d="M21.3656 45.4609H20.3599V50.1364H21.3656V45.4609Z" fill="#231F20"/>
<path id="Vector_79" d="M28.5022 34.6899L28.4707 35.2871L32.7868 35.5149L32.8183 34.9177L28.5022 34.6899Z" fill="#231F20"/>
<path id="Vector_80" d="M28.6092 39.4618L28.2798 40.4121L32.6977 41.9433L33.0271 40.993L28.6092 39.4618Z" fill="#231F20"/>
<path id="Vector_81" d="M25.9051 48.56C25.9051 48.5328 25.7148 48.0707 24.8177 47.7717C23.7848 47.4455 22.3713 47.5542 22.3713 47.5542L22.3169 46.9562C22.3713 46.9562 23.8663 46.8475 24.9808 47.2009C26.1769 47.5814 26.4215 48.2882 26.4487 48.3697L25.9051 48.56C25.9051 48.5328 25.9051 48.5328 25.9051 48.56Z" fill="#231F20"/>
<path id="Vector_82" d="M29.2487 45.9496C29.2487 45.9496 29.1943 45.406 29.1671 44.7808C29.0856 43.6934 29.2487 42.6061 29.6021 41.546C29.7652 41.111 29.8739 40.7305 29.8739 40.7305L30.4176 40.9207C30.4176 40.9207 30.2816 41.2741 30.1457 41.7091C29.8195 42.6877 29.6836 43.6934 29.7652 44.6992C29.7923 45.2972 29.8467 45.8409 29.8467 45.8409L29.2487 45.9496Z" fill="#231F20"/>
<g id="Group_29">
<path id="Vector_83" d="M14.2978 48.5593C14.2434 48.5321 12.9115 47.7709 11.8241 46.5477C11.1174 45.7322 10.6009 44.509 10.4106 43.9109C10.2747 43.476 10.3834 43.1498 10.5193 42.9595C11.0086 42.2528 12.395 42.2256 12.5581 42.2256V42.8236C12.2319 42.8236 11.2533 42.9323 10.9815 43.3129C10.9271 43.3945 10.8727 43.5032 10.9543 43.7207C11.1174 44.2371 11.6067 45.406 12.2591 46.14C13.2648 47.2816 14.5424 48.0156 14.5696 48.0156L14.2978 48.5593Z" fill="#231F20"/>
<path id="Vector_84" d="M13.1019 42.2529H12.5854V42.851H13.1019V42.2529Z" fill="#231F20"/>
</g>
<path id="Vector_85" d="M32.4016 35.1037C32.4016 35.0766 31.7492 31.6515 30.1454 30.2923C29.792 29.9933 29.4658 29.8846 29.1668 29.9661C28.4872 30.1564 28.1338 31.3525 28.1338 31.3796L27.563 31.2166C27.5902 31.1622 27.9979 29.6943 29.0037 29.3953C29.493 29.2594 30.0095 29.3953 30.5259 29.8302C31.2599 30.4554 31.9123 31.5156 32.4288 32.9835C32.8093 34.0436 32.9724 34.9406 32.9724 34.9678L32.4016 35.1037Z" fill="#231F20"/>
</g>
</g>
</g>
<g id="REDE">
<path id="Vector_86" d="M19.8672 19.2256L19.6899 19.3516L27.4231 30.2306L27.6004 30.1046L19.8672 19.2256Z" fill="#231F20"/>
<path id="Vector_87" d="M17.6138 17.9629L17.4365 18.0889L28.2725 33.3329L28.4497 33.2069L17.6138 17.9629Z" fill="#231F20"/>
<path id="Vector_88" d="M15.7124 17.2461L15.5352 17.3721L28.5131 35.6294L28.6903 35.5034L15.7124 17.2461Z" fill="#231F20"/>
<path id="Vector_89" d="M14.4019 17.1377L14.2246 17.2637L28.5885 37.4708L28.7658 37.3448L14.4019 17.1377Z" fill="#231F20"/>
<path id="Vector_90" d="M12.8174 16.749L12.6401 16.875L28.5161 39.2092L28.6933 39.0832L12.8174 16.749Z" fill="#231F20"/>
<path id="Vector_91" d="M11.5481 16.6925L11.3701 16.8174L28.0146 40.5381L28.1927 40.4132L11.5481 16.6925Z" fill="#231F20"/>
<path id="Vector_92" d="M10.3904 16.838L10.2124 16.9629L27.622 41.774L27.8 41.6491L10.3904 16.838Z" fill="#231F20"/>
<path id="Vector_93" d="M9.30253 17.1212L9.12451 17.2461L26.9713 42.6803L27.1493 42.5554L9.30253 17.1212Z" fill="#231F20"/>
<path id="Vector_94" d="M8.25858 17.5372L8.08057 17.6621L26.3021 43.6303L26.4801 43.5054L8.25858 17.5372Z" fill="#231F20"/>
<path id="Vector_95" d="M7.33476 17.9962L7.15674 18.1211L25.3783 44.0893L25.5563 43.9644L7.33476 17.9962Z" fill="#231F20"/>
<path id="Vector_96" d="M6.4705 18.7061L6.29248 18.8311L24.514 44.7993L24.692 44.6744L6.4705 18.7061Z" fill="#231F20"/>
<path id="Vector_97" d="M4.45341 21.4122L4.27539 21.5371L20.9199 45.2579L21.0979 45.133L4.45341 21.4122Z" fill="#231F20"/>
<path id="Vector_98" d="M5.87138 19.5997L5.69336 19.7246L23.5402 45.1588L23.7182 45.0339L5.87138 19.5997Z" fill="#231F20"/>
<path id="Vector_99" d="M5.13554 20.4933L4.95752 20.6182L22.2734 45.2958L22.4515 45.1709L5.13554 20.4933Z" fill="#231F20"/>
<path id="Vector_100" d="M4.14872 22.7765L3.9707 22.9014L19.6003 45.1757L19.7783 45.0508L4.14872 22.7765Z" fill="#231F20"/>
<path id="Vector_101" d="M3.84999 24.3648L3.67236 24.4902L18.0709 44.8728L18.2485 44.7473L3.84999 24.3648Z" fill="#231F20"/>
<path id="Vector_102" d="M3.72255 25.9253L3.54492 26.0508L16.6103 44.546L16.7879 44.4206L3.72255 25.9253Z" fill="#231F20"/>
<path id="Vector_103" d="M3.85682 28.0034L3.6792 28.1289L14.6114 43.6045L14.789 43.4791L3.85682 28.0034Z" fill="#231F20"/>
<path id="Vector_104" d="M4.15272 30.1079L3.9751 30.2334L12.2723 41.9789L12.4499 41.8534L4.15272 30.1079Z" fill="#231F20"/>
<path id="Vector_105" d="M28.2575 40.4323L20.7573 45.3535L20.8766 45.5353L28.3768 40.6142L28.2575 40.4323Z" fill="#231F20"/>
<path id="Vector_106" d="M28.5356 39.0268L19.6279 45.0215L19.7493 45.2019L28.657 39.2072L28.5356 39.0268Z" fill="#231F20"/>
<path id="Vector_107" d="M28.7291 37.5793L18.1313 44.9082L18.255 45.0871L28.8528 37.7582L28.7291 37.5793Z" fill="#231F20"/>
<path id="Vector_108" d="M28.7115 36.3332L17.0405 44.4043L17.1642 44.5832L28.8352 36.5121L28.7115 36.3332Z" fill="#231F20"/>
<path id="Vector_109" d="M28.3801 35.2628L15.7925 43.9678L15.9162 44.1466L28.5038 35.4417L28.3801 35.2628Z" fill="#231F20"/>
<path id="Vector_110" d="M28.3141 33.9653L14.7427 43.3506L14.8664 43.5294L28.4378 34.1442L28.3141 33.9653Z" fill="#231F20"/>
<path id="Vector_111" d="M28.2107 32.7892L13.6108 42.8857L13.7345 43.0646L28.3344 32.9681L28.2107 32.7892Z" fill="#231F20"/>
<path id="Vector_112" d="M27.9155 31.6546L12.6226 42.2305L12.7463 42.4093L28.0392 31.8335L27.9155 31.6546Z" fill="#231F20"/>
<path id="Vector_113" d="M27.6137 30.5942L11.6919 41.5508L11.8152 41.7299L27.7369 30.7733L27.6137 30.5942Z" fill="#231F20"/>
<path id="Vector_114" d="M27.1815 29.5833L10.7671 40.8789L10.8904 41.0581L27.3048 29.7624L27.1815 29.5833Z" fill="#231F20"/>
<path id="Vector_115" d="M26.8534 28.558L9.81201 40.2852L9.93529 40.4643L26.9767 28.7372L26.8534 28.558Z" fill="#231F20"/>
<path id="Vector_116" d="M26.44 27.6217L9.2251 39.4316L9.34812 39.611L26.563 27.801L26.44 27.6217Z" fill="#231F20"/>
<path id="Vector_117" d="M26.1246 26.4369L8.62891 38.6533L8.75341 38.8316L26.2491 26.6152L26.1246 26.4369Z" fill="#231F20"/>
<path id="Vector_118" d="M25.4683 25.5365L7.97266 37.7529L8.09715 37.9312L25.5928 25.7148L25.4683 25.5365Z" fill="#231F20"/>
<path id="Vector_119" d="M24.8679 24.5939L7.08252 37.0127L7.20702 37.191L24.9924 24.7722L24.8679 24.5939Z" fill="#231F20"/>
<path id="Vector_120" d="M24.5193 23.6467L6.73389 36.0654L6.85839 36.2437L24.6438 23.825L24.5193 23.6467Z" fill="#231F20"/>
<path id="Vector_121" d="M23.8347 22.7961L6.04932 35.2148L6.17382 35.3931L23.9592 22.9744L23.8347 22.7961Z" fill="#231F20"/>
<path id="Vector_122" d="M23.1052 22.0659L5.56494 34.3135L5.68944 34.4918L23.2297 22.2442L23.1052 22.0659Z" fill="#231F20"/>
<path id="Vector_123" d="M22.4243 21.2469L5.10693 33.3389L5.23143 33.5172L22.5488 21.4252L22.4243 21.2469Z" fill="#231F20"/>
<path id="Vector_124" d="M21.4763 20.5569L4.69385 32.2754L4.81835 32.4537L21.6008 20.7352L21.4763 20.5569Z" fill="#231F20"/>
<path id="Vector_125" d="M20.5768 19.8339L4.28467 31.21L4.40917 31.3883L20.7013 20.0122L20.5768 19.8339Z" fill="#231F20"/>
<path id="Vector_126" d="M19.7333 19.2096L4.04688 30.0293L4.17035 30.2083L19.8567 19.3887L19.7333 19.2096Z" fill="#231F20"/>
<path id="Vector_127" d="M18.6203 18.5534L3.77686 28.918L3.90135 29.0963L18.7448 18.7317L18.6203 18.5534Z" fill="#231F20"/>
<path id="Vector_128" d="M17.5574 18.0833L3.53857 27.8721L3.66307 28.0504L17.6819 18.2616L17.5574 18.0833Z" fill="#231F20"/>
<path id="Vector_129" d="M16.4396 17.5206L3.53516 26.5312L3.65965 26.7095L16.5641 17.6989L16.4396 17.5206Z" fill="#231F20"/>
<path id="Vector_130" d="M15.2328 17.11L3.5542 25.2646L3.6787 25.4429L15.3573 17.2883L15.2328 17.11Z" fill="#231F20"/>
<path id="Vector_131" d="M13.7828 16.7792L3.75342 23.7822L3.87792 23.9605L13.9073 16.9575L13.7828 16.7792Z" fill="#231F20"/>
<path id="Vector_132" d="M12.1322 16.6308L4.15332 22.2021L4.27782 22.3804L12.2567 16.8091L12.1322 16.6308Z" fill="#231F20"/>
<path id="Vector_133" d="M9.80407 16.8852L5.146 20.1377L5.2705 20.316L9.92857 17.0635L9.80407 16.8852Z" fill="#231F20"/>
<path id="Vector_134" d="M27.472 42.0251L22.4946 45.291L22.6139 45.4728L27.5913 42.207L27.472 42.0251Z" fill="#231F20"/>
</g>
</g>
</g>
</svg>
