<svg width="87" height="81" viewBox="0 0 87 81" fill="none" xmlns="http://www.w3.org/2000/svg">
<g id="Layer 2">
<g id="Layer 1">
<path id="Vector" d="M42.91 80.2935C32.0995 76.588 0.73291 51.1428 0.73291 6.15044C0.73291 6.03314 0.73291 5.90762 0.73291 5.7868L0.80681 0.5L3.99625 4.51056C6.79273 8.02962 11.554 11.5757 15.8895 11.5757C18.3057 11.5786 20.6763 10.9182 22.7429 9.66637C24.8095 8.41453 26.4928 6.61935 27.6092 4.47654L29.4942 0.87654L30.9347 4.67595C32.72 9.37859 37.7699 12.5352 43.5024 12.5352C49.235 12.5352 54.2836 9.3739 56.069 4.67595L57.5071 0.877713L59.3957 4.47654C60.5118 6.61934 62.1948 8.41455 64.2612 9.6664C66.3276 10.9183 68.6981 11.5787 71.1141 11.5757C75.4543 11.5757 80.2121 8.02845 83.0074 4.51173L86.191 0.507038L86.2672 5.78563C86.2672 5.90293 86.2672 6.03196 86.2672 6.15513C86.2672 51.1475 54.8995 76.5927 44.0901 80.2982L43.5024 80.5L42.91 80.2935Z" fill="white"/>
<path id="Vector_2" d="M23.1056 45.3794L21.9795 59.7759C24.2698 62.5813 26.7229 65.2498 29.3261 67.7677L31.2874 42.6826L23.1056 45.3794Z" fill="#00589F"/>
<path id="Vector_3" d="M31.2879 42.6828L29.3266 67.7679C26.7234 65.2501 24.2703 62.5815 21.98 59.7761L23.1061 45.3796L31.2879 42.6817M31.6269 42.25L31.1929 42.3931L23.0111 45.0911L22.8187 45.1544L22.8023 45.3562L21.6774 59.7526L21.668 59.8699L21.7442 59.965C24.043 62.7817 26.506 65.4605 29.1202 67.9872L29.5894 68.4353L29.6398 67.7913L31.6011 42.7063L31.6363 42.2512L31.6269 42.25Z" fill="#003271"/>
<path id="Vector_4" d="M66.0056 31.2331L63.6455 61.4255C65.0531 59.7832 66.2965 58.2126 67.3077 56.8261C69.2374 54.1756 71.0121 51.4155 72.6226 48.5598L74.1874 28.541L66.0056 31.2331Z" fill="#00589F"/>
<path id="Vector_5" d="M74.1875 28.5412L72.6227 48.56C71.0121 51.4158 69.2375 54.1758 67.3078 56.8263C66.2966 58.2128 65.0532 59.7823 63.6456 61.4257L66.0057 31.2333L74.1875 28.5354M74.5265 28.1025L74.0925 28.2456L65.9107 30.9436L65.7183 31.0069L65.7031 31.2087L63.3418 61.4022L63.269 62.3336L63.8767 61.6298C65.2385 60.0392 66.5101 58.4427 67.5529 57.0116C69.4904 54.3505 71.2717 51.579 72.8878 48.7113L72.9207 48.6527V48.5847L74.4866 28.5659L74.5218 28.1096L74.5265 28.1025Z" fill="#003271"/>
<path id="Vector_6" d="M37.406 40.6667L34.9062 72.6409C37.4552 74.6198 40.0453 76.2772 42.5109 77.3177L45.5878 37.9746L37.406 40.6667Z" fill="#00589F"/>
<path id="Vector_7" d="M45.5881 37.9688L42.5113 77.3119C40.0479 76.2667 37.4555 74.6139 34.9066 72.6351L37.4063 40.6667L45.5881 37.9688ZM45.9271 37.5371L45.4919 37.6849L37.3112 40.3829L37.1177 40.4462L37.1025 40.648L34.6027 72.6116L34.5898 72.7758L34.72 72.8755C37.4755 75.0163 40.0573 76.6034 42.3928 77.5922L42.7822 77.7576L42.8151 77.3365L45.8942 37.9934L45.9306 37.5371H45.9271Z" fill="#003271"/>
<path id="Vector_8" d="M51.7064 35.9526L48.646 75.0834C51.5246 73.2512 54.4325 70.8465 57.1551 68.2717L59.8929 33.2559L51.7064 35.9526Z" fill="#00589F"/>
<path id="Vector_9" d="M59.8872 33.2553L57.1552 68.2711C54.4385 70.8518 51.5247 73.2506 48.652 75.0829L51.7124 35.9521L59.8931 33.2541M60.2321 32.8213L59.7981 32.9644L51.6162 35.6623L51.4239 35.7269L51.4074 35.9251L48.3423 75.0594L48.2954 75.6682L48.8104 75.3398C51.4954 73.6271 54.3717 71.3233 57.3593 68.4928L57.4438 68.4119L57.4532 68.2946L60.191 33.2788L60.2262 32.8225L60.2321 32.8213Z" fill="#003271"/>
<path id="Vector_10" d="M43.5024 79.4229L43.2385 79.3326C37.3734 77.322 27.0918 69.7209 18.3845 57.7819C10.7951 47.376 1.74756 29.9719 1.74756 6.1502C1.74756 6.0329 1.74756 5.90973 1.74756 5.79008L1.78861 3.3631L3.2021 5.14257C6.14991 8.84932 11.2162 12.5913 15.8895 12.5913C18.4911 12.5945 21.0436 11.8834 23.2687 10.5353C25.4938 9.18729 27.306 7.25412 28.5077 4.94668L29.3452 3.34668L29.9857 5.03466C31.92 10.1303 37.3511 13.5543 43.5024 13.5543C49.6537 13.5543 55.0848 10.1303 57.0179 5.03466L57.6584 3.34668L58.496 4.94668C59.6976 7.25412 61.5098 9.18729 63.7349 10.5353C65.96 11.8834 68.5125 12.5945 71.1141 12.5913C75.7886 12.5913 80.8502 8.84932 83.8027 5.14257L85.2232 3.35606L85.2526 5.81941C85.2526 5.92967 85.2526 6.03993 85.2526 6.15137C85.2526 29.9731 76.2062 47.3772 68.6156 57.783C59.9118 69.7209 49.6314 77.322 43.7652 79.3326L43.5024 79.4229ZM3.38627 7.83466C3.79917 30.3566 12.4291 46.861 19.6913 56.8259C24.6179 63.5742 34.9652 74.6276 43.5036 77.7056C52.035 74.6288 62.3892 63.5754 67.3089 56.8259C74.5816 46.861 83.2056 30.3555 83.6138 7.83466C79.208 12.5068 74.2461 14.2147 71.1141 14.2147C68.4883 14.2184 65.9029 13.5684 63.5911 12.3233C61.2793 11.0782 59.3138 9.27722 57.8719 7.08275C55.2913 11.9825 49.7206 15.1766 43.5024 15.1766C37.2842 15.1766 31.7135 11.9813 29.1317 7.08275C27.6899 9.2773 25.7244 11.0784 23.4126 12.3235C21.1007 13.5686 18.5153 14.2185 15.8895 14.2147C12.7575 14.2147 7.79565 12.5068 3.38627 7.83466Z" fill="#003271"/>
<path id="Vector_11" d="M14.3177 48.4476L81.3054 26.3643C81.4672 25.6801 81.6236 24.988 81.7746 24.2881L13.4238 46.8183C13.7194 47.3731 14.0174 47.9139 14.3177 48.4476Z" fill="#003271"/>
<path id="Vector_12" d="M8.25878 35.0878L71.6265 14.1975C71.4517 14.2069 71.2746 14.2151 71.1139 14.2151C69.798 14.2152 68.4871 14.0521 67.2113 13.7295L7.66992 33.3588C7.86152 33.9414 8.0578 34.5178 8.25878 35.0878Z" fill="#003271"/>
<path id="Vector_13" d="M27.5798 38.3382C26.9358 39.9734 25.3592 41.2356 23.5106 41.2356C22.9585 41.2339 22.4126 41.1202 21.9059 40.9013V32.8074C22.4183 32.6118 22.9621 32.5112 23.5106 32.5107C25.1892 32.5107 26.8982 33.6532 27.5798 35.2567V32.5329C26.6496 31.8291 25.3299 31.4033 23.5106 31.4033C20.2414 31.4033 17.5903 33.8667 17.5903 36.8989C17.5903 39.9312 20.2414 42.3934 23.5106 42.3934C25.0054 42.4018 26.4521 41.8651 27.5798 40.8837V38.3382Z" fill="#00589F"/>
<path id="Vector_14" d="M23.5105 42.546C20.1627 42.546 17.439 40.0123 17.439 36.8991C17.439 33.7859 20.1627 31.251 23.5105 31.251C25.2571 31.251 26.6566 31.6416 27.6724 32.4123C27.6904 32.4262 27.7052 32.4439 27.7155 32.4642C27.7259 32.4845 27.7316 32.5068 27.7322 32.5296V35.258C27.7321 35.2924 27.7205 35.3257 27.6993 35.3528C27.678 35.3798 27.6483 35.3989 27.6149 35.407C27.5805 35.414 27.5447 35.4089 27.5136 35.3924C27.4826 35.3759 27.4583 35.3491 27.4448 35.3167C26.7903 33.78 25.1375 32.6645 23.5152 32.6645C23.02 32.6646 22.5284 32.7495 22.0618 32.9155V40.7958C22.5219 40.984 23.0135 41.0827 23.5105 41.0868C25.2008 41.0868 26.7786 39.9607 27.4378 38.2844C27.4508 38.2513 27.475 38.2238 27.5061 38.2066C27.5373 38.1894 27.5734 38.1837 27.6084 38.1904C27.6433 38.1971 27.6748 38.2157 27.6974 38.2432C27.72 38.2706 27.7323 38.3051 27.7322 38.3407V40.8862C27.7326 40.9083 27.7282 40.9302 27.7193 40.9505C27.7104 40.9708 27.6972 40.9888 27.6806 41.0035C26.5243 42.0075 25.0419 42.5559 23.5105 42.546ZM23.5105 31.556C20.3305 31.556 17.7428 33.9524 17.7428 36.8991C17.7428 39.8457 20.3305 42.2422 23.5105 42.2422C24.945 42.2502 26.3348 41.7432 27.4272 40.8134V39.0105C26.6061 40.4557 25.107 41.3882 23.5105 41.3882C22.9375 41.3854 22.3711 41.2657 21.846 41.0363C21.8185 41.0248 21.7951 41.0054 21.7786 40.9805C21.7621 40.9557 21.7533 40.9265 21.7533 40.8967V32.8029C21.7532 32.7721 21.7625 32.7421 21.7799 32.7167C21.7973 32.6914 21.822 32.6719 21.8507 32.6609C22.3805 32.4579 22.9431 32.3537 23.5105 32.3536C25.0437 32.3536 26.6003 33.2815 27.4272 34.6269V32.6105C26.4712 31.9102 25.1539 31.556 23.5105 31.556Z" fill="#003271"/>
<path id="Vector_15" d="M69.7453 24.3624C69.1013 25.9988 67.5236 27.261 65.6761 27.261C65.1257 27.2585 64.5814 27.1448 64.0761 26.9267V18.8328C64.5888 18.6366 65.133 18.5361 65.682 18.536C67.3605 18.536 69.0696 19.6786 69.7512 21.2809V18.5642C68.821 17.8604 67.5013 17.4346 65.682 17.4346C62.4127 17.4346 59.7617 19.8979 59.7617 22.929C59.7617 25.9601 62.4069 28.4176 65.6761 28.4176C67.1712 28.4261 68.6181 27.8889 69.7453 26.9067V24.3624Z" fill="#00589F"/>
<path id="Vector_16" d="M65.6762 28.5718C62.3284 28.5718 59.6035 26.0381 59.6035 22.9237C59.6035 19.8093 62.3284 17.2744 65.6762 17.2744C67.4229 17.2744 68.8223 17.665 69.8369 18.4357C69.8554 18.4493 69.8705 18.4669 69.8811 18.4873C69.8916 18.5076 69.8974 18.5301 69.8979 18.553V21.2861C69.8982 21.3215 69.8862 21.3558 69.8639 21.3833C69.8417 21.4108 69.8106 21.4297 69.7759 21.4367C69.7413 21.4438 69.7053 21.4386 69.674 21.4221C69.6428 21.4055 69.6183 21.3786 69.6047 21.346C68.9513 19.8093 67.2985 18.6938 65.6762 18.6938C65.1811 18.6941 64.6897 18.7786 64.2229 18.9436V26.8251C64.6848 27.0115 65.1781 27.1079 65.6762 27.109C67.3654 27.109 68.9443 25.9841 69.6035 24.3078C69.6163 24.2747 69.6404 24.2472 69.6715 24.23C69.7026 24.2129 69.7388 24.2072 69.7736 24.214C69.8084 24.2205 69.8398 24.239 69.8625 24.2662C69.8852 24.2933 69.8977 24.3276 69.8979 24.363V26.9084C69.8984 26.9306 69.894 26.9525 69.8851 26.9728C69.8761 26.993 69.8629 27.0111 69.8463 27.0257C68.6905 28.0309 67.208 28.5805 65.6762 28.5718ZM65.6762 17.5806C62.4962 17.5806 59.9085 19.9782 59.9085 22.9237C59.9085 25.8691 62.4962 28.2668 65.6762 28.2668C67.1094 28.2742 68.4977 27.7678 69.5894 26.8392V25.0363C68.7683 26.4815 67.2692 27.414 65.6727 27.414C65.0994 27.4106 64.5327 27.2909 64.007 27.0621C63.9798 27.0504 63.9566 27.0309 63.9403 27.0061C63.924 26.9812 63.9154 26.9522 63.9155 26.9225V18.8287C63.9154 18.7979 63.9247 18.7679 63.9421 18.7425C63.9595 18.7172 63.9842 18.6977 64.0129 18.6867C64.5427 18.4836 65.1053 18.3795 65.6727 18.3794C67.2059 18.3794 68.7625 19.3073 69.5894 20.6527V18.6351C68.6369 17.936 67.3196 17.5806 65.6762 17.5806Z" fill="#003271"/>
<path id="Vector_17" d="M51.3768 32.7497C52.0622 32.7497 52.6179 32.194 52.6179 31.5086C52.6179 30.8232 52.0622 30.2676 51.3768 30.2676C50.6914 30.2676 50.1357 30.8232 50.1357 31.5086C50.1357 32.194 50.6914 32.7497 51.3768 32.7497Z" fill="#00589F"/>
<path id="Vector_18" d="M51.3769 32.9023C51.1013 32.9023 50.8319 32.8206 50.6027 32.6675C50.3736 32.5143 50.195 32.2967 50.0895 32.0421C49.984 31.7874 49.9564 31.5072 50.0102 31.2369C50.0639 30.9666 50.1967 30.7183 50.3916 30.5234C50.5865 30.3285 50.8348 30.1958 51.1051 30.142C51.3754 30.0882 51.6556 30.1158 51.9102 30.2213C52.1649 30.3268 52.3825 30.5054 52.5356 30.7346C52.6888 30.9637 52.7705 31.2332 52.7705 31.5088C52.7702 31.8783 52.6233 32.2326 52.362 32.4938C52.1007 32.7551 51.7464 32.902 51.3769 32.9023ZM51.3769 30.4202C51.1617 30.4202 50.9512 30.4841 50.7722 30.6037C50.5932 30.7233 50.4536 30.8933 50.3712 31.0922C50.2889 31.2911 50.2673 31.51 50.3093 31.7211C50.3513 31.9323 50.455 32.1263 50.6072 32.2785C50.7595 32.4308 50.9534 32.5344 51.1646 32.5764C51.3757 32.6184 51.5946 32.5969 51.7935 32.5145C51.9924 32.4321 52.1624 32.2926 52.2821 32.1136C52.4017 31.9345 52.4655 31.7241 52.4655 31.5088C52.4652 31.2202 52.3504 30.9435 52.1463 30.7394C51.9423 30.5353 51.6656 30.4205 51.3769 30.4202Z" fill="#003271"/>
<path id="Vector_19" d="M30.367 39.6638C31.0525 39.6638 31.6081 39.1081 31.6081 38.4227C31.6081 37.7373 31.0525 37.1816 30.367 37.1816C29.6816 37.1816 29.126 37.7373 29.126 38.4227C29.126 39.1081 29.6816 39.6638 30.367 39.6638Z" fill="#00589F"/>
<path id="Vector_20" d="M30.3669 39.8164C30.0912 39.8166 29.8217 39.7351 29.5924 39.5821C29.363 39.4291 29.1842 39.2116 29.0786 38.9569C28.9729 38.7023 28.9452 38.4221 28.9988 38.1517C29.0524 37.8813 29.1851 37.6329 29.3799 37.4379C29.5748 37.2429 29.8231 37.11 30.0934 37.0562C30.3638 37.0023 30.644 37.0298 30.8987 37.1353C31.1534 37.2407 31.3712 37.4193 31.5243 37.6485C31.6775 37.8777 31.7593 38.1472 31.7593 38.4228C31.759 38.7921 31.6122 39.1462 31.3512 39.4075C31.0902 39.6687 30.7362 39.8158 30.3669 39.8164ZM30.3669 37.3343C30.1516 37.3343 29.9411 37.3981 29.7621 37.5177C29.5831 37.6374 29.4436 37.8074 29.3612 38.0063C29.2788 38.2052 29.2572 38.4241 29.2992 38.6352C29.3412 38.8464 29.4449 39.0403 29.5972 39.1926C29.7494 39.3448 29.9434 39.4485 30.1545 39.4905C30.3657 39.5325 30.5846 39.5109 30.7835 39.4285C30.9824 39.3462 31.1524 39.2066 31.272 39.0276C31.3916 38.8486 31.4555 38.6381 31.4555 38.4228C31.4555 38.134 31.3408 37.857 31.1367 37.6527C30.9326 37.4484 30.6557 37.3334 30.3669 37.3331V37.3343Z" fill="#003271"/>
<path id="Vector_21" d="M72.3436 25.9264C73.029 25.9264 73.5847 25.3708 73.5847 24.6854C73.5847 24 73.029 23.4443 72.3436 23.4443C71.6582 23.4443 71.1025 24 71.1025 24.6854C71.1025 25.3708 71.6582 25.9264 72.3436 25.9264Z" fill="#00589F"/>
<path id="Vector_22" d="M72.3437 26.0781C72.0681 26.0781 71.7986 25.9964 71.5694 25.8432C71.3402 25.69 71.1616 25.4723 71.0562 25.2176C70.9507 24.9629 70.9232 24.6826 70.9771 24.4123C71.0309 24.1419 71.1638 23.8936 71.3588 23.6988C71.5538 23.5039 71.8022 23.3713 72.0726 23.3177C72.343 23.264 72.6232 23.2918 72.8778 23.3974C73.1325 23.5031 73.35 23.6819 73.503 23.9112C73.656 24.1405 73.7375 24.4101 73.7373 24.6857C73.7367 25.055 73.5896 25.409 73.3284 25.67C73.0671 25.931 72.713 26.0778 72.3437 26.0781ZM72.3437 23.5972C72.1284 23.5972 71.918 23.661 71.739 23.7806C71.56 23.9002 71.4204 24.0703 71.338 24.2692C71.2557 24.4681 71.2341 24.6869 71.2761 24.8981C71.3181 25.1093 71.4218 25.3032 71.574 25.4555C71.7263 25.6077 71.9202 25.7114 72.1314 25.7534C72.3425 25.7954 72.5614 25.7738 72.7603 25.6914C72.9592 25.609 73.1292 25.4695 73.2489 25.2905C73.3685 25.1115 73.4323 24.901 73.4323 24.6857C73.432 24.3971 73.3172 24.1204 73.1131 23.9163C72.9091 23.7123 72.6324 23.5975 72.3437 23.5972Z" fill="#003271"/>
<path id="Vector_23" d="M49.0167 28.4179C49.0167 28.4179 49.1516 27.0256 47.8496 25.9241C46.5475 24.8226 44.0337 25.0502 43.1575 25.32C42.2812 25.5898 39.0015 26.8015 39.0015 26.8015V27.5311L40.1745 27.5194V35.8983L39.0015 36.1505V37.0431C39.0015 37.0431 44.9452 35.1077 46.2824 34.6736C48.1147 34.0801 49.0226 32.7487 49.0226 30.8121C49.0214 30.3077 49.0167 28.4179 49.0167 28.4179ZM46.178 32.5141C46.178 33.1311 45.7733 33.7376 45.0589 33.9933C44.5698 34.1681 43.3487 34.5798 43.3487 34.5798V26.2631C43.8231 26.0402 44.3313 25.8979 44.8525 25.842C46.178 25.7411 46.178 26.7804 46.178 27.9464V32.5141Z" fill="#00589F"/>
<path id="Vector_24" d="M39.0002 37.1971C38.9681 37.1969 38.9369 37.1866 38.911 37.1677C38.8921 37.1544 38.8766 37.1369 38.8656 37.1165C38.8546 37.0962 38.8485 37.0736 38.8477 37.0504V36.1578C38.8475 36.1233 38.859 36.0899 38.8803 36.0628C38.9016 36.0358 38.9315 36.0167 38.965 36.0088L40.0207 35.7824V27.6745L39.0013 27.6839C38.9813 27.6844 38.9614 27.6808 38.9429 27.6733C38.9243 27.6659 38.9075 27.6547 38.8934 27.6405C38.879 27.6264 38.8676 27.6096 38.8597 27.5911C38.8519 27.5726 38.8478 27.5527 38.8477 27.5326V26.8029C38.8476 26.7717 38.8572 26.7413 38.875 26.7157C38.8929 26.6901 38.9181 26.6706 38.9474 26.6598C39.0811 26.6106 42.2389 25.4434 43.1116 25.176C43.9116 24.9296 46.545 24.6235 47.948 25.8094C49.2582 26.9179 49.1796 28.295 49.1691 28.4264C49.1585 28.5578 49.1691 30.3255 49.1691 30.8135C49.1691 32.8311 48.1849 34.2153 46.3233 34.8194C44.9861 35.2534 39.0424 37.1889 39.0424 37.1889C39.0288 37.1939 39.0146 37.1967 39.0002 37.1971ZM39.1526 36.2751V36.8346C40.1978 36.4944 45.0436 34.9167 46.2342 34.5308C47.9831 33.9631 48.8688 32.7126 48.8688 30.8135C48.8688 30.3079 48.8688 28.4194 48.8688 28.4194V28.4053C48.8688 28.3912 48.9755 27.0751 47.7556 26.0428C46.5603 25.0328 44.1626 25.1724 43.2043 25.4669C42.4254 25.7015 39.711 26.7032 39.1562 26.9085V27.3777L40.1743 27.3672C40.2149 27.3682 40.2537 27.3841 40.2834 27.4117C40.2978 27.4258 40.3092 27.4425 40.3168 27.4611C40.3245 27.4797 40.3283 27.4996 40.328 27.5196V35.8985C40.3281 35.933 40.3166 35.9664 40.2953 35.9935C40.274 36.0205 40.2442 36.0396 40.2107 36.0475L39.1526 36.2751ZM43.3485 34.7384C43.317 34.7384 43.2862 34.7286 43.2606 34.7103C43.2409 34.696 43.225 34.6773 43.214 34.6557C43.203 34.6341 43.1972 34.6102 43.1972 34.5859V26.2692C43.1973 26.2409 43.2052 26.2132 43.2201 26.1892C43.2351 26.1652 43.2564 26.1458 43.2817 26.1331C43.7722 25.9009 44.2985 25.7534 44.8383 25.6968C45.2993 25.6616 45.6406 25.7531 45.8834 25.9783C46.3268 26.3877 46.3268 27.1513 46.3268 27.9525V32.5155C46.3268 33.2358 45.8471 33.8727 45.1069 34.1378C44.6213 34.3114 43.4072 34.7243 43.3943 34.7302C43.3796 34.7355 43.3641 34.7383 43.3485 34.7384ZM43.501 26.3666V34.3736C43.8694 34.2469 44.6447 33.9806 45.0072 33.8516C45.6254 33.6299 46.0254 33.1056 46.0254 32.5155V27.949C46.0254 27.2135 46.0254 26.5179 45.6805 26.1977C45.5034 26.0334 45.2371 25.9631 44.8594 25.9971C44.39 26.0482 43.9316 26.1729 43.501 26.3666Z" fill="#003271"/>
<path id="Vector_25" d="M13.6418 28.6967C14.8668 28.6967 16.0642 28.3334 17.0827 27.6529C18.1013 26.9723 18.8951 26.005 19.3639 24.8733C19.8327 23.7416 19.9553 22.4963 19.7163 21.2948C19.4774 20.0934 18.8875 18.9898 18.0213 18.1236C17.1551 17.2574 16.0515 16.6676 14.8501 16.4286C13.6487 16.1896 12.4033 16.3123 11.2716 16.781C10.1399 17.2498 9.1726 18.0436 8.49204 19.0622C7.81149 20.0807 7.44824 21.2782 7.44824 22.5031C7.4501 24.1452 8.10324 25.7195 9.26435 26.8806C10.4255 28.0417 11.9997 28.6948 13.6418 28.6967ZM18.6987 20.4597C19.13 21.1563 19.3946 21.9432 19.4717 22.7588C19.1045 24.0562 18.4617 24.7154 18.335 24.8363C17.6547 24.7424 16.8031 24.7107 16.5521 24.7025C16.5802 24.3706 16.5345 23.3336 15.7427 22.1043C16.2034 21.474 16.5815 20.7873 16.8676 20.0609C18.0371 19.9366 18.6342 20.4046 18.6987 20.4597ZM12.0007 25.9541C11.8095 25.3324 11.2617 23.9248 11.1702 23.689C11.6868 22.9473 12.3061 22.2826 13.0095 21.7149C13.8608 21.9576 14.7352 22.1101 15.6183 22.17C16.477 23.4967 16.423 24.5876 16.4101 24.7412L14.6846 26.6486C14.4371 26.6228 12.8711 26.4456 12.0007 25.9541ZM15.6746 27.9905C16.1654 27.7919 16.6423 27.5607 17.1022 27.2984C16.5833 27.6737 16.0069 27.9621 15.3955 28.1524C15.4916 28.1035 15.5848 28.0491 15.6746 27.9893V27.9905ZM18.4289 24.9407C18.5579 24.8234 19.1456 24.2251 19.5327 23.0357C19.4215 24.292 18.91 25.4795 18.0735 26.4234C18.2975 25.9601 18.4188 25.454 18.4289 24.9395V24.9407ZM12.5392 19.1342C12.5392 19.3606 12.5755 20.6591 12.9133 21.614C12.2062 22.185 11.5834 22.8532 11.0635 23.5987C10.404 23.3996 9.73245 23.2428 9.05293 23.1295C8.77985 22.3414 8.64492 21.512 8.65411 20.6779C9.63475 19.2539 10.2963 18.8116 10.3925 18.7518C11.7814 18.6591 12.4136 19.0451 12.5392 19.133V19.1342ZM8.08167 20.4785L8.51335 20.6943C8.52038 22.0902 8.85821 23.0169 8.92507 23.1858C8.71954 23.7243 8.57934 24.2855 8.50748 24.8574C8.38789 24.8173 8.27043 24.7711 8.15557 24.719C7.60823 23.3631 7.58191 21.8526 8.08167 20.4785ZM8.24003 24.8984C8.3761 24.9547 8.48285 24.9888 8.52859 25.0028C9.02824 25.7543 9.65268 26.4149 10.3749 26.9559C10.5412 27.2738 10.7619 27.5601 11.0271 27.8017C9.78906 27.1871 8.80361 26.1605 8.24003 24.8984ZM11.4717 27.9999C11.2031 27.7876 10.7597 27.3958 10.5262 26.9442C11.0435 26.7295 11.5252 26.4376 11.955 26.0785C12.8582 26.5794 14.4007 26.7518 14.6705 26.7823C14.8829 27.2107 15.1742 27.5952 15.5292 27.9154C15.2044 28.1083 14.8547 28.2559 14.4899 28.3541C13.4704 28.5023 12.4298 28.3809 11.4717 28.0022V27.9999ZM18.5544 19.2022H18.5274L18.5697 19.2914C18.693 19.6043 18.738 19.9425 18.701 20.2767C18.5075 20.1442 18.0383 19.892 17.2664 19.892C17.13 19.8927 16.9938 19.9005 16.8582 19.9154C16.7024 19.6601 16.5312 19.4145 16.3456 19.18C16.05 18.8034 15.5914 18.299 15.0694 18.0011C15.119 17.66 15.119 17.3134 15.0694 16.9723C15.3086 16.9401 15.5513 16.9433 15.7896 16.9817C16.9148 17.4249 17.8781 18.2008 18.5509 19.2058L18.5544 19.2022ZM14.3315 16.6216C14.5497 16.6856 14.7504 16.7987 14.918 16.9524C14.9751 17.2922 14.979 17.6389 14.9298 17.98C14.0946 18.1594 13.305 18.5079 12.6095 19.004C12.4582 18.8984 11.9151 18.5864 10.7925 18.5864C10.6752 18.5864 10.5579 18.5864 10.4406 18.5958C10.4183 17.892 10.6928 17.5201 10.6952 17.5166L10.7714 17.4181L10.6377 17.404C11.5471 16.8644 12.5855 16.5807 13.643 16.5829C13.872 16.5845 14.1008 16.5998 14.328 16.6286L14.3315 16.6216Z" fill="#003271"/>
</g>
</g>
</svg>
