<svg xmlns="http://www.w3.org/2000/svg" width="19" height="22" viewBox="0 0 19 22" fill="none">
  <path d="M15.61 21.4601H3.40001C3.08269 21.4614 2.76822 21.4 2.47467 21.2795C2.18112 21.159 1.91427 20.9817 1.68942 20.7577C1.46457 20.5338 1.28615 20.2677 1.16441 19.9746C1.04267 19.6816 0.980009 19.3674 0.980011 19.0501V3.00006C0.973337 2.67855 1.03107 2.35895 1.14982 2.0601C1.26857 1.76125 1.44593 1.48919 1.67145 1.25994C1.89697 1.03069 2.1661 0.848893 2.46296 0.72526C2.75983 0.601628 3.07843 0.538658 3.40001 0.540062H15.61C15.9307 0.539993 16.2483 0.603947 16.544 0.728175C16.8397 0.852404 17.1076 1.03441 17.3321 1.26352C17.5565 1.49263 17.733 1.76424 17.8511 2.06243C17.9692 2.36062 18.0267 2.67939 18.02 3.00006V19.1001C18.0069 19.7305 17.7473 20.3308 17.2967 20.772C16.8461 21.2132 16.2406 21.4602 15.61 21.4601ZM3.40001 1.54006C3.20972 1.53859 3.02111 1.57566 2.84553 1.64902C2.66994 1.72238 2.51103 1.83053 2.37835 1.96694C2.24568 2.10335 2.14199 2.26521 2.07353 2.44276C2.00507 2.62032 1.97326 2.80989 1.98001 3.00006V19.1001C1.99302 19.467 2.14867 19.8144 2.41385 20.0684C2.67903 20.3224 3.03283 20.4629 3.40001 20.4601H15.61C15.984 20.4601 16.3426 20.3115 16.607 20.0471C16.8715 19.7827 17.02 19.424 17.02 19.0501V3.00006C17.02 2.62611 16.8715 2.26747 16.607 2.00304C16.3426 1.73862 15.984 1.59006 15.61 1.59006L3.40001 1.54006Z" fill="#05253E"/>
  <path d="M17.5 11.5H11.97C11.8374 11.5 11.7102 11.4473 11.6164 11.3536C11.5227 11.2598 11.47 11.1326 11.47 11C11.47 10.8674 11.5227 10.7402 11.6164 10.6464C11.7102 10.5527 11.8374 10.5 11.97 10.5H17.5C17.6326 10.5 17.7598 10.5527 17.8536 10.6464C17.9473 10.7402 18 10.8674 18 11C18 11.1326 17.9473 11.2598 17.8536 11.3536C17.7598 11.4473 17.6326 11.5 17.5 11.5Z" fill="#05253E"/>
  <path d="M7.04 11.5H1.5C1.36739 11.5 1.24021 11.4473 1.14645 11.3536C1.05268 11.2598 1 11.1326 1 11C1 10.8674 1.05268 10.7402 1.14645 10.6464C1.24021 10.5527 1.36739 10.5 1.5 10.5H7.04C7.17261 10.5 7.29979 10.5527 7.39355 10.6464C7.48732 10.7402 7.54 10.8674 7.54 11C7.54 11.1326 7.48732 11.2598 7.39355 11.3536C7.29979 11.4473 7.17261 11.5 7.04 11.5Z" fill="#05253E"/>
  <path d="M12.86 4.88H6.14001C6.00741 4.88 5.88023 4.82732 5.78646 4.73355C5.69269 4.63979 5.64001 4.51261 5.64001 4.38V1C5.64001 0.867392 5.69269 0.740215 5.78646 0.646447C5.88023 0.552678 6.00741 0.5 6.14001 0.5H12.86C12.9926 0.5 13.1198 0.552678 13.2136 0.646447C13.3073 0.740215 13.36 0.867392 13.36 1V4.38C13.36 4.51261 13.3073 4.63979 13.2136 4.73355C13.1198 4.82732 12.9926 4.88 12.86 4.88ZM6.64001 3.88H12.36V1.54H6.64001V3.88Z" fill="#05253E"/>
  <path d="M12.86 21.4601H6.14001C6.00741 21.4601 5.88023 21.4074 5.78646 21.3137C5.69269 21.2199 5.64001 21.0927 5.64001 20.9601V17.6201C5.64001 17.4875 5.69269 17.3603 5.78646 17.2666C5.88023 17.1728 6.00741 17.1201 6.14001 17.1201H12.86C12.9926 17.1201 13.1198 17.1728 13.2136 17.2666C13.3073 17.3603 13.36 17.4875 13.36 17.6201V21.0001C13.3499 21.1257 13.2928 21.2428 13.2001 21.3281C13.1074 21.4134 12.986 21.4605 12.86 21.4601ZM6.64001 20.4601H12.36V18.1201H6.64001V20.4601Z" fill="#05253E"/>
  <path d="M9.5 13.8999C8.90666 13.8999 8.32664 13.724 7.83329 13.3943C7.33994 13.0647 6.95543 12.5961 6.72836 12.048C6.5013 11.4998 6.44189 10.8966 6.55765 10.3146C6.6734 9.73269 6.95912 9.19814 7.37868 8.77858C7.79824 8.35903 8.33279 8.0733 8.91473 7.95755C9.49667 7.84179 10.0999 7.9012 10.6481 8.12827C11.1962 8.35533 11.6648 8.73985 11.9944 9.23319C12.3241 9.72654 12.5 10.3066 12.5 10.8999C12.5 11.6956 12.1839 12.4586 11.6213 13.0212C11.0587 13.5838 10.2957 13.8999 9.5 13.8999ZM9.5 8.9999C9.10444 8.9999 8.71776 9.1172 8.38886 9.33696C8.05996 9.55673 7.80362 9.86908 7.65224 10.2345C7.50087 10.6 7.46126 11.0021 7.53843 11.3901C7.6156 11.778 7.80608 12.1344 8.08579 12.4141C8.36549 12.6938 8.72186 12.8843 9.10982 12.9615C9.49778 13.0386 9.89992 12.999 10.2654 12.8477C10.6308 12.6963 10.9432 12.4399 11.1629 12.111C11.3827 11.7821 11.5 11.3955 11.5 10.9999C11.5 10.4695 11.2893 9.96076 10.9142 9.58569C10.5391 9.21062 10.0304 8.9999 9.5 8.9999Z" fill="#05253E"/>
</svg>