<svg xmlns="http://www.w3.org/2000/svg" width="17" height="20" viewBox="0 0 17 20" fill="none">
  <path d="M3 19.1201C2.20435 19.1201 1.44129 18.804 0.87868 18.2414C0.316071 17.6788 0 16.9158 0 16.1201V9.12012C0 8.32447 0.316071 7.56141 0.87868 6.9988C1.44129 6.43619 2.20435 6.12012 3 6.12012C3.79565 6.12012 4.55871 6.43619 5.12132 6.9988C5.68393 7.56141 6 8.32447 6 9.12012V16.1201C6 16.9158 5.68393 17.6788 5.12132 18.2414C4.55871 18.804 3.79565 19.1201 3 19.1201ZM3 7.12012C2.46957 7.12012 1.96086 7.33083 1.58579 7.7059C1.21071 8.08098 1 8.58968 1 9.12012V16.1201C1 16.6506 1.21071 17.1593 1.58579 17.5343C1.96086 17.9094 2.46957 18.1201 3 18.1201C3.53043 18.1201 4.03914 17.9094 4.41421 17.5343C4.78929 17.1593 5 16.6506 5 16.1201V9.12012C5 8.58968 4.78929 8.08098 4.41421 7.7059C4.03914 7.33083 3.53043 7.12012 3 7.12012Z" fill="#05253E"/>
  <path d="M14.56 19.1201H7.44001C7.11958 19.1201 6.80229 19.057 6.50626 18.9344C6.21023 18.8118 5.94124 18.632 5.71467 18.4055C5.48809 18.1789 5.30836 17.9099 5.18574 17.6139C5.06312 17.3178 5.00001 17.0005 5.00001 16.6801V6.62012C4.99516 6.59031 4.99516 6.55992 5.00001 6.53012C5.30808 4.74147 5.98955 3.0378 7.00001 1.53012C7.21058 1.25771 7.50247 1.05947 7.83332 0.964172C8.16418 0.868871 8.51679 0.881462 8.84001 1.00012C9.17519 1.1108 9.46731 1.32367 9.67535 1.60883C9.88339 1.89399 9.99692 2.23714 10 2.59012V6.12012H14.56C14.88 6.1188 15.197 6.18068 15.493 6.30221C15.789 6.42374 16.058 6.60252 16.2847 6.8283C16.5115 7.05408 16.6913 7.32241 16.8141 7.61788C16.9368 7.91336 17 8.23016 17 8.55012V16.6801C17 17.0005 16.9369 17.3178 16.8143 17.6139C16.6917 17.9099 16.5119 18.1789 16.2853 18.4055C16.0588 18.632 15.7898 18.8118 15.4938 18.9344C15.1977 19.057 14.8804 19.1201 14.56 19.1201ZM6.00001 6.66012V16.6601C6.00001 17.042 6.15172 17.4083 6.42177 17.6784C6.69183 17.9484 7.0581 18.1001 7.44001 18.1001H14.56C14.9419 18.1001 15.3082 17.9484 15.5782 17.6784C15.8483 17.4083 16 17.042 16 16.6601V8.55012C16 8.36148 15.9627 8.17471 15.8902 8.00056C15.8177 7.82641 15.7115 7.66832 15.5776 7.5354C15.4438 7.40248 15.285 7.29736 15.1103 7.22609C14.9357 7.15481 14.7486 7.1188 14.56 7.12012H9.50001C9.3674 7.12012 9.24022 7.06744 9.14645 6.97367C9.05269 6.8799 9.00001 6.75273 9.00001 6.62012V2.62012C9.00646 2.46443 8.96079 2.31104 8.87022 2.18425C8.77965 2.05745 8.64937 1.9645 8.50001 1.92012C8.36786 1.87213 8.22385 1.86759 8.08894 1.90716C7.95403 1.94673 7.83529 2.02835 7.75001 2.14012C6.8653 3.51207 6.26982 5.0501 6.00001 6.66012Z" fill="#05253E"/>
</svg>