<svg xmlns="http://www.w3.org/2000/svg" width="44" height="40" viewBox="0 0 44 40" fill="none">
  <path d="M21.6678 28.1805C18.6125 28.1805 15.6824 26.9668 13.522 24.8064C11.3616 22.646 10.1478 19.7158 10.1478 16.6605V3.30054C10.1174 2.86774 10.1174 2.43334 10.1478 2.00054C10.1728 1.80487 10.236 1.61603 10.334 1.44481C10.4319 1.27358 10.5626 1.12332 10.7186 1.0026C10.8746 0.881886 11.0529 0.793079 11.2432 0.741252C11.4335 0.689424 11.6322 0.675591 11.8278 0.700542C12.0235 0.725493 12.2124 0.78874 12.3836 0.886671C12.5548 0.984603 12.7051 1.1153 12.8258 1.2713C12.9465 1.42731 13.0353 1.60556 13.0871 1.79588C13.139 1.9862 13.1528 2.18487 13.1278 2.38054C13.1066 2.68684 13.1066 2.99424 13.1278 3.30054V16.6605C13.1278 18.9202 14.0255 21.0873 15.6233 22.6851C17.2211 24.2829 19.3882 25.1805 21.6478 25.1805C23.9075 25.1805 26.0746 24.2829 27.6724 22.6851C29.2702 21.0873 30.1678 18.9202 30.1678 16.6605V3.30054C30.189 2.99424 30.189 2.68684 30.1678 2.38054C30.177 2.02273 30.3138 1.67999 30.5535 1.4142C30.7932 1.14842 31.1201 0.977116 31.4751 0.931235C31.83 0.885354 32.1897 0.967917 32.4892 1.16401C32.7886 1.36011 33.008 1.65682 33.1078 2.00054C33.1383 2.43334 33.1383 2.86774 33.1078 3.30054V16.6605C33.1079 19.702 31.9052 22.6201 29.762 24.7783C27.6189 26.9364 24.7093 28.1594 21.6678 28.1805V28.1805Z" fill="#00E589"/>
  <path d="M32.7674 16.0003C32.4924 15.9979 32.2231 15.9219 31.9874 15.7803L30.9074 15.1403C30.5843 14.934 30.3524 14.6117 30.2594 14.2398C30.1664 13.8678 30.2194 13.4744 30.4074 13.1403C30.6071 12.8099 30.928 12.5706 31.3016 12.4734C31.6753 12.3763 32.0721 12.429 32.4074 12.6203L33.1074 13.0403C38.4474 12.6403 39.6674 6.56027 40.0674 3.68027H3.26742C3.54742 6.58027 4.82742 12.6403 10.1674 12.9203L10.8674 12.5003C11.2028 12.309 11.5996 12.2563 11.9732 12.3534C12.3468 12.4506 12.6677 12.6899 12.8674 13.0203C13.0555 13.3544 13.1084 13.7478 13.0154 14.1198C12.9225 14.4917 12.6906 14.814 12.3674 15.0203L11.2874 15.6603C11.0517 15.8019 10.7824 15.8779 10.5074 15.8803C2.28742 15.8803 0.107422 6.88027 0.107422 2.12027C0.128147 1.72415 0.302894 1.35183 0.59436 1.08279C0.885825 0.813742 1.27092 0.66929 1.66742 0.680271H41.6674C42.0636 0.685451 42.4422 0.845149 42.7224 1.12534C43.0025 1.40553 43.1622 1.78406 43.1674 2.18027C43.1674 6.94027 40.9874 16.0003 32.7674 16.0003Z" fill="#00E589"/>
  <path d="M21.667 39.3207C21.2708 39.3155 20.8923 39.1558 20.6121 38.8756C20.3319 38.5954 20.1722 38.2169 20.167 37.8207V26.6807C20.167 26.2828 20.325 25.9013 20.6063 25.62C20.8876 25.3387 21.2692 25.1807 21.667 25.1807C22.0648 25.1807 22.4463 25.3387 22.7277 25.62C23.009 25.9013 23.167 26.2828 23.167 26.6807V37.8207C23.1618 38.2169 23.0021 38.5954 22.7219 38.8756C22.4417 39.1558 22.0632 39.3155 21.667 39.3207V39.3207Z" fill="#00E589"/>
  <path d="M32.8076 39.3203H12.8076C12.4098 39.3203 12.0283 39.1623 11.747 38.881C11.4657 38.5997 11.3076 38.2181 11.3076 37.8203C11.3076 37.4225 11.4657 37.041 11.747 36.7597C12.0283 36.4783 12.4098 36.3203 12.8076 36.3203H32.8076C33.2054 36.3203 33.587 36.4783 33.8683 36.7597C34.1496 37.041 34.3076 37.4225 34.3076 37.8203C34.3076 38.2181 34.1496 38.5997 33.8683 38.881C33.587 39.1623 33.2054 39.3203 32.8076 39.3203Z" fill="#00E589"/>
</svg>