<svg xmlns="http://www.w3.org/2000/svg" width="41" height="40" viewBox="0 0 41 40" fill="none">
  <path d="M16.8333 20.66C16.5912 20.6571 16.3526 20.6026 16.1333 20.5L11.2133 18L6.33328 20.5C6.08391 20.633 5.80206 20.6928 5.52019 20.6725C5.23832 20.6523 4.9679 20.5528 4.74008 20.3856C4.51226 20.2184 4.33631 19.9903 4.23249 19.7274C4.12867 19.4646 4.10122 19.1778 4.15328 18.9L5.09328 13.44L1.09328 9.56002C0.887189 9.36356 0.740422 9.11316 0.669701 8.83735C0.598981 8.56154 0.607152 8.27142 0.693283 8.00002C0.780599 7.73275 0.941278 7.4954 1.15699 7.31505C1.37271 7.1347 1.63477 7.01861 1.91328 6.98002L7.41328 6.18002L9.85328 1.22002C9.99422 0.988253 10.1925 0.79667 10.4289 0.663722C10.6653 0.530774 10.932 0.460938 11.2033 0.460938C11.4745 0.460938 11.7412 0.530774 11.9777 0.663722C12.2141 0.79667 12.4123 0.988253 12.5533 1.22002L15.0133 6.20002L20.5133 7.00002C20.7896 7.0418 21.0488 7.15996 21.2616 7.34117C21.4744 7.52238 21.6323 7.75943 21.7176 8.0256C21.8028 8.29177 21.812 8.57647 21.7441 8.84759C21.6762 9.1187 21.5339 9.36546 21.3333 9.56002L17.3333 13.44L18.3333 18.9C18.385 19.1763 18.358 19.4615 18.2554 19.7232C18.1529 19.9848 17.9789 20.2124 17.7533 20.38C17.4832 20.5667 17.1616 20.6645 16.8333 20.66V20.66ZM5.35328 9.52002L7.71328 11.84C7.88921 12.0071 8.02135 12.2149 8.09808 12.4451C8.1748 12.6753 8.19376 12.9208 8.15328 13.16L7.59328 16.42L10.5133 14.88C10.7305 14.771 10.9702 14.7142 11.2133 14.7142C11.4564 14.7142 11.6961 14.771 11.9133 14.88L14.8333 16.42L14.3333 13.16C14.2928 12.9208 14.3118 12.6753 14.3885 12.4451C14.4652 12.2149 14.5974 12.0071 14.7733 11.84L17.1333 9.52002L13.7933 9.06002C13.5549 9.02209 13.329 8.92793 13.1342 8.78534C12.9394 8.64274 12.7814 8.45582 12.6733 8.24002L11.2133 5.26002L9.75328 8.24002C9.64321 8.4583 9.48211 8.64681 9.28365 8.78956C9.0852 8.93231 8.85524 9.02509 8.61328 9.06002L5.35328 9.52002Z" fill="#00E589"/>
  <path d="M20.9934 39.6196C20.6787 39.616 20.3723 39.5185 20.1134 39.3396C19.8859 39.1729 19.7093 38.9462 19.6034 38.6848C19.4974 38.4234 19.4663 38.1377 19.5134 37.8596L20.6734 31.1796L15.8134 26.4396C15.6084 26.2469 15.4634 25.999 15.396 25.7257C15.3286 25.4525 15.3416 25.1656 15.4334 24.8996C15.5192 24.6351 15.6769 24.3996 15.8888 24.2195C16.1007 24.0394 16.3585 23.9217 16.6334 23.8796L23.3534 22.9196L26.3334 16.8196C26.4743 16.5879 26.6726 16.3963 26.909 16.2633C27.1455 16.1304 27.4122 16.0605 27.6834 16.0605C27.9547 16.0605 28.2214 16.1304 28.4578 16.2633C28.6942 16.3963 28.8925 16.5879 29.0334 16.8196L32.0334 22.9196L38.7334 23.8796C39.0114 23.9183 39.273 24.0343 39.4884 24.2142C39.7037 24.3942 39.8643 24.631 39.9518 24.8976C40.0393 25.1643 40.0503 25.4502 39.9834 25.7228C39.9165 25.9954 39.7744 26.2438 39.5734 26.4396L34.7334 31.1796L35.8734 37.8596C35.9227 38.1358 35.8947 38.4203 35.7923 38.6815C35.6899 38.9427 35.5173 39.1705 35.2934 39.3396C35.0578 39.4912 34.7836 39.5718 34.5034 39.5718C34.2232 39.5718 33.949 39.4912 33.7134 39.3396L27.7134 36.1996L21.7134 39.3396C21.5029 39.4959 21.2542 39.5926 20.9934 39.6196V39.6196ZM20.0734 26.4196L23.3334 29.5796C23.5046 29.7537 23.632 29.966 23.705 30.199C23.7781 30.432 23.7946 30.679 23.7534 30.9196L22.9934 35.3796L26.9934 33.2596C27.2106 33.1506 27.4503 33.0938 27.6934 33.0938C27.9365 33.0938 28.1762 33.1506 28.3934 33.2596L32.3934 35.3796L31.6334 30.9196C31.5832 30.679 31.5955 30.4295 31.669 30.195C31.7425 29.9604 31.8749 29.7486 32.0534 29.5796L35.2934 26.4196L30.8134 25.7596C30.5727 25.7284 30.3439 25.6369 30.1481 25.4935C29.9523 25.3501 29.7959 25.1596 29.6934 24.9396L27.6934 20.9396L25.6934 24.9396C25.5909 25.1596 25.4345 25.3501 25.2387 25.4935C25.0429 25.6369 24.8141 25.7284 24.5734 25.7596L20.0734 26.4196Z" fill="#00E589"/>
</svg>